<svg width="70" height="70" viewBox="0 0 70 70" fill="none" xmlns="http://www.w3.org/2000/svg">
<g clip-path="url(#clip0)">
<path d="M43.2033 0C28.4275 0 16.4065 12.021 16.4065 26.7969C16.4065 33.0788 18.5803 38.862 22.2139 43.436L19.1773 46.4725L18.4523 45.7475C17.2529 44.548 15.3014 44.548 14.1019 45.7475C13.1567 46.6927 12.9564 48.1053 13.501 49.2486L1.49947 61.2501C-0.499497 63.2491 -0.499497 66.5018 1.49947 68.5007C3.49843 70.4997 6.75111 70.4997 8.75007 68.5007L20.7517 56.4992C21.8949 57.044 23.3073 56.8437 24.2528 55.8983C25.4522 54.6988 25.4522 52.7473 24.2528 51.5479L23.5277 50.8229L26.5643 47.7864C31.1382 51.4199 36.9214 53.5938 43.2033 53.5938C57.9792 53.5938 70.0002 41.5728 70.0002 26.7969C70.0002 12.021 57.9792 0 43.2033 0ZM2.94964 67.0506C2.00437 66.1053 1.80476 64.6931 2.34931 63.55L6.45019 67.6509C5.30695 68.1956 3.89478 67.9958 2.94964 67.0506ZM8.02505 66.3255L6.57488 64.8754L17.7272 53.7231L19.1773 55.1733L8.02505 66.3255ZM22.8026 54.4482C22.4028 54.848 21.7523 54.848 21.3524 54.4482L18.4522 51.548C18.0517 51.1476 17.4025 51.1476 17.002 51.548L5.1247 63.4253L3.67453 61.9752L15.5518 50.0979C15.9523 49.6974 15.9523 49.0481 15.5518 48.6477C15.1521 48.2479 15.1521 47.5974 15.5518 47.1975C15.9516 46.7977 16.6021 46.7977 17.002 47.1975L22.8024 52.9979C23.2025 53.398 23.2025 54.0483 22.8026 54.4482ZM22.0776 49.3728L20.6274 47.9227L23.5538 44.9962C24.0187 45.4977 24.5024 45.9814 25.004 46.4464L22.0776 49.3728ZM43.2033 51.543C29.5583 51.543 18.4572 40.442 18.4572 26.7969C18.4572 13.1518 29.5583 2.05078 43.2033 2.05078C56.8484 2.05078 67.9494 13.1518 67.9494 26.7969C67.9494 40.442 56.8484 51.543 43.2033 51.543Z" fill="#434343"/>
<path d="M43.2031 4.10156C37.9336 4.10156 32.799 5.94863 28.7453 9.30234C28.309 9.66342 28.2479 10.3097 28.6088 10.7461C28.9699 11.1825 29.6162 11.2436 30.0526 10.8825C33.7395 7.83221 38.4098 6.15234 43.2031 6.15234C54.5866 6.15234 63.8477 15.4134 63.8477 26.7969C63.8477 38.1804 54.5866 47.4414 43.2031 47.4414C31.8196 47.4414 22.5586 38.1804 22.5586 26.7969C22.5586 22.0035 24.2385 17.3332 27.2888 13.6462C27.6497 13.2099 27.5886 12.5635 27.1523 12.2024C26.7159 11.8413 26.0697 11.9026 25.7086 12.3389C22.3549 16.3927 20.5078 21.5273 20.5078 26.7969C20.5078 39.3112 30.6888 49.4922 43.2031 49.4922C55.7174 49.4922 65.8984 39.3112 65.8984 26.7969C65.8984 14.2826 55.7174 4.10156 43.2031 4.10156Z" fill="#434343"/>
<path d="M30.8984 27.8224C29.2022 27.8224 27.8223 29.2023 27.8223 30.8985C27.8223 32.5948 29.2022 33.9747 30.8984 33.9747C32.5947 33.9747 33.9746 32.5948 33.9746 30.8985C33.9746 30.4243 33.8666 29.9747 33.674 29.5732L37.7761 25.4711C38.1776 25.6636 38.6271 25.7717 39.1016 25.7717C39.576 25.7717 40.0254 25.6637 40.4271 25.4711L44.5292 29.5732C44.3367 29.9747 44.2285 30.4243 44.2285 30.8987C44.2285 32.5949 45.6084 33.9748 47.3047 33.9748C49.001 33.9748 50.3809 32.5949 50.3809 30.8987C50.3809 30.4244 50.2728 29.9749 50.0802 29.5733L54.1823 25.4712C54.5839 25.6637 55.0334 25.7719 55.5078 25.7719C57.2041 25.7719 58.584 24.3919 58.584 22.6957C58.584 20.9994 57.2041 19.6195 55.5078 19.6195C53.8115 19.6195 52.4316 20.9994 52.4316 22.6957C52.4316 23.17 52.5396 23.6195 52.7323 24.0212L48.6302 28.1233C48.2285 27.9306 47.7791 27.8226 47.3047 27.8226C46.8304 27.8226 46.3809 27.9306 45.9792 28.1233L41.8771 24.0212C42.0696 23.6196 42.1777 23.1701 42.1777 22.6958C42.1777 20.9995 40.7978 19.6196 39.1016 19.6196C37.4053 19.6196 36.0254 20.9995 36.0254 22.6958C36.0254 23.1701 36.1334 23.6196 36.326 24.0213L32.2239 28.1234C31.8222 27.9304 31.3729 27.8224 30.8984 27.8224ZM30.8984 31.9239C30.333 31.9239 29.873 31.464 29.873 30.8985C29.873 30.3331 30.333 29.8731 30.8984 29.8731C31.4639 29.8731 31.9238 30.3331 31.9238 30.8985C31.9238 31.464 31.4639 31.9239 30.8984 31.9239ZM55.5078 21.67C56.0733 21.67 56.5332 22.1299 56.5332 22.6954C56.5332 23.2609 56.0733 23.7208 55.5078 23.7208C54.9423 23.7208 54.4824 23.2609 54.4824 22.6954C54.4824 22.1299 54.9423 21.67 55.5078 21.67ZM47.3047 29.8731C47.8702 29.8731 48.3301 30.3331 48.3301 30.8985C48.3301 31.464 47.8702 31.9239 47.3047 31.9239C46.7392 31.9239 46.2793 31.464 46.2793 30.8985C46.2793 30.3331 46.7392 29.8731 47.3047 29.8731ZM39.1016 21.67C39.667 21.67 40.127 22.1299 40.127 22.6954C40.127 23.2609 39.667 23.7208 39.1016 23.7208C38.5361 23.7208 38.0762 23.2609 38.0762 22.6954C38.0762 22.1299 38.5361 21.67 39.1016 21.67Z" fill="#434343"/>
</g>
<defs>
<clipPath id="clip0">
<rect width="70" height="70" fill="white"/>
</clipPath>
</defs>
</svg>
