<svg width="59" height="59" viewBox="0 0 59 59" fill="none" xmlns="http://www.w3.org/2000/svg">
<g clip-path="url(#clip0)">
<path d="M35.2617 38.7188C35.2617 39.3552 34.7459 39.8711 34.1094 39.8711C33.4729 39.8711 32.957 39.3552 32.957 38.7188C32.957 38.0827 33.4729 37.5664 34.1094 37.5664C34.7459 37.5664 35.2617 38.0827 35.2617 38.7188Z" fill="#434343"/>
<path d="M34.1094 42.1819C33.4775 42.1068 32.9035 42.5555 32.827 43.1875C32.511 45.8015 31.6184 48.8115 30.7051 50.3438C30.3796 50.8907 30.5588 51.5978 31.1053 51.9237C31.6522 52.2496 32.3593 52.07 32.6852 51.5236C33.7772 49.6911 34.7536 46.4524 35.115 43.4644C35.1916 42.8324 34.7414 42.2584 34.1094 42.1819Z" fill="#434343"/>
<path d="M55.5848 52.3493L46.6213 44.9545L42.1168 31.4406C41.9597 30.9702 41.5195 30.6528 41.0234 30.6528H37.006C36.6675 30.141 36.3051 29.6652 35.9198 29.2286C36.1156 28.9572 36.2979 28.6772 36.4645 28.3932L43.0166 26.2096L47.1223 30.3152C47.3388 30.5313 47.6319 30.6528 47.9375 30.6528H54.8511C55.4876 30.6528 56.0035 30.1365 56.0035 29.5005C56.0035 28.864 55.4876 28.3482 54.8511 28.3482H48.4146L44.1429 24.0759C43.8341 23.7676 43.3776 23.66 42.9635 23.7977L37.5101 25.6154C37.5295 25.4858 37.5439 25.3579 37.5534 25.2323L43.9804 14.52H47.9375C48.5735 14.52 49.0898 14.0037 49.0898 13.3677C49.0898 12.7312 48.5735 12.2153 47.9375 12.2153H43.3281C42.9235 12.2153 42.548 12.4278 42.3401 12.7749L36.6675 22.2286C36.3591 21.8001 35.9752 21.4003 35.5255 21.0393C36.8367 19.5759 37.5664 17.689 37.5664 15.6724C37.5664 13.387 36.6189 10.7263 35.1352 8.69034L37.0528 7.41241C37.5173 7.10317 37.6933 6.50584 37.4705 5.99404L35.1658 0.693258C34.9124 0.109434 34.2332 -0.157946 33.6498 0.09593C33.0664 0.349806 32.7986 1.02861 33.0525 1.61198L34.9727 6.02915L33.5652 6.96678C32.303 5.8752 30.913 5.30128 29.5 5.30128C28.087 5.30128 26.697 5.8752 25.4344 6.96678L24.0268 6.02915L25.9475 1.61198C26.201 1.02861 25.9336 0.349806 25.3502 0.09593C24.7664 -0.157496 24.0876 0.109434 23.8337 0.693258L21.529 5.99404C21.3067 6.50539 21.4827 7.10317 21.9467 7.41241L23.8648 8.69034C22.3807 10.7263 21.4336 13.387 21.4336 15.6724C21.4336 17.689 22.1633 19.5759 23.4745 21.0393C23.0244 21.4003 22.6409 21.8001 22.3325 22.2286L16.6599 12.7749C16.4515 12.4274 16.0765 12.2153 15.6719 12.2153H11.0625C10.426 12.2153 9.91016 12.7312 9.91016 13.3677C9.91016 14.0037 10.426 14.52 11.0625 14.52H15.0196L21.4466 25.2323C21.4561 25.3579 21.4705 25.4858 21.4899 25.6154L16.036 23.7977C15.6224 23.66 15.1659 23.7676 14.8571 24.0759L10.5854 28.3482H4.14844C3.5124 28.3482 2.99609 28.864 2.99609 29.5005C2.99609 30.1365 3.5124 30.6528 4.14844 30.6528H11.0625C11.3681 30.6528 11.6612 30.5313 11.8772 30.3152L15.9829 26.2096L22.5355 28.3932C22.7021 28.6772 22.8844 28.9572 23.0802 29.2286C22.6949 29.6652 22.3321 30.141 21.994 30.6528H17.9766C17.4805 30.6528 17.0403 30.9702 16.8832 31.4406L12.3787 44.9545L3.41517 52.3493C2.92407 52.7544 2.85475 53.481 3.25942 53.9716C3.66544 54.4636 4.39196 54.5316 4.88171 54.1273L14.1005 46.5219C14.2675 46.3841 14.3921 46.2027 14.4606 45.9975L18.8071 32.9562H20.7462C19.697 35.3464 19.1289 38.144 19.1289 41.0235C19.1289 44.9631 20.1858 49.3753 21.9562 52.8256C23.9989 56.8074 26.6781 59 29.5 59C32.3214 59 35.0006 56.8074 37.0438 52.8256C38.8142 49.3753 39.8711 44.9631 39.8711 41.0235C39.8711 38.144 39.303 35.3473 38.2533 32.9575H40.1925L44.5394 45.9975C44.6079 46.2027 44.7325 46.3841 44.8991 46.5219L54.1178 54.1273C54.6089 54.532 55.335 54.4627 55.7401 53.9716C56.1452 53.481 56.0755 52.7544 55.5848 52.3493ZM23.7383 24.8911C23.7383 24.0458 24.3127 23.2031 25.3002 22.5594C26.5624 23.3323 27.9993 23.7388 29.5 23.7388C31.0003 23.7388 32.4371 23.3323 33.6993 22.5594C34.6873 23.2031 35.2617 24.0458 35.2617 24.8911C35.2617 26.8956 32.5906 30.6528 29.5 30.6528C26.4445 30.6528 23.7383 26.9244 23.7383 24.8911ZM29.5 7.60597C32.5028 7.60597 35.2617 12.3211 35.2617 15.6724C35.2617 17.5013 34.4218 19.1816 32.9575 20.2817C31.9537 21.0357 30.7581 21.4341 29.5 21.4341C28.2419 21.4341 27.0459 21.0357 26.0425 20.2822C24.5782 19.1816 23.7383 17.5013 23.7383 15.6724C23.7383 12.3553 26.4805 7.60597 29.5 7.60597ZM34.993 51.7731C33.3883 54.9016 31.3861 56.6954 29.5 56.6954C27.6139 56.6954 25.6117 54.9016 24.0066 51.7731C22.3955 48.633 21.4336 44.6147 21.4336 41.0235C21.4336 37.8203 22.2092 34.7558 23.6181 32.3953C23.9318 31.8696 24.2726 31.3879 24.6363 30.9522C26.106 32.2522 27.7976 32.9575 29.5 32.9575C31.202 32.9575 32.894 32.2517 34.3637 30.9522C34.7274 31.3879 35.0682 31.8696 35.3819 32.3958C36.7904 34.7558 37.5664 37.8203 37.5664 41.0235C37.5664 44.6147 36.6045 48.633 34.993 51.7731Z" fill="#434343"/>
</g>
<defs>
<clipPath id="clip0">
<rect width="59" height="59" fill="white"/>
</clipPath>
</defs>
</svg>
