<svg width="59" height="59" viewBox="0 0 59 59" fill="none" xmlns="http://www.w3.org/2000/svg">
<g clip-path="url(#clip0)">
<path d="M31.6692 16.7706C31.6692 16.2696 31.6409 15.775 31.5876 15.2879H35.5512V13.5558H31.2823C30.6734 11.0674 29.3743 8.84794 27.6005 7.11275L31.7001 2.43822L30.398 1.29608L26.2881 5.98228C24.031 4.27734 21.2245 3.26511 18.1862 3.26511C15.3824 3.26511 12.7758 4.12722 10.6164 5.6003L6.51458 0.92334L5.2124 2.06547L9.24895 6.66807C7.32415 8.37832 5.88999 10.6301 5.187 13.1831H1.3613V14.9152H4.83111C4.74751 15.522 4.70328 16.1411 4.70328 16.7706V23.3131H0V25.0452H4.70317V34.43H1.3613V36.1621H4.70317V39.5899C4.70317 41.344 5.03908 43.0211 5.64935 44.5602H0V46.2922H6.48386C7.37773 47.852 8.57379 49.2164 9.99097 50.3064L6.3961 53.725L7.58973 54.9801L11.4653 51.2945C13.2095 52.3032 15.1991 52.9312 17.3202 53.0666V58.9049H19.0523V53.0666C21.2107 52.9289 23.2325 52.2804 24.9985 51.2404L29.3229 55.353L30.5166 54.0979L26.4634 50.2435C27.7313 49.2528 28.8182 48.0405 29.6662 46.6651H36.9125V44.933H30.5682C31.276 43.2934 31.6693 41.4869 31.6693 39.59V36.535H35.5514V34.8029H31.6693V32.9762H29.9372V39.59C29.9372 46.0818 24.6658 51.3633 18.1862 51.3633C11.7068 51.3633 6.43536 46.0818 6.43536 39.59V16.7706C6.43536 10.2788 11.7068 4.9973 18.1862 4.9973C24.6657 4.9973 29.9372 10.2788 29.9372 16.7706V27.0637H31.6693V25.418H36.9125V23.686H31.6693V16.7706H31.6692Z" fill="#434343"/>
<path d="M20.493 9.18518C17.1588 9.18518 14.4464 11.9018 14.4464 15.2409C14.4464 18.58 17.1588 21.2966 20.493 21.2966C23.8271 21.2966 26.5395 18.58 26.5395 15.2409C26.5395 11.9018 23.8271 9.18518 20.493 9.18518ZM20.493 19.5645C18.1139 19.5645 16.1785 17.6249 16.1785 15.2409C16.1785 12.8568 18.1139 10.9173 20.493 10.9173C22.872 10.9173 24.8075 12.8568 24.8075 15.2409C24.8075 17.6249 22.872 19.5645 20.493 19.5645Z" fill="#434343"/>
<path d="M16.1785 29.0926C16.1785 27.4012 14.8042 26.0253 13.115 26.0253C11.4259 26.0253 10.0515 27.4012 10.0515 29.0926C10.0515 30.7839 11.4257 32.16 13.115 32.16C14.8042 32.1601 16.1785 30.784 16.1785 29.0926ZM11.7836 29.0926C11.7836 28.3563 12.3808 27.7573 13.115 27.7573C13.8492 27.7573 14.4464 28.3564 14.4464 29.0926C14.4464 29.8289 13.8492 30.4279 13.115 30.4279C12.3809 30.428 11.7836 29.8289 11.7836 29.0926Z" fill="#434343"/>
<path d="M20.4928 44.868C22.9743 44.868 24.9932 42.8462 24.9932 40.3611C24.9932 37.8761 22.9744 35.8544 20.4928 35.8544C18.0112 35.8544 15.9924 37.8762 15.9924 40.3611C15.9925 42.8463 18.0113 44.868 20.4928 44.868ZM20.4928 37.5864C22.0193 37.5864 23.2612 38.8311 23.2612 40.3611C23.2612 41.8911 22.0194 43.1359 20.4928 43.1359C18.9663 43.1359 17.7245 41.8911 17.7245 40.3611C17.7245 38.8311 18.9664 37.5864 20.4928 37.5864Z" fill="#434343"/>
<path d="M24.2448 23.6859H25.9768V25.418H24.2448V23.6859Z" fill="#434343"/>
<path d="M24.2448 27.7244H25.9768V29.4564H24.2448V27.7244Z" fill="#434343"/>
<path d="M10.5924 35.2252H12.3245V36.9573H10.5924V35.2252Z" fill="#434343"/>
<path d="M10.5924 39.2637H12.3245V40.9958H10.5924V39.2637Z" fill="#434343"/>
<path d="M29.9247 29.1051L31.6568 29.0999L31.6627 31.0707L29.9306 31.0758L29.9247 29.1051Z" fill="#434343"/>
<path d="M48.7153 24.6649C49.1773 24.6648 49.646 24.6247 50.1163 24.5418C52.225 24.1701 54.0669 22.9933 55.3026 21.2283C56.5385 19.4634 57.0144 17.3301 56.6426 15.2214L56.3378 13.4937L54.6322 13.7945L54.9369 15.5222C55.2284 17.1751 54.8544 18.8488 53.884 20.2348C52.9135 21.6208 51.4686 22.5446 49.8157 22.8361C46.3864 23.4403 43.1063 21.1431 42.5018 17.7148L41.0071 9.23787C40.4027 5.80939 42.7 2.52849 46.1285 1.92388C49.5573 1.32008 52.8379 3.6167 53.4424 7.04517L53.7201 8.62032L55.4257 8.31952L55.148 6.74437C54.3776 2.37537 50.1961 -0.55253 45.8277 0.218244C43.7191 0.589948 41.8772 1.76672 40.6414 3.53171C39.4055 5.2967 38.9297 7.43004 39.3015 9.53867L40.7961 18.0157C41.4833 21.9143 44.8862 24.665 48.7153 24.6649Z" fill="#434343"/>
<path d="M54.0209 10.3262L54.0258 10.3545L54.3265 12.0603L54.3266 12.0602V12.0603L56.0324 11.7595L55.7316 10.0538L55.7265 10.0253L54.0209 10.3262Z" fill="#434343"/>
<path d="M45.5365 13.234L47.2426 12.9326L47.544 14.6387L45.8379 14.9401L45.5365 13.234Z" fill="#434343"/>
<path d="M48.9491 12.6285L50.6551 12.3272L50.9565 14.0333L49.2505 14.3346L48.9491 12.6285Z" fill="#434343"/>
<path d="M46.6501 9.57434L48.3562 9.27296L48.6576 10.9789L46.9515 11.2803L46.6501 9.57434Z" fill="#434343"/>
<path d="M53.7059 33.8151C49.5369 32.2978 44.9111 34.455 43.3937 38.6237L40.4496 46.7125C39.7173 48.7246 39.8155 50.9081 40.7261 52.8608C41.6369 54.8136 43.2463 56.2923 45.2583 57.0246C46.1497 57.3491 47.0746 57.5105 47.9983 57.5105C49.1596 57.5105 50.319 57.2554 51.4066 56.7481C53.3593 55.8375 54.8381 54.228 55.5704 52.216L56.1705 50.5675L54.5428 49.975L53.9427 51.6236C53.3687 53.2008 52.2081 54.4632 50.6745 55.1782C49.1413 55.8934 47.428 55.971 45.8508 55.3969C44.2735 54.8229 43.011 53.6623 42.296 52.1288C41.581 50.5952 41.5033 48.8821 42.0773 47.305L45.0213 39.2162C46.212 35.945 49.8419 34.2522 53.1134 35.4428C56.3847 36.6336 58.0774 40.2637 56.8868 43.5349L56.3398 45.0379L57.9675 45.6303L58.5145 44.1274C60.0316 39.9585 57.8746 35.3324 53.7059 33.8151Z" fill="#434343"/>
<path d="M55.7374 46.6925V46.6924L55.145 48.3201L56.7727 48.9126L57.375 47.2579L55.7473 46.6654L55.7374 46.6925Z" fill="#434343"/>
<path d="M46.3521 46.563L46.9444 44.9348L48.5726 45.5272L47.9802 47.1554L46.3521 46.563Z" fill="#434343"/>
<path d="M49.6053 47.7418L50.1977 46.1137L51.8258 46.706L51.2334 48.3342L49.6053 47.7418Z" fill="#434343"/>
<path d="M49.1423 43.9498L49.7347 42.3217L51.3629 42.914L50.7705 44.5422L49.1423 43.9498Z" fill="#434343"/>
</g>
<defs>
<clipPath id="clip0">
<rect width="59" height="59" fill="white"/>
</clipPath>
</defs>
</svg>
