<svg width="59" height="59" viewBox="0 0 59 59" fill="none" xmlns="http://www.w3.org/2000/svg">
<g clip-path="url(#clip0)">
<path d="M51.6695 22.1699H49.1632C49.152 22.1699 49.1412 22.1668 49.1317 22.1608L42.1912 17.8229C41.9067 17.6451 41.5791 17.5512 41.2436 17.5512H36.5796C36.7449 16.9353 36.8304 16.2957 36.8304 15.6442C36.8304 15.5321 36.827 15.4204 36.8221 15.309L40.453 13.8566C41.0019 13.6371 41.4061 13.1615 41.5344 12.5844L43.1625 5.25746C43.167 5.23718 43.1821 5.22047 43.2018 5.21391L45.4769 4.45555C45.9297 4.30459 46.1744 3.81519 46.0235 3.36232C45.8726 2.90945 45.3829 2.6647 44.9303 2.81565L42.6552 3.57401C42.0628 3.77152 41.6108 4.27279 41.4752 4.88238L39.8471 12.2092C39.8428 12.2284 39.8293 12.2443 39.8111 12.2516L36.5289 13.5645C36.3008 12.7956 35.9462 12.0653 35.4704 11.3988C35.2547 11.0966 34.9609 10.8841 34.6359 10.7669L34.2599 9.6389C33.9957 8.84632 33.2569 8.31382 32.4214 8.31382C32.3059 8.31382 32.212 8.2199 32.212 8.10444C32.212 7.9604 32.1995 7.81912 32.1765 7.68153C35.6595 3.46431 40.8069 1.70168 40.8592 1.68417C41.3115 1.53298 41.5559 1.04381 41.4051 0.591173C41.254 0.138418 40.7646 -0.10634 40.3118 0.044617C40.0872 0.119404 35.0232 1.84411 31.2502 6.10582C30.8115 5.75389 30.2552 5.54267 29.6503 5.54267H29.3501C28.7452 5.54267 28.189 5.75389 27.7502 6.10582C23.9772 1.84423 18.913 0.119519 18.6885 0.044617C18.2359 -0.10634 17.7471 0.138187 17.596 0.590596C17.4447 1.04301 17.6889 1.53252 18.1411 1.68417C18.1934 1.70168 23.3408 3.46431 26.8238 7.68153C26.8009 7.81923 26.7883 7.9604 26.7883 8.10444C26.7883 8.2199 26.6944 8.31382 26.5789 8.31382C25.7435 8.31382 25.0046 8.84632 24.7405 9.6389L24.3638 10.7688C24.0373 10.8868 23.7423 11.1006 23.5258 11.4047C23.0501 12.0724 22.6986 12.801 22.4719 13.5649L19.1891 12.2518C19.1707 12.2446 19.1574 12.2287 19.1531 12.2095L17.5249 4.88261C17.3895 4.27302 16.9373 3.77175 16.3449 3.57424L14.0698 2.81588C13.617 2.66493 13.1275 2.90968 12.9766 3.36255C12.8256 3.81542 13.0704 4.30482 13.5232 4.45578L15.7982 5.21414C15.8179 5.22071 15.833 5.23741 15.8375 5.25769L17.4656 12.5846C17.5939 13.1617 17.9981 13.6373 18.547 13.8568L22.1781 15.3092C22.151 15.9135 22.1964 16.5277 22.3193 17.142C22.3467 17.2792 22.3791 17.4156 22.4149 17.5513H17.7564C17.4209 17.5513 17.0933 17.6453 16.8087 17.8231L9.86824 22.1609C9.85867 22.1669 9.84784 22.17 9.83666 22.17H7.33032C6.85302 22.17 6.46606 22.557 6.46606 23.0343C6.46606 23.5116 6.85302 23.8985 7.33032 23.8985H9.83666C10.1721 23.8985 10.4997 23.8046 10.7843 23.6267L17.7248 19.2888C17.7344 19.283 17.7452 19.2798 17.7564 19.2798H23.1189C21.6077 20.1555 20.2254 21.3514 19.0289 22.839C17.8686 24.2816 16.9301 25.9498 16.2324 27.7773L12.997 29.3957C12.3873 29.7005 12.0085 30.3133 12.0085 30.9949V50.388L10.4142 51.9824C10.0767 52.3199 10.0767 52.8671 10.4142 53.2046C10.5829 53.3733 10.8042 53.4577 11.0253 53.4577C11.2464 53.4577 11.4677 53.3734 11.6364 53.2046L13.4838 51.357C13.646 51.195 13.737 50.9751 13.737 50.7459V30.9948C13.737 30.9721 13.7496 30.9517 13.77 30.9415L15.5034 30.0749C15.0273 31.9358 14.7797 33.9185 14.7797 35.9662C14.7797 41.5297 16.3042 47.2478 18.9623 51.6542C21.8197 56.3912 25.5621 59 29.5 59C33.4379 59 37.1802 56.3912 40.0377 51.6542C42.6957 47.2478 44.2202 41.5297 44.2202 35.9662C44.2202 33.9184 43.9727 31.9357 43.4966 30.0749L45.23 30.9415C45.2503 30.9517 45.263 30.9721 45.263 30.9948V50.7459C45.263 50.9751 45.354 51.1949 45.5162 51.357L47.3636 53.2046C47.5323 53.3733 47.7535 53.4577 47.9747 53.4577C48.1958 53.4577 48.4171 53.3734 48.5858 53.2046C48.9233 52.867 48.9233 52.3199 48.5858 51.9824L46.9915 50.388V30.995C46.9915 30.3134 46.6127 29.7006 46.003 29.3958L42.7686 27.78C42.0709 25.9514 41.132 24.2823 39.9712 22.8391C38.7747 21.3515 37.3924 20.1556 35.8812 19.28H41.2437C41.2549 19.28 41.2657 19.2831 41.2752 19.289L48.2157 23.6268C48.5003 23.8046 48.8279 23.8985 49.1633 23.8985H51.6697C52.147 23.8985 52.5339 23.5116 52.5339 23.0343C52.5339 22.557 52.1468 22.1699 51.6695 22.1699ZM26.3803 10.1857C26.4088 10.1001 26.4887 10.0426 26.5789 10.0426C27.6475 10.0426 28.5168 9.17324 28.5168 8.10467C28.5168 7.64523 28.8906 7.27141 29.3501 7.27141H29.6499C30.1093 7.27141 30.4832 7.64523 30.4832 8.10467C30.4832 9.17324 31.3525 10.0426 32.4211 10.0426C32.5113 10.0426 32.5911 10.1001 32.6197 10.1857L32.9072 11.0481C31.8834 11.6768 30.7096 12.0089 29.5 12.0089C28.2905 12.0089 27.1166 11.6768 26.0927 11.0482L26.3803 10.1857ZM24.9336 12.4077C24.9442 12.393 24.9754 12.387 24.9972 12.4012C26.3374 13.2753 27.8944 13.7374 29.5 13.7374C31.1061 13.7374 32.6635 13.275 34.0039 12.4003C34.0256 12.3862 34.0553 12.3921 34.0634 12.4032C34.7428 13.355 35.1019 14.4757 35.1019 15.6442C35.1019 16.6631 34.8311 17.6438 34.3157 18.5074C32.7942 17.8791 31.1726 17.5512 29.5 17.5512C27.8241 17.5512 26.1996 17.8803 24.6755 18.5111C24.3599 17.9793 24.1334 17.398 24.0144 16.8029C23.7018 15.2396 24.0282 13.6787 24.9336 12.4077ZM29.5 57.2717C26.4002 57.2717 23.3811 55.2421 20.9298 51.5334H38.0703C35.619 55.2421 32.5998 57.2717 29.5 57.2717ZM41.5769 43.3359H26.6904C26.2131 43.3359 25.8261 43.7229 25.8261 44.2002C25.8261 44.6775 26.2131 45.0644 26.6904 45.0644H41.0896C40.5627 46.7404 39.8956 48.3382 39.1028 49.805H19.8973C19.1045 48.3382 18.4374 46.7404 17.9105 45.0644H22.803C23.2803 45.0644 23.6673 44.6775 23.6673 44.2002C23.6673 43.7229 23.2803 43.3359 22.803 43.3359H17.4232C17.0772 41.9502 16.8256 40.5259 16.6747 39.0915C20.51 39.4257 24.9199 39.602 29.4976 39.602C34.0737 39.602 38.4889 39.4259 42.3254 39.0914C42.1745 40.5259 41.9229 41.9501 41.5769 43.3359ZM42.4917 35.9664C42.4917 36.4248 42.4802 36.8842 42.4586 37.3437C38.6064 37.6902 34.1389 37.8735 29.4976 37.8735C24.8554 37.8735 20.3925 37.6907 16.5416 37.3444C16.52 36.8847 16.5084 36.4251 16.5084 35.9666C16.5084 35.1161 16.5546 34.2788 16.6442 33.4589C20.4965 34.3055 24.9239 34.7525 29.4976 34.7525C34.0749 34.7525 38.5023 34.3056 42.3557 33.4584C42.4455 34.2783 42.4917 35.1158 42.4917 35.9664ZM38.0083 23.2068C37.4048 23.6851 36.7163 24.1109 35.953 24.4767C35.5226 24.6829 35.3409 25.1991 35.5471 25.6295C35.6957 25.9395 36.005 26.1205 36.3272 26.1205C36.4523 26.1205 36.5795 26.0932 36.7001 26.0354C37.587 25.6105 38.3908 25.1114 39.0998 24.5471C40.5616 26.573 41.5819 29.0353 42.0997 31.744C38.3404 32.5814 33.9986 33.0238 29.4977 33.0238C25.0006 33.0238 20.6586 32.5814 16.9005 31.7448C17.4181 29.0359 18.4387 26.5734 19.9005 24.5472C22.336 26.4915 25.7802 27.5934 29.5002 27.5934C30.7277 27.5934 31.9418 27.4714 33.1088 27.2308C33.5763 27.1344 33.877 26.6772 33.7806 26.2098C33.6843 25.7423 33.227 25.4415 32.7596 25.5379C31.7073 25.7549 30.6107 25.8649 29.5002 25.8649C26.2258 25.8649 23.1089 24.8807 20.9926 23.2061C23.3236 20.6673 26.3125 19.2798 29.5002 19.2798C32.6879 19.2798 35.6772 20.6675 38.0083 23.2068Z" fill="#434343"/>
</g>
<defs>
<clipPath id="clip0">
<rect width="59" height="59" fill="white"/>
</clipPath>
</defs>
</svg>
