<svg width="70" height="70" viewBox="0 0 70 70" fill="none" xmlns="http://www.w3.org/2000/svg">
<g clip-path="url(#clip0)">
<path d="M67.5889 35.109H54.3805C54.5429 34.9776 54.7031 34.842 54.8574 34.6989C56.5648 33.1159 57.6014 30.9658 57.7766 28.6442C57.7771 28.6357 57.7777 28.6266 57.7782 28.6181L58.5414 13.2511H60.6765C61.9305 13.2511 62.9506 12.231 62.9506 10.977V6.5123C62.9506 5.25833 61.9305 4.23828 60.6765 4.23828H20.8999C20.3354 4.23828 19.8777 4.69597 19.8777 5.261C19.8777 5.8255 20.3354 6.28319 20.8999 6.28319H60.6765C60.8026 6.28319 60.9057 6.38627 60.9057 6.51284V10.977C60.9057 11.1036 60.8026 11.2061 60.6765 11.2061H42.0886V10.5589C42.0886 8.6229 40.5137 7.0485 38.5783 7.0485H31.1484C29.213 7.0485 27.6381 8.6229 27.6381 10.5589V11.2061H9.05016C8.92412 11.2061 8.82105 11.1036 8.82105 10.977V6.5123C8.82105 6.38627 8.92412 6.28319 9.05016 6.28319H16.1334C16.6979 6.28319 17.1556 5.8255 17.1556 5.26047C17.1556 4.69597 16.6979 4.23828 16.1334 4.23828H9.05016C7.79619 4.23828 6.77614 5.25833 6.77614 6.5123V10.9765C6.77614 12.2305 7.79619 13.2511 9.05016 13.2511H11.1853L11.9485 28.6181C11.949 28.6266 11.9496 28.6357 11.9501 28.6442C12.1253 30.9658 13.1619 33.1159 14.8693 34.6989C15.0236 34.842 15.1838 34.9776 15.3462 35.109H2.13784C0.883333 35.109 -0.136719 36.1291 -0.136719 37.383V42.2243C-0.136719 43.4782 0.883333 44.4988 2.13784 44.4988H3.92747L4.39477 50.6864V50.687L4.8562 56.8003C4.89091 57.2618 4.95767 57.7168 5.0554 58.1627C5.47891 60.0949 6.47973 61.8557 7.95053 63.2192C9.75992 64.8977 12.1157 65.8217 14.5841 65.8217H55.1426C56.8393 65.8217 58.4832 65.3848 59.9331 64.5666C60.5922 64.1944 61.2111 63.7436 61.7762 63.2192C63.5861 61.5412 64.6847 59.2613 64.8705 56.8003L65.7992 44.4988H67.5889C68.8428 44.4988 69.8634 43.4782 69.8634 42.2243V37.383C69.8634 36.1291 68.8434 35.109 67.5889 35.109ZM29.683 10.5583C29.683 9.7503 30.3404 9.09287 31.1484 9.09287H38.5783C39.3863 9.09287 40.0437 9.7503 40.0437 10.5583V11.2061H29.683V10.5583ZM13.9902 28.5027L13.2329 13.2511H56.4938L55.7365 28.5027C55.4502 32.208 52.318 35.109 48.6004 35.109H21.1263C17.4087 35.109 14.2765 32.208 13.9902 28.5027ZM23.9018 44.4988V46.8327C23.9018 47.9526 24.1416 49.017 24.5694 49.9799C24.5897 50.0381 24.6148 50.0936 24.6447 50.146C25.8917 52.7847 28.578 54.6155 31.6846 54.6155H38.2039C41.3078 54.6155 43.992 52.7885 45.2406 50.1534C45.2444 50.146 45.2481 50.138 45.2513 50.1299C45.7218 49.128 45.9867 48.0108 45.9867 46.8327V44.4988H48.6843V46.8327C48.6843 52.6112 43.9824 57.3125 38.2039 57.3125H31.6846C25.9061 57.3125 21.2048 52.6112 21.2048 46.8327V44.4988H23.9018ZM43.9418 44.4988V46.8327C43.9418 47.4548 43.8409 48.0546 43.6566 48.6159C43.5536 48.6111 43.4473 48.6089 43.3389 48.6089C41.9973 48.6089 41.2694 48.9929 40.6846 49.3022C40.1826 49.567 39.82 49.7588 38.9847 49.7588C38.1494 49.7588 37.7868 49.567 37.2853 49.3022C36.7005 48.9929 35.9726 48.6089 34.6305 48.6089C33.2884 48.6089 32.561 48.9929 31.9762 49.3022C31.4742 49.567 31.1116 49.7588 30.2769 49.7588C29.4416 49.7588 29.0784 49.567 28.5769 49.3022C28.0391 49.018 27.3791 48.6709 26.233 48.617C26.0482 48.0551 25.9472 47.4554 25.9472 46.8327V44.4988H43.9418ZM40.3796 42.4539H29.3471V41.5738C29.3471 40.691 30.0648 39.9732 30.9471 39.9732H38.7791C39.6619 39.9732 40.3796 40.6915 40.3796 41.5738V42.4539ZM42.3573 50.7847C41.3116 51.8838 39.837 52.5706 38.2039 52.5706H31.6852C30.3879 52.5706 29.1906 52.1375 28.2282 51.409C28.7233 51.6226 29.3551 51.8037 30.2763 51.8037C31.6184 51.8037 32.3463 51.4192 32.9306 51.1105C33.4326 50.8456 33.7952 50.6539 34.6305 50.6539C35.4652 50.6539 35.8284 50.8456 36.3299 51.1105C36.9147 51.4192 37.6426 51.8037 38.9847 51.8037C40.3268 51.8037 41.0542 51.4192 41.639 51.1105C41.8878 50.9791 42.1025 50.8659 42.3573 50.7847ZM19.3554 49.0458C18.8469 48.8146 18.1943 48.6089 17.2127 48.6089C15.8706 48.6089 15.1432 48.9929 14.5584 49.3022C14.0564 49.567 13.6938 49.7588 12.8585 49.7588C12.0233 49.7588 11.6606 49.567 11.1586 49.3022C10.5738 48.9929 9.84591 48.6089 8.50382 48.6089C7.49818 48.6089 6.83702 48.8247 6.32272 49.0629L5.97825 44.4988H19.1599V46.8327C19.1599 47.5878 19.2272 48.3275 19.3554 49.0458ZM14.5841 63.7767C10.5744 63.7767 7.19697 60.645 6.89523 56.6465L6.48988 51.2723C6.5999 51.2178 6.70404 51.1628 6.80337 51.1105C7.93718 50.5016 9.07045 50.5016 10.2037 51.1105C10.7885 51.4192 11.5164 51.8037 12.8585 51.8037C14.2006 51.8037 14.9285 51.4192 15.5133 51.1105C16.6461 50.5016 17.7793 50.5016 18.9126 51.1105C19.2453 51.2862 19.616 51.4795 20.1105 51.6178C21.9941 56.1568 26.4728 59.3574 31.6852 59.3574H38.2039C43.521 59.3574 48.0744 56.0265 49.8886 51.3423C50.0563 51.2637 50.2095 51.1836 50.3489 51.1105C51.4822 50.5016 52.6155 50.5016 53.7493 51.1105C54.3341 51.4192 55.062 51.8031 56.4041 51.8031C57.7462 51.8031 58.4741 51.4192 59.0589 51.1105C60.1927 50.5016 61.327 50.5016 62.4608 51.1105C62.6793 51.2253 62.9265 51.3556 63.2219 51.4715L62.8315 56.6465C62.7498 57.7269 62.4256 58.8143 61.9017 59.7638C60.5799 62.1591 58.0244 63.7767 55.1426 63.7767H14.5841ZM63.3869 49.2872C62.8064 48.9812 62.0806 48.6089 60.7588 48.6089C59.4167 48.6089 58.6893 48.9929 58.104 49.3022C57.602 49.567 57.2393 49.7588 56.4041 49.7588C55.5688 49.7588 55.2056 49.567 54.7036 49.3022C54.1188 48.9929 53.3909 48.6089 52.0488 48.6089C51.448 48.6089 50.9711 48.6858 50.5743 48.7991C50.6758 48.1582 50.7292 47.5013 50.7292 46.8327V44.4988H63.7484L63.3869 49.2872ZM67.8185 42.2243C67.8185 42.3508 67.7154 42.4539 67.5889 42.4539H42.4246V41.5738C42.4246 39.5636 40.7893 37.9283 38.7791 37.9283H30.9471C28.9374 37.9283 27.3021 39.5636 27.3021 41.5738V42.4539H2.13784C2.01127 42.4539 1.90819 42.3508 1.90819 42.2243V37.383C1.90819 37.2565 2.01127 37.1539 2.13784 37.1539H67.5889C67.7154 37.1539 67.8185 37.2565 67.8185 37.383V42.2243Z" fill="#434343"/>
<path d="M54.098 27.9126V21.5018C54.098 20.9373 53.6403 20.4796 53.0758 20.4796C52.5108 20.4796 52.0531 20.9373 52.0531 21.5018V27.9126C52.0531 30.4184 50.0146 32.4569 47.5088 32.4569H39.0114C36.5056 32.4569 34.4665 30.4184 34.4665 27.9126V21.5018C34.4665 18.996 36.505 16.9575 39.0114 16.9575H47.5088C48.6196 16.9575 49.6894 17.3628 50.5203 18.0987C50.9433 18.4731 51.5895 18.4336 51.9634 18.0112C52.3383 17.5887 52.2988 16.942 51.8763 16.5676C50.6709 15.5006 49.12 14.9131 47.5088 14.9131H39.0114C35.3776 14.9131 32.4216 17.8686 32.4216 21.5023V27.9126C32.4216 31.5458 35.3776 34.5018 39.0114 34.5018H47.5088C51.142 34.5018 54.098 31.5458 54.098 27.9126Z" fill="#434343"/>
<path d="M26.6314 19.3896C26.1032 19.3896 25.5201 19.5524 24.9657 19.7778C24.9662 19.7452 24.9668 19.7137 24.9652 19.6812C24.9614 19.6229 24.9572 19.5605 24.9518 19.4958C25.2156 19.1604 25.6578 18.8945 26.3975 18.8945C26.9625 18.8945 27.4202 18.4368 27.4202 17.8723C27.4202 17.3073 26.9625 16.8496 26.3975 16.8496C25.5553 16.8496 24.9096 17.0504 24.4236 17.3137C24.1956 16.7892 23.8762 16.2664 23.4276 15.813C23.4276 15.813 23.4276 15.813 23.4271 15.813C22.2158 14.5884 20.494 14.2978 19.5754 14.2338C19.1824 14.2065 18.7941 14.3496 18.5132 14.6279C18.2323 14.9056 18.0844 15.2912 18.1079 15.6859C18.1607 16.5831 18.4235 18.2477 19.5648 19.4665C17.0403 19.8937 15.1107 22.0951 15.1107 24.7398C15.1107 26.1614 15.6645 28.4835 16.4571 30.3858C17.5717 33.062 18.9559 34.4762 20.4604 34.4762C21.2257 34.4762 21.8708 34.3186 22.4401 34.1798C22.8631 34.0762 23.2284 33.987 23.5462 33.987C23.8639 33.987 24.2292 34.0762 24.6522 34.1798C25.2215 34.3186 25.8667 34.4762 26.6314 34.4762C28.1364 34.4762 29.5207 33.062 30.6353 30.3858C31.4278 28.4835 31.9816 26.1614 31.9816 24.7398C31.9816 21.7896 29.5816 19.3896 26.6314 19.3896ZM21.9734 17.2507C22.4524 17.735 22.6917 18.4096 22.8113 18.9725C22.25 18.8464 21.5782 18.5997 21.0991 18.1158C20.6201 17.632 20.3808 16.9569 20.2612 16.3946C20.8225 16.5201 21.4949 16.7668 21.9734 17.2507ZM28.7479 29.5997C27.8144 31.839 26.9556 32.4313 26.6314 32.4313C26.1129 32.4313 25.6392 32.3154 25.1371 32.1925C24.6319 32.0697 24.1101 31.9421 23.5462 31.9421C22.9822 31.9421 22.4599 32.0697 21.9552 32.1925C21.4532 32.3154 20.9795 32.4313 20.4604 32.4313C20.1362 32.4313 19.2774 31.839 18.3444 29.5997C17.5722 27.746 17.1556 25.7117 17.1556 24.7392C17.1556 22.917 18.6382 21.4345 20.4604 21.4345C20.9255 21.4345 21.8612 21.8377 22.8017 22.4406C22.9881 22.6393 23.2519 22.7637 23.5462 22.7637C23.8399 22.7637 24.1037 22.6393 24.2901 22.4406C25.2306 21.8377 26.1663 21.4345 26.6314 21.4345C28.4536 21.4345 29.9362 22.917 29.9362 24.7392C29.9367 25.7117 29.5196 27.746 28.7479 29.5997Z" fill="#434343"/>
</g>
<defs>
<clipPath id="clip0">
<rect width="70" height="70" fill="white"/>
</clipPath>
</defs>
</svg>
