<svg width="60" height="60" viewBox="0 0 60 60" fill="none" xmlns="http://www.w3.org/2000/svg">
<g clip-path="url(#clip0)">
<path d="M31.2378 39.4633C31.2378 40.0997 30.7219 40.6156 30.0854 40.6156C29.449 40.6156 28.9331 40.0997 28.9331 39.4633C28.9331 38.8268 29.449 38.3109 30.0854 38.3109C30.7219 38.3109 31.2378 38.8268 31.2378 39.4633Z" fill="#434343"/>
<path d="M57.7412 40.6155L53.6095 40.6155L47.033 34.039C46.8169 33.823 46.5234 33.7014 46.2183 33.7014L41.8452 33.7014C41.4036 32.1043 40.8144 30.5775 39.9997 29.092L41.6089 29.092C41.9141 29.092 42.2076 28.9705 42.4236 28.7544L47.033 24.1451C47.2491 23.929 47.3706 23.636 47.3706 23.3303L47.3706 16.8939L49.3377 14.9263C49.7874 14.4766 49.7874 13.747 49.3377 13.2968C48.8876 12.8467 48.1579 12.8467 47.7078 13.2968L45.4031 15.6015C45.187 15.8176 45.0655 16.1106 45.0655 16.4163L45.0655 22.8527L41.1313 26.7874L38.4967 26.7874C37.9403 26.0707 37.3443 25.4298 36.7132 24.8698C37.6419 24.1077 38.1514 23.175 38.1514 22.178C38.1514 20.3063 36.3729 18.7187 33.542 17.989L33.542 14.8156C33.542 9.99915 35.9354 5.52797 39.9429 2.85552C40.4727 2.50261 40.6154 1.78735 40.2625 1.25754C39.9096 0.728185 39.1939 0.585042 38.6646 0.937947C34.0138 4.03892 31.2373 9.22672 31.2373 14.8156L31.2373 17.6136C30.8579 17.5844 30.4735 17.5686 30.085 17.5686C29.697 17.5686 29.3121 17.5844 28.9327 17.6136L28.9327 14.8156C28.9327 9.22672 26.1562 4.03892 21.5054 0.937947C20.9761 0.585042 20.2608 0.728185 19.9075 1.25754C19.5546 1.78735 19.6977 2.50261 20.2271 2.85552C24.2351 5.52797 26.628 9.99915 26.628 14.8156L26.628 17.989C23.7975 18.7187 22.0186 20.3059 22.0186 22.178C22.0186 23.175 22.5281 24.1077 23.4568 24.8698C22.8261 25.4298 22.2302 26.0707 21.6738 26.7874L19.0387 26.7874L15.1045 22.8527L15.1045 16.4163C15.1045 16.1106 14.983 15.8176 14.7669 15.6015L12.4622 13.2968C12.0126 12.8467 11.2829 12.8467 10.8328 13.2968C10.3826 13.747 10.3826 14.4766 10.8328 14.9263L12.7998 16.8939L12.7998 23.3303C12.7998 23.636 12.9214 23.929 13.1374 24.1451L17.7468 28.7544C17.9629 28.9705 18.2559 29.0907 18.5616 29.0907L20.1703 29.0907C19.6468 30.0454 19.189 31.0735 18.8046 32.166C18.8028 32.1705 18.8015 32.175 18.7997 32.18C18.7956 32.1917 18.7916 32.2038 18.7875 32.216C18.6183 32.6994 18.4648 33.1968 18.3252 33.7014L13.9522 33.7014C13.6465 33.7014 13.3535 33.823 13.1374 34.039L6.56098 40.6155L2.4292 40.6155C1.79271 40.6155 1.27686 41.1313 1.27686 41.7678C1.27686 42.4043 1.79271 42.9202 2.4292 42.9202L7.03857 42.9202C7.34421 42.9202 7.63725 42.7986 7.85332 42.5826L14.4298 36.0048L17.8058 36.0048C17.5429 37.5019 17.4097 39.0472 17.4097 40.6155C17.4097 40.8374 17.4133 41.0593 17.4187 41.2812L13.1379 45.5625C12.9218 45.7785 12.8003 46.0716 12.8003 46.3772L12.8003 55.5748L8.82786 57.5612C8.25889 57.8457 8.02797 58.538 8.31245 59.107C8.59784 59.6778 9.2906 59.9064 9.85866 59.6224L14.468 57.3177C14.8583 57.1228 15.105 56.7235 15.105 56.2874L15.105 46.8543L17.6613 44.2985C18.1398 47.8077 19.2849 51.1432 20.963 53.799C23.3847 57.6328 26.6248 59.7444 30.0854 59.7444C33.5461 59.7444 36.7861 57.6328 39.2079 53.799C40.886 51.1432 42.0316 47.8077 42.5096 44.2985L45.0659 46.8543L45.0659 56.2874C45.0659 56.7235 45.3126 57.1228 45.7029 57.3177L50.3122 59.6224C50.4779 59.7052 50.6534 59.7444 50.8267 59.7444C51.2494 59.7444 51.6563 59.5112 51.858 59.1074C52.1429 58.538 51.912 57.8457 51.343 57.5612L47.3706 55.5752L47.3706 46.3772C47.3706 46.0716 47.2491 45.7785 47.033 45.5625L42.7518 41.2812C42.7576 41.0598 42.7612 40.8378 42.7612 40.6155C42.7612 39.0477 42.6275 37.5033 42.3651 36.0061L45.7407 36.0061L52.3176 42.5826C52.5336 42.7986 52.8267 42.9202 53.1323 42.9202L57.7417 42.9202C58.3782 42.9202 58.894 42.4043 58.894 41.7678C58.894 41.1318 58.3777 40.6155 57.7412 40.6155ZM21.5959 31.3967C22.0537 30.3835 22.5849 29.4499 23.1862 28.6122C23.9285 27.5796 24.7532 26.7252 25.6413 26.0617C26.9417 26.5317 28.4924 26.7874 30.0854 26.7874C31.6789 26.7874 33.2296 26.5317 34.5296 26.0617C35.4177 26.7252 36.2419 27.5796 36.9842 28.6118C37.5856 29.4495 38.1167 30.383 38.575 31.3967L21.5959 31.3967ZM30.0854 19.8733C33.4502 19.8733 35.8472 21.1859 35.8472 22.178C35.8472 22.6655 35.2057 23.266 34.2132 23.7075C33.091 24.2072 31.6249 24.4827 30.0854 24.4827C28.5455 24.4827 27.0799 24.2072 25.9573 23.7075C24.9647 23.266 24.3237 22.6655 24.3237 22.178C24.3237 21.1845 26.7229 19.8733 30.0854 19.8733ZM37.2592 52.5679C35.5654 55.2493 33.4606 56.9018 31.2378 57.3281L31.2378 44.0725C31.2378 43.436 30.7219 42.9202 30.0854 42.9202C29.449 42.9202 28.9331 43.436 28.9331 44.0725L28.9331 57.3281C26.7099 56.9018 24.6055 55.2493 22.9112 52.5679C20.8798 49.3517 19.7144 44.9953 19.7144 40.615C19.7144 38.318 20.0227 35.9786 20.7263 33.7014L28.9331 33.7014L28.9331 34.8538C28.9331 35.4898 29.449 36.0061 30.0854 36.0061C30.7219 36.0061 31.2378 35.4898 31.2378 34.8538L31.2378 33.7014L39.4442 33.7014C40.1486 35.9804 40.4565 38.3202 40.4565 40.615C40.4565 44.9953 39.2911 49.3517 37.2592 52.5679Z" fill="#434343"/>
</g>
<defs>
<clipPath id="clip0">
<rect width="59" height="59" fill="white" transform="translate(0.585449 0.744507)"/>
</clipPath>
</defs>
</svg>
