<svg width="70" height="70" viewBox="0 0 70 70" fill="none" xmlns="http://www.w3.org/2000/svg">
<path d="M59.7488 10.2512C53.1381 3.64055 44.3488 0 35 0C25.6512 0 16.8619 3.64055 10.2512 10.2512C3.64041 16.8618 0 25.6512 0 35C0 44.3488 3.64055 53.1381 10.2512 59.7488C16.8618 66.3596 25.6512 70 35 70C44.3488 70 53.1381 66.3595 59.7488 59.7488C66.3596 53.1382 70 44.3488 70 35C70 25.6512 66.3595 16.8619 59.7488 10.2512ZM58.202 58.202C52.0045 64.3995 43.7645 67.8125 35 67.8125C26.2355 67.8125 17.9955 64.3995 11.798 58.202C5.60055 52.0045 2.1875 43.7645 2.1875 35C2.1875 26.2355 5.60055 17.9955 11.798 11.798C17.9955 5.60055 26.2355 2.1875 35 2.1875C43.7645 2.1875 52.0045 5.60055 58.202 11.798C64.3995 17.9955 67.8125 26.2355 67.8125 35C67.8125 43.7645 64.3995 52.0045 58.202 58.202Z" fill="#434343"/>
<path d="M6.5625 35C6.5625 19.3196 19.3196 6.5625 35 6.5625C40.6558 6.5625 46.1188 8.2183 50.7985 11.3509C51.3004 11.687 51.9798 11.5525 52.3158 11.0504C52.6519 10.5485 52.5174 9.86918 52.0153 9.53312C46.9744 6.15863 41.0905 4.375 35 4.375C26.8197 4.375 19.1291 7.56055 13.3448 13.3448C7.56055 19.1291 4.375 26.8197 4.375 35C4.375 42.5469 7.1441 49.7973 12.1723 55.4159C12.3884 55.6574 12.6875 55.7803 12.9877 55.7803C13.2474 55.7803 13.5081 55.6884 13.7167 55.5015C14.1668 55.0986 14.2052 54.4072 13.8023 53.9571C9.13377 48.7402 6.5625 42.0078 6.5625 35Z" fill="#434343"/>
<path d="M60.4671 17.9849C60.131 17.4828 59.4517 17.3483 58.9498 17.6844C58.4479 18.0204 58.3132 18.6998 58.6493 19.2017C61.7818 23.8813 63.4376 29.3443 63.4376 34.9999C63.4376 50.6804 50.6805 63.4374 35.0001 63.4374C28.4946 63.4374 22.1354 61.1845 17.0942 57.0936C16.6251 56.7129 15.9363 56.7846 15.5557 57.2537C15.175 57.7227 15.2467 58.4115 15.7158 58.7921C21.1455 63.1983 27.9942 65.6249 35.0001 65.6249C43.1804 65.6249 50.8709 62.4394 56.6552 56.6551C62.4395 50.8708 65.6251 43.1802 65.6251 34.9999C65.6251 28.9095 63.8414 23.0257 60.4671 17.9849Z" fill="#434343"/>
<path d="M53.9571 13.8025C54.6925 14.4605 55.4016 15.1648 56.0645 15.8954C56.2804 16.1333 56.5771 16.2541 56.8748 16.2541C57.1369 16.2541 57.4001 16.1603 57.6096 15.9703C58.0568 15.5644 58.0904 14.8726 57.6845 14.4252C56.9708 13.6388 56.2075 12.8809 55.4159 12.1724C54.9658 11.7696 54.2743 11.8079 53.8715 12.258C53.4688 12.7081 53.5069 13.3996 53.9571 13.8025Z" fill="#434343"/>
<path d="M35 14.2188C35.604 14.2188 36.0938 13.729 36.0938 13.125V9.84375C36.0938 9.23973 35.604 8.75 35 8.75C34.396 8.75 33.9062 9.23973 33.9062 9.84375V13.125C33.9062 13.729 34.396 14.2188 35 14.2188Z" fill="#434343"/>
<path d="M33.9062 56.875V60.1562C33.9062 60.7603 34.396 61.25 35 61.25C35.604 61.25 36.0938 60.7603 36.0938 60.1562V56.875C36.0938 56.271 35.604 55.7812 35 55.7812C34.396 55.7812 33.9062 56.271 33.9062 56.875Z" fill="#434343"/>
<path d="M14.2188 35C14.2188 34.396 13.729 33.9062 13.125 33.9062H9.84375C9.23973 33.9062 8.75 34.396 8.75 35C8.75 35.604 9.23973 36.0938 9.84375 36.0938H13.125C13.729 36.0938 14.2188 35.604 14.2188 35Z" fill="#434343"/>
<path d="M55.7812 35C55.7812 35.604 56.271 36.0938 56.875 36.0938H60.1562C60.7603 36.0938 61.25 35.604 61.25 35C61.25 34.396 60.7603 33.9062 60.1562 33.9062H56.875C56.271 33.9062 55.7812 34.396 55.7812 35Z" fill="#434343"/>
<path d="M25.0096 15.5088L23.369 12.6671C23.0669 12.1439 22.398 11.9649 21.8749 12.2668C21.3518 12.5688 21.1726 13.2378 21.4746 13.7609L23.1152 16.6026C23.3178 16.9534 23.6855 17.1496 24.0635 17.1496C24.249 17.1496 24.4371 17.1023 24.6094 17.0029C25.1324 16.7009 25.3116 16.0319 25.0096 15.5088Z" fill="#434343"/>
<path d="M46.8847 53.3974C46.5827 52.8743 45.9136 52.6953 45.3906 52.997C44.8676 53.2991 44.6883 53.968 44.9903 54.4911L46.631 57.3328C46.8336 57.6836 47.2012 57.8798 47.5792 57.8798C47.7648 57.8798 47.9529 57.8325 48.1252 57.7331C48.6483 57.4311 48.8275 56.7621 48.5255 56.2391L46.8847 53.3974Z" fill="#434343"/>
<path d="M13.2151 48.672C13.4006 48.672 13.5887 48.6247 13.761 48.5253L16.6027 46.8847C17.1258 46.5827 17.305 45.9137 17.003 45.3906C16.701 44.8676 16.0319 44.6886 15.509 44.9903L12.6673 46.631C12.1442 46.933 11.9649 47.6019 12.2669 48.125C12.4694 48.4759 12.8371 48.672 13.2151 48.672Z" fill="#434343"/>
<path d="M53.9452 25.1564C54.1307 25.1564 54.3188 25.1091 54.4911 25.0097L57.3328 23.3691C57.8559 23.0671 58.0351 22.3981 57.7331 21.875C57.4311 21.3519 56.7621 21.173 56.2391 21.4747L53.3974 23.1153C52.8743 23.4173 52.695 24.0863 52.997 24.6094C53.1997 24.9602 53.5673 25.1564 53.9452 25.1564Z" fill="#434343"/>
<path d="M48.125 12.2667C47.6019 11.9645 46.933 12.1438 46.631 12.667L44.9903 15.5087C44.6883 16.0318 44.8676 16.7007 45.3906 17.0027C45.5629 17.1023 45.7509 17.1494 45.9366 17.1494C46.3146 17.1494 46.6822 16.9533 46.8849 16.6024L48.5255 13.7607C48.8274 13.2376 48.6481 12.5687 48.125 12.2667Z" fill="#434343"/>
<path d="M24.6093 52.997C24.0862 52.695 23.4172 52.8743 23.1152 53.3974L21.4746 56.2391C21.1726 56.7621 21.3518 57.4311 21.8749 57.7331C22.0472 57.8326 22.2352 57.8798 22.4208 57.8798C22.7988 57.8798 23.1665 57.6836 23.3691 57.3328L25.0097 54.4911C25.3116 53.968 25.1324 53.2991 24.6093 52.997Z" fill="#434343"/>
<path d="M53.3974 46.8846L56.2391 48.5253C56.4114 48.6248 56.5994 48.672 56.7851 48.672C57.1631 48.672 57.5307 48.4758 57.7333 48.125C58.0354 47.6019 57.8561 46.9329 57.333 46.6309L54.4913 44.9903C53.9682 44.6881 53.2993 44.8675 52.9973 45.3906C52.6951 45.9137 52.8744 46.5826 53.3974 46.8846Z" fill="#434343"/>
<path d="M16.6026 23.1153L13.7609 21.4746C13.2378 21.1725 12.5688 21.3519 12.2668 21.875C11.9648 22.398 12.144 23.067 12.6671 23.369L15.5088 25.0096C15.6811 25.1092 15.8691 25.1563 16.0548 25.1563C16.4328 25.1563 16.8004 24.9601 17.003 24.6093C17.3049 24.0862 17.1257 23.4173 16.6026 23.1153Z" fill="#434343"/>
<path d="M42.6142 49.2804C42.7997 49.2804 42.9878 49.2331 43.1601 49.1337C43.6832 48.8317 43.8624 48.1627 43.5604 47.6397L37.4928 37.1302C37.9838 36.5564 38.2813 35.8125 38.2813 35C38.2813 33.5742 37.3667 32.3583 36.0938 31.9069V17.5C36.0938 16.896 35.604 16.4062 35 16.4062C34.396 16.4062 33.9063 16.896 33.9063 17.5V31.9069C32.6333 32.3583 31.7188 33.5742 31.7188 35C31.7188 36.8093 33.1907 38.2812 35 38.2812C35.2047 38.2812 35.4048 38.2614 35.5992 38.2255L41.666 48.7334C41.8686 49.0842 42.2363 49.2804 42.6142 49.2804ZM33.9063 35C33.9063 34.3969 34.3969 33.9062 35 33.9062C35.6031 33.9062 36.0938 34.3969 36.0938 35C36.0938 35.6031 35.6031 36.0938 35 36.0938C34.3969 36.0938 33.9063 35.6031 33.9063 35Z" fill="#434343"/>
</svg>
