<svg width="59" height="59" viewBox="0 0 59 59" fill="none" xmlns="http://www.w3.org/2000/svg">
<g clip-path="url(#clip0)">
<path d="M29.5765 49.969C29.2735 49.969 28.9764 50.091 28.7622 50.3066C28.5474 50.5209 28.4246 50.818 28.4246 51.1213C28.4246 51.4229 28.5474 51.7205 28.7622 51.9361C28.9764 52.1499 29.2735 52.2723 29.5765 52.2723C29.8799 52.2723 30.1769 52.1499 30.3912 51.9361C30.6055 51.7205 30.7288 51.4243 30.7288 51.1213C30.7288 50.8171 30.6059 50.5209 30.3912 50.3066C30.1769 50.091 29.8799 49.969 29.5765 49.969Z" fill="#434343"/>
<path d="M55.4094 38.4698C55.2123 37.8649 54.5618 37.534 53.9568 37.7316L51.6823 38.4725L52.746 29.2466C52.7964 28.8073 52.5907 28.3774 52.2166 28.1406C51.8426 27.9043 51.3663 27.9029 50.9909 28.137L43.7383 32.664C43.647 28.8122 42.9938 25.1225 41.8442 21.8657L47.9534 18.4951C48.4846 18.2021 48.6975 17.5471 48.4404 16.9975L46.5643 12.9895L50.8685 6.39191C51.216 5.85895 51.0656 5.14459 50.5327 4.79709C49.9993 4.44913 49.2858 4.59948 48.9383 5.13244L44.2834 12.268C44.0656 12.6015 44.0359 13.0246 44.2051 13.3861L45.8958 16.998L40.9808 19.71C40.6135 18.8944 40.2129 18.1139 39.7776 17.3747C37.6575 13.7719 34.9414 11.4537 31.9624 10.6466C34.2486 6.99915 37.8087 4.22632 41.9346 2.93083L44.0962 2.25203C44.7034 2.06162 45.041 1.41478 44.8502 0.807547C44.6598 0.200316 44.0125 -0.136835 43.4057 0.0531222L41.2441 0.731925C36.3278 2.27544 32.1231 5.68025 29.5766 10.1447C27.0307 5.68025 22.826 2.27544 17.9096 0.731925L15.7485 0.0531222C15.1408 -0.137285 14.4944 0.200316 14.3036 0.807547C14.1132 1.41478 14.4508 2.06117 15.058 2.25203L17.2196 2.93083C21.3455 4.22587 24.9056 6.9987 27.1918 10.6466C24.2128 11.4537 21.4967 13.7719 19.3761 17.3747C18.9413 18.1139 18.5402 18.8944 18.1729 19.7096L13.2579 16.998L14.9491 13.3857C15.1183 13.0246 15.0886 12.6015 14.8708 12.2675L10.2159 5.13244C9.86841 4.59948 9.15449 4.44913 8.62108 4.79709C8.08812 5.14459 7.93823 5.8585 8.28573 6.39146L12.5899 12.9895L10.7138 16.9975C10.4563 17.5471 10.6692 18.2021 11.2008 18.4951L17.3096 21.8657C16.1604 25.1225 15.5072 28.8122 15.4154 32.664L8.1633 28.137C7.78788 27.9025 7.31119 27.9043 6.93713 28.1406C6.56307 28.3769 6.35781 28.8068 6.40822 29.2466L7.47189 38.4725L5.19691 37.7312C4.59238 37.534 3.94148 37.8649 3.74478 38.4698C3.54762 39.0748 3.87801 39.7253 4.48345 39.9224L8.46534 41.2202C8.58192 41.258 8.70256 41.2769 8.82229 41.2769C9.08427 41.2769 9.3431 41.1873 9.55151 41.0167C9.85535 40.7682 10.012 40.382 9.96699 39.9922L8.97174 31.3582L15.4447 35.3986C15.536 37.4017 15.7805 39.3544 16.1676 41.2184L13.9264 44.4107C13.7382 44.679 13.6729 45.0143 13.7468 45.3335L15.532 53.029L6.14399 55.1712C5.8379 55.2409 5.57322 55.4327 5.41207 55.7019C5.25048 55.9715 5.20591 56.2947 5.28829 56.5977L5.71186 58.1506C5.85185 58.6629 6.31594 59 6.82325 59C6.92363 59 7.02536 58.9865 7.12709 58.9591C7.74107 58.7916 8.10298 58.1583 7.93553 57.5443L7.8284 57.1509L17.1727 55.0186C17.4712 54.9506 17.7305 54.7661 17.893 54.5068C18.0555 54.2471 18.1081 53.9333 18.0388 53.6349L16.1086 45.3141L16.9198 44.1582C17.5536 46.2225 18.3769 48.136 19.3761 49.8339C22.0513 54.3794 25.674 56.8826 29.5766 56.8826C33.4798 56.8826 37.1024 54.3794 39.7776 49.8339C40.7769 48.136 41.6002 46.2225 42.234 44.1582L43.0451 45.3141L41.1149 53.6349C41.0456 53.9333 41.0983 54.2471 41.2608 54.5068C41.4233 54.7661 41.6826 54.9506 41.981 55.0186L51.3253 57.1509L51.2182 57.5443C51.0508 58.1583 51.4127 58.7916 52.0267 58.9591C52.1284 58.9865 52.2301 59 52.3305 59C52.8373 59 53.3019 58.6629 53.4419 58.1506L53.8655 56.5977C53.9478 56.2947 53.9033 55.9711 53.7417 55.7019C53.5805 55.4327 53.3158 55.2409 53.0098 55.1712L43.6213 53.029L45.407 45.3335C45.4808 45.0143 45.4155 44.679 45.2274 44.4107L42.9862 41.2188C43.3733 39.3548 43.6177 37.4017 43.7091 35.399L50.1825 31.3586L49.1872 39.9926C49.1422 40.3825 49.2988 40.7682 49.6022 41.0167C49.8111 41.1873 50.0695 41.2769 50.3319 41.2769C50.4516 41.2769 50.5718 41.2584 50.6889 41.2202L54.6707 39.9229C55.2757 39.7257 55.6066 39.0753 55.4094 38.4698ZM29.5766 12.6312C32.6299 12.6312 35.5472 14.7307 37.7912 18.5437C37.9478 18.8098 38.0995 19.0821 38.2467 19.3598C33.4028 23.9751 25.751 23.9751 20.9071 19.3598C21.0543 19.0821 21.2059 18.8098 21.3621 18.5437C23.6065 14.7311 26.5238 12.6312 29.5766 12.6312ZM37.7912 48.6654C35.5472 52.478 32.6299 54.5779 29.5766 54.5779C26.5238 54.5779 23.6065 52.478 21.3626 48.6654C19.0057 44.6605 17.7079 39.312 17.7079 33.6043C17.7079 29.3425 18.4318 25.2814 19.7795 21.8297C19.8033 21.7793 19.8245 21.728 19.8407 21.6762C19.8573 21.6335 19.8749 21.5912 19.892 21.5488C22.3596 23.6676 25.362 24.8443 28.4243 25.0801V46.5115C28.4243 47.148 28.9406 47.6638 29.5766 47.6638C30.2131 47.6638 30.729 47.148 30.729 46.5115V25.0801C33.7913 24.8443 36.7941 23.6676 39.2613 21.5484C39.2788 21.5912 39.296 21.6335 39.3131 21.6758C39.3288 21.728 39.35 21.7793 39.3738 21.8302C40.7215 25.2814 41.4458 29.3425 41.4458 33.6043C41.4458 39.312 40.1481 44.6605 37.7912 48.6654Z" fill="#434343"/>
</g>
<defs>
<clipPath id="clip0">
<rect width="59" height="59" fill="white"/>
</clipPath>
</defs>
</svg>
