<svg width="59" height="59" viewBox="0 0 59 59" fill="none" xmlns="http://www.w3.org/2000/svg">
<g clip-path="url(#clip0)">
<path d="M50.9336 14.5193H46.4427L44.5767 13.2747C39.0351 9.58116 32.52 7.60522 25.8492 7.60522C25.4284 7.60522 25.0122 7.61283 24.613 7.62793C17.5995 7.88571 10.9905 10.3096 5.5931 14.357L0.464327 18.2041C0.0951129 18.4784 -0.0786619 18.9576 0.033923 19.4083C2.19793 28.0641 9.94047 34.1095 18.8624 34.1095H19.8235C23.8166 34.1095 27.5311 32.8883 30.5896 30.8496L34.5702 28.196V35.5835L24.987 38.778C24.3831 38.9793 24.0569 39.6319 24.2581 40.2356L27.7152 50.6068C27.872 51.0773 28.3124 51.3947 28.8084 51.3947H32.2655C32.9019 51.3947 33.4178 50.8788 33.4178 50.2424C33.4178 49.6059 32.9019 49.09 32.2655 49.09H29.639L26.809 40.6001L36.0869 37.5074C36.5574 37.3506 36.8749 36.9101 36.8749 36.4142V26.8736L41.4843 25.3372V27.1955C41.4843 27.8319 42.0002 28.3478 42.6366 28.3478C43.2731 28.3478 43.789 27.8319 43.789 27.1955V24.569L45.1946 24.1005C45.4591 24.8664 45.9238 25.5521 46.5581 26.0916L51.6057 36.1868L48.7359 39.0565C48.3853 39.4073 48.2983 39.943 48.5201 40.3867L51.9771 47.3008C52.1723 47.6912 52.5714 47.9378 53.0078 47.9378H56.4649C57.1013 47.9378 57.6172 47.4219 57.6172 46.7855C57.6172 46.149 57.1013 45.6331 56.4649 45.6331H53.72L50.9528 40.0989L53.8226 37.2292C54.1733 36.8784 54.2603 36.3427 54.0385 35.8991L49.6867 27.1956H56.6953V29.5003C56.6953 30.1367 57.2112 30.6526 57.8477 30.6526C58.4841 30.6526 59 30.1367 59 29.5003C59 28.6638 59 23.4282 59 22.5862C59 18.138 55.3815 14.5193 50.9336 14.5193ZM44.9413 16.2882V21.7552C44.3444 21.9542 37.0045 24.4009 36.0529 24.718C35.2662 23.8552 34.6464 22.9704 34.2113 22.0799C32.0068 17.5673 34.8417 13.6265 36.269 11.6867C38.7497 12.558 41.1113 13.7345 43.2983 15.1922L44.9413 16.2882ZM33.9422 10.9699C32.4346 13.0965 30.1456 16.9145 31.4907 21.4335C29.8956 21.4335 27.8681 21.4335 26.1107 21.4335C24.6554 21.4335 23.566 20.102 23.8517 18.6771L25.6041 9.91223C25.6859 9.91166 25.7668 9.91005 25.8492 9.91005C28.5883 9.90993 31.3034 10.2669 33.9422 10.9699ZM25.7747 27.5011L26.7245 30.3496C25.1617 31.0406 23.5196 31.4896 21.8216 31.6879L20.1828 26.7725C19.685 25.2775 20.7967 23.7371 22.3691 23.7371H26.1572C25.4931 24.8784 25.3502 26.2262 25.7747 27.5011ZM15.7396 21.4335C14.2596 21.4335 13.2014 20.072 13.4805 18.6771L14.8347 11.9025C17.5399 10.8904 20.3558 10.2594 23.232 10.02L21.5917 18.2247C21.3689 19.3359 21.5613 20.4704 22.1188 21.4335H15.7396ZM6.97593 16.2007C8.63174 14.9591 10.4045 13.8857 12.2661 12.995L11.2206 18.2251C10.9929 19.3626 11.2126 20.4941 11.7562 21.4335H5.58054C4.26283 21.4335 3.09342 20.6811 2.52658 19.5382L6.97593 16.2007ZM4.23886 23.5786C4.67088 23.6824 5.12018 23.7382 5.58043 23.737H10.6004C9.93632 24.8795 9.79343 26.2262 10.218 27.5009L11.0201 29.9068C8.23648 28.4719 5.8805 26.2879 4.23886 23.5786ZM13.7927 31.0404C13.7849 30.9517 13.7681 30.8624 13.7387 30.7742L12.4044 26.7725C11.9066 25.2775 13.0183 23.7371 14.5907 23.7371C14.6023 23.7369 18.366 23.7382 18.3788 23.7383C17.7147 24.8796 17.5718 26.2263 17.9963 27.5012L19.4315 31.8047H18.8624C17.1063 31.8046 15.402 31.5383 13.7927 31.0404ZM29.3113 28.9318C29.1405 29.0457 28.9667 29.1555 28.7917 29.2632L27.9612 26.7725C27.7242 26.0607 27.8398 25.3035 28.2785 24.6951C28.717 24.087 29.3982 23.7383 30.1474 23.7383H32.4831C32.8878 24.4488 33.3821 25.1486 33.9616 25.8319L29.3113 28.9318ZM56.6953 24.8905H49.5507C48.3041 24.8905 47.246 23.8877 47.246 22.5858V16.824H50.9336C54.1106 16.824 56.6953 19.4088 56.6953 22.5858V24.8905Z" fill="#434343"/>
<path d="M42.6367 33.5332C43.2731 33.5332 43.7891 33.0173 43.7891 32.3809C43.7891 31.7444 43.2731 31.2285 42.6367 31.2285C42.0003 31.2285 41.4844 31.7444 41.4844 32.3809C41.4844 33.0173 42.0003 33.5332 42.6367 33.5332Z" fill="#434343"/>
<path d="M41.4844 39.1591L35.2073 42.2976C34.6381 42.5823 34.4074 43.2745 34.692 43.8438L38.149 50.7579C38.3443 51.1483 38.7433 51.3949 39.1797 51.3949H42.6368C43.2732 51.3949 43.7891 50.879 43.7891 50.2425C43.7891 49.6061 43.2732 49.0902 42.6368 49.0902H39.8919L37.2686 43.8438L43.1521 40.902C43.5425 40.7068 43.7891 40.3078 43.7891 39.8714V37.5667C43.7891 36.9302 43.2732 36.4143 42.6368 36.4143C42.0003 36.4143 41.4844 36.9302 41.4844 37.5667V39.1591Z" fill="#434343"/>
</g>
<defs>
<clipPath id="clip0">
<rect width="59" height="59" fill="white"/>
</clipPath>
</defs>
</svg>
