<svg width="60" height="60" viewBox="0 0 60 60" fill="none" xmlns="http://www.w3.org/2000/svg">
<path d="M59.3417 27.6712C59.2185 26.0722 58.4956 24.6433 57.3065 23.6477C56.1933 22.7157 54.7944 22.2814 53.3671 22.4245C51.4206 22.6197 49.7061 23.8931 48.861 25.7262L47.0919 25.8825L45.3459 25.3931C45.2102 25.355 45.1008 25.2476 45.053 25.1056C44.5457 23.5962 43.8215 22.1708 42.8988 20.8652L43.5167 19.2039L45.4669 17.0946C46.5761 17.0574 47.6076 16.5685 48.3472 15.7159C49.6857 14.1731 49.63 11.8089 48.2204 10.3334C47.4467 9.52374 46.4046 9.07992 45.29 9.09185C44.1894 9.10082 43.1299 9.56921 42.383 10.3771C41.6514 11.1684 41.2768 12.2005 41.3233 13.2629L39.3729 15.3726L37.7386 16.1307C35.301 14.7058 32.5329 13.9352 29.7016 13.8941L28.633 12.1899L28.2562 10.3171C29.7576 9.08949 30.4591 7.18263 30.0579 5.30412C29.4558 2.48517 26.553 0.648937 23.5876 1.21145C22.0946 1.49442 20.8243 2.32467 20.0107 3.5489C19.2486 4.69578 18.9853 6.0602 19.2696 7.39072C19.6485 9.16472 20.9345 10.5957 22.684 11.2342L23.1003 13.3031L22.7692 15.3197C21.2608 15.9944 19.8697 16.8889 18.6234 17.9852L17.3984 17.7669L16.0143 16.7227C15.8165 15.6715 15.2097 14.746 14.3081 14.1411C12.6255 13.0121 10.3629 13.3209 9.04515 14.8594C8.31671 15.71 7.98177 16.7895 8.10212 17.899C8.22081 18.9931 8.79265 20.0006 9.67097 20.6633C10.5792 21.3484 11.7342 21.6097 12.8397 21.3972L13.9996 22.2723L14.5198 23.3368C14.5429 23.3839 14.5435 23.4383 14.5216 23.4857C13.5294 25.6431 13.0265 27.9463 13.0265 30.3315C13.0265 30.7729 13.0448 31.2217 13.0808 31.6653C13.0863 31.7338 13.0593 31.7964 13.0083 31.8326L11.0496 33.2282L8.81391 33.9315C7.44122 32.8694 5.62613 32.5487 3.95548 33.1008C3.92205 33.1119 3.8891 33.1238 3.85627 33.136L3.82864 33.1462C3.3684 33.312 3.12972 33.8195 3.29541 34.2797C3.46111 34.7398 3.96835 34.9787 4.42894 34.8129L4.4704 34.7978C4.48433 34.7927 4.49827 34.7874 4.51209 34.7828C5.73219 34.3794 7.06909 34.6795 8.00126 35.5658C8.16837 35.7247 8.38769 35.8096 8.6116 35.8096C8.70042 35.8096 8.79006 35.7962 8.87733 35.7687L11.7151 34.876C11.8038 34.8481 11.8875 34.8064 11.9633 34.7524L14.0362 33.2755C14.592 32.8796 14.9025 32.2075 14.8465 31.5214C14.8144 31.1255 14.798 30.7251 14.798 30.3313C14.798 28.2035 15.2465 26.1493 16.1312 24.2258C16.376 23.6932 16.3689 23.0857 16.1116 22.559L15.4982 21.3038C15.437 21.1785 15.3471 21.0696 15.2359 20.9857L13.5684 19.7277C13.3386 19.5543 13.0387 19.5034 12.7649 19.5913C12.0733 19.8128 11.3156 19.6848 10.738 19.249C10.2412 18.8743 9.93067 18.3269 9.86347 17.7078C9.79639 17.0894 9.9837 16.4871 10.3908 16.0117C11.1124 15.1693 12.3996 14.9937 13.3212 15.6121C13.8894 15.9934 14.248 16.6021 14.305 17.2824C14.326 17.5335 14.453 17.7638 14.6542 17.9155L16.5011 19.3089C16.6123 19.3928 16.7419 19.4493 16.8791 19.4737L18.7399 19.8054C19.0138 19.8543 19.2942 19.7716 19.4978 19.5826C20.7942 18.3797 22.2759 17.4304 23.902 16.7611C24.186 16.6442 24.3892 16.3886 24.4389 16.0855L24.8749 13.4306C24.8923 13.3251 24.8903 13.2172 24.8693 13.1124L24.3176 10.3706C24.2506 10.0377 23.9992 9.77235 23.6703 9.68767C22.3006 9.33478 21.2783 8.31286 21.0024 7.02095C20.8186 6.1607 20.9906 5.27589 21.4866 4.52949C22.034 3.70574 22.8976 3.14547 23.9181 2.95202C25.9462 2.56796 27.9233 3.78877 28.3259 5.67413C28.6142 7.02426 28.0136 8.40545 26.7956 9.19294C26.4901 9.39053 26.3364 9.75487 26.4082 10.1115L26.9287 12.6979C26.9498 12.8028 26.9898 12.903 27.0466 12.9937L28.3259 15.0346C28.573 15.4287 28.9981 15.6639 29.4653 15.6639H29.4657C32.1318 15.6639 34.7444 16.3905 37.0215 17.7652C37.4032 17.9956 37.8717 18.0217 38.2746 17.835L40.2773 16.906C40.3822 16.8573 40.4765 16.7886 40.5549 16.7038L42.8933 14.1746C43.0769 13.9761 43.1597 13.7049 43.1183 13.4377C43.0133 12.7594 43.2195 12.0822 43.684 11.5799C44.1065 11.1229 44.6821 10.8686 45.3047 10.8634C45.925 10.8632 46.5075 11.1046 46.9398 11.5573C47.7246 12.3787 47.7552 13.6954 47.0094 14.555C46.5417 15.094 45.865 15.3722 45.1526 15.3187C44.8832 15.2983 44.619 15.4023 44.4357 15.6007L42.0973 18.13C42.0188 18.2148 41.9577 18.3142 41.9175 18.4225L41.1573 20.4666C41.001 20.8867 41.0661 21.3549 41.3311 21.719C42.2122 22.9295 42.8996 24.2588 43.374 25.6703C43.6087 26.3686 44.1672 26.9028 44.8681 27.0992L46.7699 27.6321C46.8729 27.6611 46.9802 27.6709 47.0869 27.6616L49.5567 27.4434C49.9042 27.4127 50.2012 27.1811 50.3156 26.8516C50.827 25.3785 52.0943 24.3328 53.5443 24.1874C54.4925 24.0922 55.4253 24.3831 56.1698 25.0063C56.9902 25.6932 57.4897 26.688 57.5759 27.8075C57.6328 28.5473 57.4991 29.2902 57.1892 29.9559C56.9828 30.3994 57.1748 30.9262 57.6184 31.1328C58.0621 31.3392 58.5888 31.1472 58.7953 30.7036C59.2328 29.7623 59.4219 28.7138 59.3417 27.6712Z" fill="#434343"/>
<path d="M54.8838 32.0572C54.6352 32.139 54.3786 32.1936 54.1214 32.2194C52.5886 32.3728 51.1559 31.524 50.4701 30.0564C50.3124 29.7191 49.9604 29.5161 49.5897 29.5492L47.2711 29.754C47.1645 29.7634 47.0605 29.792 46.9642 29.8385L45.214 30.6828C44.551 31.0026 44.0935 31.6345 43.9904 32.3728C43.8368 33.4715 43.5571 34.5529 43.1589 35.5866C42.9213 36.2037 42.9683 36.8855 43.288 37.457L43.9114 38.5716C43.9794 38.6932 44.0752 38.7972 44.191 38.8748L45.9257 40.0385C46.1646 40.1989 46.4668 40.233 46.7356 40.1303C47.4136 39.8708 48.1773 39.9566 48.7783 40.3598C49.295 40.7064 49.6355 41.2357 49.7368 41.8501C49.838 42.4637 49.6845 43.0756 49.3042 43.5728C48.6303 44.4541 47.3551 44.7007 46.4005 44.1342C45.8121 43.7849 45.4202 43.1969 45.3256 42.5209C45.2907 42.2713 45.1511 42.0485 44.9418 41.9082L43.0205 40.6192C42.9048 40.5415 42.7723 40.4923 42.634 40.4755L41.4248 40.3285C40.7484 40.246 40.074 40.4717 39.5751 40.9473C38.6066 41.87 37.5192 42.656 36.343 43.2832C35.659 43.6479 35.2036 44.3596 35.1547 45.1403L35.0012 47.5901C34.9956 47.6814 35.004 47.7732 35.0264 47.8619L35.7866 50.8789C35.8642 51.187 36.101 51.43 36.4069 51.5155C37.4384 51.804 38.2415 52.6269 38.5026 53.663C38.7013 54.4519 38.5757 55.268 38.1485 55.9608C37.7217 56.6532 37.0483 57.1321 36.2524 57.3094C34.7687 57.6401 33.2376 56.7686 32.7676 55.3257C32.4126 54.2358 32.6993 53.0608 33.5158 52.2591C33.7403 52.0388 33.831 51.7158 33.7541 51.4107L32.9892 48.3753C32.9668 48.2866 32.9308 48.2018 32.8825 48.1241L31.7033 46.2273C31.2253 45.4583 30.3927 44.9995 29.4668 44.9995C29.4662 44.9995 29.4656 44.9995 29.4649 44.9995C28.5071 44.9995 27.5483 44.9058 26.6148 44.7211C25.725 44.5449 24.8252 44.8291 24.2078 45.4806L22.6486 47.126C22.5857 47.1925 22.5333 47.2682 22.4935 47.3506L20.7482 50.9717C20.63 51.217 20.6312 51.5032 20.7514 51.7474C21.0572 52.3686 21.0607 53.0814 20.7611 53.703C20.4907 54.2641 20.0142 54.6761 19.4197 54.863C18.8257 55.0499 18.1977 54.9834 17.6516 54.6761C16.6911 54.1355 16.2663 52.9129 16.6844 51.8929C16.9632 51.2128 17.5329 50.7274 18.2476 50.5611C18.5087 50.5004 18.7284 50.3245 18.8448 50.083L20.6014 46.4387C20.6411 46.3562 20.6679 46.2681 20.6806 46.1775L21.0247 43.731C21.1314 42.9731 20.8314 42.2056 20.2421 41.7277C18.9146 40.6512 17.7938 39.3667 16.9107 37.9095C16.5238 37.2712 15.8152 36.8701 15.0612 36.863L12.6189 36.8398C12.5257 36.8386 12.4334 36.8526 12.3447 36.8805L9.67062 37.7217C9.33627 37.827 9.09535 38.1194 9.05614 38.4677C8.90237 39.8342 7.95638 40.9836 6.64606 41.3957C4.83899 41.9643 2.88962 40.9621 2.30136 39.1614C2.06752 38.4456 2.07508 37.686 2.32345 36.9646C2.48265 36.502 2.23676 35.9979 1.77416 35.8387C1.31144 35.6793 0.807503 35.9255 0.648303 36.388C0.273569 37.4769 0.262822 38.6262 0.61736 39.7115C1.33707 41.9144 3.40513 43.3261 5.61598 43.326C6.13373 43.326 6.65975 43.2485 7.17763 43.0855C8.96686 42.5223 10.3059 41.0503 10.7179 39.2489L12.7429 38.6119L15.0449 38.6337C15.1902 38.6351 15.3248 38.7092 15.3961 38.8271C16.3852 40.4591 17.6404 41.8978 19.1267 43.1031C19.2362 43.1918 19.2915 43.3377 19.2709 43.4837L18.946 45.7936L17.4198 48.9602C16.351 49.3385 15.4811 50.159 15.0457 51.2208C14.2821 53.0835 15.0291 55.2327 16.7834 56.2198C17.7603 56.7697 18.8857 56.888 19.9514 56.5528C21.0023 56.2225 21.8793 55.464 22.3575 54.472C22.8294 53.4928 22.8826 52.3886 22.5182 51.3805L24.03 48.2439L25.4942 46.6988C25.6911 46.491 25.9815 46.4012 26.2715 46.4586C27.3178 46.6656 28.3924 46.7708 29.4758 46.7708H29.4765C29.7767 46.7708 30.047 46.9171 30.1994 47.1624L31.3058 48.9419L31.9208 51.3827C30.8967 52.6327 30.5739 54.3089 31.0837 55.8743C31.7262 57.847 33.6107 59.15 35.6258 59.1499C35.9612 59.1499 36.3005 59.1137 36.638 59.0386C37.9048 58.7565 38.977 57.9937 39.657 56.8905C40.3373 55.7869 40.5375 54.487 40.2207 53.2303C39.8483 51.7524 38.7846 50.547 37.3876 49.9812L36.7783 47.563L36.9231 45.251C36.9338 45.0792 37.0312 44.9241 37.1769 44.8464C38.4947 44.1436 39.7128 43.2633 40.7975 42.2299C40.9117 42.1211 41.0625 42.0693 41.2113 42.0872L42.2101 42.2086L43.65 43.1747C43.9057 44.2133 44.5629 45.1036 45.4966 45.6578C47.2392 46.6917 49.4811 46.2582 50.7116 44.649C51.392 43.7593 51.6666 42.663 51.4848 41.5618C51.3057 40.476 50.6789 39.5016 49.7653 38.8887C48.8206 38.255 47.6528 38.0581 46.5607 38.3314L45.3542 37.5219L44.8344 36.5925C44.7727 36.4819 44.7646 36.3474 44.8124 36.2234C45.259 35.0635 45.5728 33.8505 45.745 32.6181C45.766 32.4676 45.8554 32.3406 45.9839 32.2786L47.5883 31.5046L49.1634 31.3654C50.2582 33.1775 52.2117 34.1917 54.2983 33.9823C54.6835 33.9437 55.0667 33.8622 55.4377 33.7402C55.9024 33.5873 56.155 33.0866 56.0021 32.6219C55.8491 32.1568 55.3484 31.9043 54.8838 32.0572Z" fill="#434343"/>
<path d="M32.3111 18.2576C31.3825 18.0395 30.425 17.929 29.4653 17.929C22.6266 17.929 17.0627 23.4927 17.0627 30.3316C17.0627 37.1704 22.6265 42.7342 29.4653 42.7342C36.3042 42.7342 41.8679 37.1704 41.8679 30.3316C41.8679 26.0556 39.708 22.1357 36.0902 19.8455C35.6767 19.5838 35.1295 19.7068 34.868 20.1201C34.6063 20.5334 34.7293 21.0806 35.1427 21.3423C38.2446 23.3059 40.0964 26.6664 40.0964 30.3316C40.0964 36.1935 35.3274 40.9626 29.4653 40.9626C23.6033 40.9626 18.8343 36.1936 18.8343 30.3316C18.8343 24.4695 23.6033 19.7005 29.4653 19.7005C30.2889 19.7005 31.11 19.7953 31.9061 19.9823C32.3824 20.0945 32.8591 19.7987 32.9709 19.3225C33.0828 18.8462 32.7873 18.3696 32.3111 18.2576Z" fill="#434343"/>
<path d="M10.087 10.2791C12.384 10.2791 14.2526 8.41048 14.2526 6.11353C14.2526 3.81659 12.384 1.948 10.087 1.948C7.7901 1.948 5.92151 3.81671 5.92151 6.11365C5.92151 8.41048 7.7901 10.2791 10.087 10.2791ZM10.087 3.71963C11.4071 3.71963 12.4811 4.79364 12.4811 6.11365C12.4811 7.43366 11.4071 8.50767 10.087 8.50767C8.76703 8.50767 7.69302 7.43366 7.69302 6.11365C7.69302 4.79364 8.76703 3.71963 10.087 3.71963Z" fill="#434343"/>
<path d="M9.1905 46.2939C7.50757 46.2939 6.13831 47.6631 6.13831 49.346C6.13831 51.029 7.50745 52.3982 9.1905 52.3982C10.8734 52.3982 12.2426 51.0291 12.2426 49.346C12.2426 47.6632 10.8734 46.2939 9.1905 46.2939ZM9.1905 50.6267C8.48438 50.6267 7.90982 50.0523 7.90982 49.346C7.90982 48.6399 8.48426 48.0655 9.1905 48.0655C9.89663 48.0655 10.4711 48.6399 10.4711 49.346C10.4711 50.0523 9.89663 50.6267 9.1905 50.6267Z" fill="#434343"/>
<path d="M48.9656 48.8282C46.7178 48.8282 44.889 50.6569 44.889 52.9049C44.889 55.1528 46.7177 56.9815 48.9656 56.9815C51.2136 56.9815 53.0422 55.1528 53.0422 52.9049C53.0422 50.6569 51.2135 48.8282 48.9656 48.8282ZM48.9656 55.2098C47.6946 55.2098 46.6606 54.1759 46.6606 52.9047C46.6606 51.6336 47.6945 50.5996 48.9656 50.5996C50.2368 50.5996 51.2707 51.6336 51.2707 52.9047C51.2707 54.1759 50.2366 55.2098 48.9656 55.2098Z" fill="#434343"/>
<path d="M29.7908 27.1555C29.7908 25.0268 28.0589 23.2949 25.9302 23.2949C23.8014 23.2949 22.0696 25.0268 22.0696 27.1555C22.0696 29.2843 23.8014 31.0161 25.9302 31.0161C28.0589 31.0161 29.7908 29.2842 29.7908 27.1555ZM25.9302 29.2446C24.7782 29.2446 23.8411 28.3075 23.8411 27.1555C23.8411 26.0036 24.7782 25.0664 25.9302 25.0664C27.0821 25.0664 28.0193 26.0036 28.0193 27.1555C28.0193 28.3075 27.0821 29.2446 25.9302 29.2446Z" fill="#434343"/>
<path d="M28.3183 39.3059C29.9232 39.3059 31.2289 38.0002 31.2289 36.3953C31.2289 34.7905 29.9232 33.4847 28.3183 33.4847C26.7134 33.4847 25.4077 34.7905 25.4077 36.3953C25.4077 38.0003 26.7133 39.3059 28.3183 39.3059ZM28.3183 35.2564C28.9464 35.2564 29.4574 35.7674 29.4574 36.3955C29.4574 37.0235 28.9464 37.5345 28.3183 37.5345C27.6903 37.5345 27.1792 37.0235 27.1792 36.3955C27.1792 35.7674 27.6901 35.2564 28.3183 35.2564Z" fill="#434343"/>
<path d="M32.0902 30.3315C32.0902 31.7575 33.2503 32.9176 34.6763 32.9176C36.1022 32.9176 37.2623 31.7575 37.2623 30.3315C37.2623 28.9056 36.1022 27.7455 34.6763 27.7455C33.2503 27.7455 32.0902 28.9055 32.0902 30.3315ZM34.6763 29.5169C35.1254 29.5169 35.4908 29.8823 35.4908 30.3314C35.4908 30.7806 35.1254 31.146 34.6763 31.146C34.2271 31.146 33.8617 30.7806 33.8617 30.3314C33.8617 29.8823 34.227 29.5169 34.6763 29.5169Z" fill="#434343"/>
</svg>
