<svg width="70" height="70" viewBox="0 0 70 70" fill="none" xmlns="http://www.w3.org/2000/svg">
<g clip-path="url(#clip0)">
<path d="M46.1577 57.4988H45.132V54.4216C45.132 51.5936 42.8314 49.293 40.0034 49.293H9.23155C6.40355 49.293 4.10291 51.5936 4.10291 54.4216V57.4988H3.07719C1.38036 57.4988 3.8147e-06 58.8793 3.8147e-06 60.576V62.0804C3.8147e-06 63.0231 0.766837 63.7899 1.70955 63.7899H47.5254C48.4681 63.7899 49.2349 63.0231 49.2349 62.0804V60.576C49.2349 58.8793 47.8546 57.4988 46.1577 57.4988ZM6.15437 55.4473H12.62C13.1865 55.4473 13.6457 54.9882 13.6457 54.4216C13.6457 53.855 13.1865 53.3959 12.62 53.3959H6.33079C6.75421 52.2021 7.89427 51.3444 9.23155 51.3444H40.0034C41.3405 51.3444 42.4807 52.2021 42.9041 53.3959H17.4097C16.8433 53.3959 16.384 53.855 16.384 54.4216C16.384 54.9882 16.8433 55.4473 17.4097 55.4473H43.0805V57.4988H6.15437V55.4473ZM47.1835 61.7385H2.05146V60.576C2.05146 60.0103 2.51153 59.5502 3.07719 59.5502H46.1577C46.7234 59.5502 47.1835 60.0103 47.1835 60.576V61.7385Z" fill="#434343"/>
<path d="M69.0174 55.1312L60.5193 47.3885C60.1005 47.0068 59.4517 47.0372 59.0703 47.4559C58.6887 47.8747 58.7189 48.5234 59.1377 48.9049L61.3391 50.9106L58.6478 53.6018L46.6442 40.4271L48.1643 38.907L55.5883 45.6709C55.784 45.8849 56.5308 46.1218 57.0373 45.6035C57.4189 45.1847 57.3886 44.536 56.9699 44.1544L49.4725 37.3235C49.885 36.3519 49.6975 35.1841 48.9064 34.3931L48.3226 33.8094C47.8189 33.3055 47.1491 33.0282 46.4367 33.0282C46.0565 33.0282 45.6896 33.1094 45.3525 33.2597L43.6451 31.5524C44.0793 30.5733 43.8984 29.3851 43.0968 28.5835L42.0778 27.5645L42.3214 27.3209C42.6443 26.9981 42.8222 26.5687 42.8222 26.112C42.8222 25.6554 42.6444 25.2259 42.3215 24.9032L42.0779 24.6596L43.5512 23.1864C43.9746 23.504 44.479 23.6653 44.9846 23.6653C45.5974 23.6653 46.2103 23.432 46.6769 22.9655L46.6805 22.962V22.9618C48.0057 21.6366 48.1329 19.5602 47.0626 18.0903C47.6326 17.2491 47.9395 16.2578 47.9395 15.2192C47.9395 13.8479 47.4056 12.5588 46.4359 11.5892L44.3635 9.51673C43.9631 9.11643 43.3136 9.11615 42.913 9.51673C42.5124 9.91745 42.5124 10.5668 42.913 10.9672L44.9854 13.0398C45.5675 13.6218 45.8882 14.3958 45.8882 15.2192C45.8882 15.6871 45.7812 16.1376 45.585 16.5476L37.6021 8.56472C38.2326 8.26138 38.9548 8.17946 39.6631 8.35096C40.2141 8.48417 40.7682 8.14622 40.9016 7.59575C41.0351 7.04528 40.6969 6.4907 40.1464 6.35722C38.7142 6.01011 37.2465 6.28419 36.0613 7.08904C34.5915 6.01928 32.5152 6.14701 31.1866 7.47513C30.3351 8.32675 30.2632 9.66403 30.9656 10.601L29.4924 12.0742L29.249 11.8308C28.9261 11.5079 28.4968 11.3299 28.0401 11.3299C27.5835 11.3299 27.154 11.5079 26.8313 11.8306L19.568 19.0937C19.2451 19.4166 19.0673 19.8459 19.0673 20.3026C19.0673 20.7593 19.2451 21.1887 19.568 21.5114L19.8114 21.755L18.3382 23.2282C17.4975 22.5729 16.0547 22.6082 15.2091 23.4527C13.8833 24.7785 13.7564 26.8556 14.8276 28.3257C13.4809 30.3214 13.6889 33.0611 15.4535 34.8258L19.3265 38.6988C20.3273 39.6995 21.6419 40.2001 22.9566 40.2001C23.9599 40.2001 24.9628 39.9075 25.8266 39.3246C26.4826 39.8026 27.2596 40.0422 28.0374 40.0422C29.0024 40.0422 29.9687 39.6739 30.706 38.9365L30.7067 38.9357C31.5545 38.0841 31.6251 36.7494 30.9238 35.8141L32.397 34.3408L32.6404 34.5843C32.9633 34.9072 33.3926 35.0851 33.8494 35.0851C34.3062 35.0851 34.7355 34.9072 35.0583 34.5844L35.3018 34.3408L36.3209 35.3597C36.8246 35.8636 37.4943 36.1409 38.2067 36.1409C38.5869 36.1409 38.954 36.0597 39.2911 35.9094L40.9985 37.6167C40.5642 38.5958 40.7452 39.784 41.5468 40.5856L42.1306 41.1694C42.6506 41.6894 43.3333 41.9493 44.0164 41.9493C44.3726 41.9493 44.7281 41.8768 45.0612 41.7355L62.8688 61.2805C63.9151 62.4887 66.0664 62.653 67.323 61.3839L69.1212 59.5858C70.2469 58.5008 70.3738 56.3346 69.0174 55.1312ZM62.8571 52.2937L64.3789 53.6802L61.4174 56.6415L60.0309 55.1197L62.8571 52.2937ZM42.3218 36.0386L40.8676 34.5844L42.3217 33.1303L43.7759 34.5845L42.3218 36.0386ZM32.6407 8.92236C33.3074 8.25591 34.392 8.25591 35.0584 8.92236L45.2299 19.0937C45.8299 19.6692 45.8902 20.8397 45.2264 21.515C45.093 21.6485 44.876 21.6482 44.7428 21.515L32.6371 9.40937C32.5038 9.27617 32.5038 9.05926 32.6407 8.92236ZM32.3971 12.0708L42.0815 21.755L40.6273 23.2092L30.9431 13.525L32.3971 12.0708ZM20.7771 37.248L16.9041 33.375C16.3219 32.7928 16.0013 32.0189 16.0013 31.1955C16.0013 30.7277 16.1083 30.2772 16.3046 29.8672L24.284 37.8465C23.1385 38.3926 21.7244 38.1952 20.7771 37.248ZM29.2524 37.4889L29.2488 37.4924C28.5822 38.159 27.4977 38.1593 26.8311 37.4924C26.4584 37.1197 23.0087 33.67 19.814 30.4753C17.8496 28.5109 17.1415 27.8028 16.6597 27.321C15.9951 26.6564 15.9931 25.5758 16.6543 24.9088C16.6573 24.9058 16.6603 24.9028 16.6633 24.8999C16.7966 24.7666 17.0137 24.7666 17.1469 24.8999L29.2525 37.0055C29.3857 37.1387 29.3857 37.3555 29.2524 37.4889ZM30.7945 29.8368C30.3939 29.4364 29.7445 29.4364 29.344 29.8368C28.9434 30.2375 28.9434 30.8869 29.344 31.2875L30.9466 32.89L29.4924 34.3443L19.808 24.6599L21.2622 23.2058L25.9628 27.9064C26.3634 28.3068 27.0129 28.3068 27.4133 27.9064C27.8139 27.5057 27.8139 26.8563 27.4133 26.4557L21.9891 21.0318C21.9886 21.0313 21.988 21.0306 21.9875 21.03C21.9869 21.0295 21.9863 21.0289 21.9857 21.0284L21.2603 20.3031L28.04 13.5236L40.6291 26.1127L33.8496 32.8922L30.7945 29.8368ZM37.7715 33.9089L36.7525 32.89L40.6272 29.0153L41.6462 30.0343C41.8861 30.2742 41.8861 30.6646 41.6462 30.9045L38.6416 33.9091C38.5254 34.0253 38.371 34.0892 38.2064 34.0892C38.0423 34.0892 37.8878 34.0253 37.7715 33.9089ZM43.5811 39.7184L42.9973 39.1347C42.7572 38.8947 42.7572 38.5042 42.9973 38.2643L46.0018 35.2598C46.1181 35.1435 46.2725 35.0796 46.4369 35.0796C46.6013 35.0796 46.7558 35.1436 46.8721 35.2599L47.4559 35.8436C47.6958 36.0836 47.6959 36.4739 47.4559 36.714L44.4515 39.7184C44.3352 39.8348 44.1807 39.8986 44.0163 39.8986C43.8519 39.8986 43.6974 39.8348 43.5811 39.7184ZM67.6703 58.1348L65.8721 59.933C65.5578 60.2332 64.8975 60.4039 64.3848 59.8985L62.8005 58.1596L65.897 55.0633L67.6358 56.6475C67.9514 56.948 68.1511 57.5986 67.6703 58.1348Z" fill="#434343"/>
</g>
<defs>
<clipPath id="clip0">
<rect width="70" height="70" fill="white"/>
</clipPath>
</defs>
</svg>
