<svg width="70" height="70" viewBox="0 0 70 70" fill="none" xmlns="http://www.w3.org/2000/svg">
<path d="M43.75 44.8438H42.8422C46.1312 42.8831 48.5662 39.7612 49.6672 36.0938H49.7656C51.0173 36.0888 52.2198 35.6061 53.1275 34.7443C54.0352 33.8824 54.5796 32.7065 54.6494 31.4568C54.7192 30.2071 54.3092 28.9779 53.5031 28.0203C52.6971 27.0628 51.5558 26.4491 50.3125 26.3047V25.1563C50.3096 22.8396 49.7784 20.554 48.7594 18.4735C51.5266 17.8282 53.5938 16.8329 53.5938 15.3126C53.5938 13.1251 49.4047 11.7141 41.1469 11.1454C39.2112 10.2875 37.1173 9.84424 35 9.84424C32.8827 9.84424 30.7888 10.2875 28.8531 11.1454C20.5953 11.7141 16.4062 13.1251 16.4062 15.3126C16.4062 16.8329 18.4734 17.8282 21.2406 18.4735C20.2216 20.554 19.6904 22.8396 19.6875 25.1563V26.3047C18.3821 26.3773 17.159 26.9654 16.2873 27.9397C15.4155 28.914 14.9665 30.1947 15.0391 31.5001C15.1116 32.8054 15.6997 34.0285 16.674 34.9003C17.6483 35.772 18.929 36.221 20.2344 36.1485H20.3328C21.4338 39.8159 23.8688 42.9378 27.1578 44.8985H26.25C22.7785 44.8985 19.4484 46.2738 16.9885 48.7234C14.5287 51.173 13.1395 54.4973 13.125 57.9688V67.8126C13.125 68.1026 13.2402 68.3808 13.4454 68.586C13.6505 68.7911 13.9287 68.9063 14.2188 68.9063H55.7812C56.0713 68.9063 56.3495 68.7911 56.5546 68.586C56.7598 68.3808 56.875 68.1026 56.875 67.8126V57.9688C56.875 54.4878 55.4922 51.1494 53.0308 48.688C50.5694 46.2266 47.231 44.8438 43.75 44.8438ZM29.0172 47.0313L33.2719 52.1391L29.0719 54.2391L26.6766 47.0313H29.0172ZM38.1281 47.0313L35 50.7938L31.8719 47.0313H38.1281ZM40.9828 47.0313H43.3234L40.9281 54.2391L36.7281 52.1391L40.9828 47.0313ZM52.5 31.1719C52.5042 31.8348 52.2684 32.4768 51.8362 32.9794C51.404 33.482 50.8045 33.8112 50.1484 33.9063C50.2544 33.1819 50.3092 32.4509 50.3125 31.7188V28.4922C50.9301 28.6183 51.4852 28.9539 51.8838 29.4422C52.2825 29.9305 52.5001 30.5416 52.5 31.1719ZM51.2313 15.3126C50.0937 15.8982 48.8665 16.29 47.6 16.4719C46.9041 15.4723 46.0928 14.5582 45.1828 13.7485C48.7047 14.2188 50.5969 14.8969 51.2313 15.3126ZM45.1719 16.8766C41.7993 17.3151 38.4008 17.5233 35 17.5001C31.5992 17.5233 28.2007 17.3151 24.8281 16.8766C26.059 15.3672 27.6103 14.1506 29.3697 13.3151C31.1291 12.4796 33.0523 12.0461 35 12.0461C36.9477 12.0461 38.8709 12.4796 40.6303 13.3151C42.3897 14.1506 43.941 15.3672 45.1719 16.8766ZM18.7687 15.3126C19.4031 14.8969 21.2953 14.2188 24.8172 13.7485C23.9072 14.5582 23.0959 15.4723 22.4 16.4719C21.1335 16.29 19.9063 15.8982 18.7687 15.3126ZM35 19.6876C38.8601 19.6976 42.7161 19.4344 46.5391 18.9001C47.5802 20.821 48.1253 22.9714 48.125 25.1563V26.2501C46.5323 26.105 44.9959 25.588 43.6395 24.7407C42.2831 23.8935 41.1446 22.7396 40.3156 21.3719C40.2188 21.2087 40.0811 21.0735 39.9162 20.9796C39.7513 20.8857 39.5648 20.8363 39.375 20.8363C39.1852 20.8363 38.9987 20.8857 38.8338 20.9796C38.6689 21.0735 38.5312 21.2087 38.4344 21.3719C37.5243 22.8782 36.2405 24.1238 34.7075 24.988C33.1745 25.8523 31.4442 26.3058 29.6844 26.3047H21.875V25.1563C21.8747 22.9714 22.4198 20.821 23.4609 18.9001C27.2839 19.4344 31.1399 19.6976 35 19.6876ZM17.5 31.1719C17.4999 30.5416 17.7175 29.9305 18.1162 29.4422C18.5148 28.9539 19.0699 28.6183 19.6875 28.4922V31.7188C19.6908 32.4509 19.7456 33.1819 19.8516 33.9063C19.1955 33.8112 18.596 33.482 18.1638 32.9794C17.7316 32.4768 17.4958 31.8348 17.5 31.1719ZM21.875 31.7188V28.4376H29.7172C31.5717 28.4319 33.4015 28.0115 35.0726 27.2072C36.7437 26.4029 38.2137 25.235 39.375 23.7891C40.438 25.1212 41.763 26.2211 43.268 27.0206C44.773 27.8202 46.4261 28.3024 48.125 28.4376V31.7188C48.125 35.1998 46.7422 38.5382 44.2808 40.9996C41.8194 43.461 38.481 44.8438 35 44.8438C31.519 44.8438 28.1806 43.461 25.7192 40.9996C23.2578 38.5382 21.875 35.1998 21.875 31.7188ZM15.3125 57.9688C15.315 55.3865 16.231 52.8883 17.8985 50.9166C19.566 48.9448 21.8774 47.6266 24.4234 47.1954L27.3984 56.1313C27.4718 56.3485 27.6116 56.5372 27.7981 56.6707C27.9845 56.8042 28.2082 56.8756 28.4375 56.8751C28.6087 56.874 28.7773 56.8328 28.9297 56.7547L33.9062 54.2719V66.7188H21.875V60.1563H19.6875V66.7188H15.3125V57.9688ZM54.6875 66.7188H50.3125V60.1563H48.125V66.7188H36.0938V54.2719L41.0703 56.7547C41.2128 56.8197 41.3676 56.8534 41.5242 56.8534C41.6808 56.8534 41.8356 56.8197 41.9781 56.7547C42.1229 56.6962 42.2534 56.6073 42.3609 56.4941C42.4685 56.3809 42.5505 56.246 42.6016 56.0985L45.5766 47.1625C48.1282 47.5947 50.4439 48.9177 52.1121 50.8963C53.7802 52.8748 54.6928 55.3808 54.6875 57.9688V66.7188Z" fill="#434343"/>
<path d="M35 36.0938C33.5496 36.0938 32.1586 36.6699 31.133 37.6955C30.1074 38.7211 29.5312 40.1121 29.5312 41.5625H31.7188C31.7188 40.6923 32.0645 39.8577 32.6798 39.2423C33.2952 38.627 34.1298 38.2812 35 38.2812C35.8702 38.2812 36.7048 38.627 37.3202 39.2423C37.9355 39.8577 38.2812 40.6923 38.2812 41.5625H40.4688C40.4688 40.1121 39.8926 38.7211 38.867 37.6955C37.8414 36.6699 36.4504 36.0938 35 36.0938Z" fill="#434343"/>
<path d="M61.25 15.8594C61.25 15.7143 61.3076 15.5752 61.4102 15.4727C61.5127 15.3701 61.6518 15.3125 61.7969 15.3125H63.4375V13.125H61.7969C61.0717 13.125 60.3762 13.4131 59.8634 13.9259C59.3506 14.4387 59.0625 15.1342 59.0625 15.8594C59.0625 16.0044 59.0049 16.1435 58.9023 16.2461C58.7998 16.3486 58.6607 16.4062 58.5156 16.4062H56.875V18.5938H58.5156C59.2408 18.5938 59.9363 18.3057 60.4491 17.7929C60.9619 17.2801 61.25 16.5846 61.25 15.8594Z" fill="#434343"/>
<path d="M8.75 15.8594C8.75 16.5846 9.03808 17.2801 9.55088 17.7929C10.0637 18.3057 10.7592 18.5938 11.4844 18.5938H13.125V16.4062H11.4844C11.3393 16.4062 11.2002 16.3486 11.0977 16.2461C10.9951 16.1435 10.9375 16.0044 10.9375 15.8594C10.9375 15.1342 10.6494 14.4387 10.1366 13.9259C9.62383 13.4131 8.92833 13.125 8.20312 13.125H6.5625V15.3125H8.20312C8.34817 15.3125 8.48726 15.3701 8.58982 15.4727C8.69238 15.5752 8.75 15.7143 8.75 15.8594Z" fill="#434343"/>
<path d="M12.3484 23.2859L11.2546 24.3796C11.2196 24.4315 11.1723 24.474 11.117 24.5034C11.0617 24.5328 11.0001 24.5481 10.9375 24.5481C10.8748 24.5481 10.8132 24.5328 10.7579 24.5034C10.7026 24.474 10.6553 24.4315 10.6203 24.3796C10.1159 23.8995 9.44628 23.6317 8.74995 23.6317C8.05362 23.6317 7.38397 23.8995 6.87964 24.3796L5.78589 25.4734L7.33901 27.0265L8.43276 25.9328C8.46782 25.8809 8.51507 25.8384 8.57037 25.809C8.62567 25.7796 8.68733 25.7643 8.74995 25.7643C8.81257 25.7643 8.87423 25.7796 8.92953 25.809C8.98483 25.8384 9.03208 25.8809 9.06714 25.9328C9.57147 26.4129 10.2411 26.6807 10.9375 26.6807C11.6338 26.6807 12.3034 26.4129 12.8078 25.9328L13.9015 24.839L12.3484 23.2859Z" fill="#434343"/>
<path d="M63.1203 24.3796C62.6159 23.8995 61.9463 23.6317 61.25 23.6317C60.5536 23.6317 59.884 23.8995 59.3796 24.3796C59.3446 24.4315 59.2973 24.474 59.242 24.5034C59.1867 24.5328 59.1251 24.5481 59.0625 24.5481C58.9998 24.5481 58.9382 24.5328 58.8829 24.5034C58.8276 24.474 58.7803 24.4315 58.7453 24.3796L57.6515 23.2859L56.0984 24.839L57.1921 25.9328C57.6965 26.4129 58.3661 26.6807 59.0625 26.6807C59.7588 26.6807 60.4284 26.4129 60.9328 25.9328C60.9678 25.8809 61.0151 25.8384 61.0704 25.809C61.1257 25.7796 61.1873 25.7643 61.25 25.7643C61.3126 25.7643 61.3742 25.7796 61.4295 25.809C61.4848 25.8384 61.5321 25.8809 61.5671 25.9328L62.6609 27.0265L64.214 25.4734L63.1203 24.3796Z" fill="#434343"/>
<path d="M19.6875 3.28125H21.875V5.46875H19.6875V3.28125Z" fill="#434343"/>
<path d="M19.6875 7.65625H21.875V9.84375H19.6875V7.65625Z" fill="#434343"/>
<path d="M17.5 5.46875H19.6875V7.65625H17.5V5.46875Z" fill="#434343"/>
<path d="M21.875 5.46875H24.0625V7.65625H21.875V5.46875Z" fill="#434343"/>
<path d="M48.125 1.09375H50.3125V3.28125H48.125V1.09375Z" fill="#434343"/>
<path d="M48.125 5.46875H50.3125V7.65625H48.125V5.46875Z" fill="#434343"/>
<path d="M45.9375 3.28125H48.125V5.46875H45.9375V3.28125Z" fill="#434343"/>
<path d="M50.3125 3.28125H52.5V5.46875H50.3125V3.28125Z" fill="#434343"/>
</svg>
