<svg width="83" height="83" viewBox="0 0 83 83" fill="none" xmlns="http://www.w3.org/2000/svg">
<g clip-path="url(#clip0)">
<path d="M47.3172 48.1351C47.6822 48.6565 47.5556 49.3749 47.0342 49.74C46.5128 50.1051 45.7943 49.9784 45.4293 49.457C45.0642 48.9356 45.1909 48.2172 45.7123 47.8521C46.2336 47.487 46.9521 47.6137 47.3172 48.1351Z" fill="#434343"/>
<path d="M70.4831 44.1043L66.4921 45.1737L58.4376 40.5234C58.173 40.3706 57.8581 40.3292 57.5633 40.4082L53.3392 41.54C52.4993 40.1116 51.535 38.7893 50.3636 37.5654L51.918 37.1489C52.2128 37.0699 52.4648 36.8765 52.6176 36.6119L55.8769 30.9666C56.0297 30.702 56.0712 30.3874 55.9921 30.0922L54.3262 23.8751L55.7171 21.4654C56.035 20.9147 55.8462 20.2099 55.2953 19.8915C54.744 19.5732 54.0392 19.762 53.7209 20.3133L52.0913 23.136C51.9385 23.4006 51.8969 23.7151 51.976 24.0104L53.6419 30.2275L50.8601 35.0463L48.3153 35.7282C47.5924 35.18 46.8508 34.7151 46.0963 34.3376C46.7961 33.3611 47.0469 32.3283 46.7888 31.3652C46.3044 29.5574 44.1756 28.4841 41.2523 28.512L40.431 25.4467C39.1844 20.7944 40.339 15.8561 43.5183 12.2375C43.9387 11.7595 43.8914 11.0317 43.4134 10.6112C42.9355 10.1913 42.2071 10.2382 41.7871 10.7161C38.0974 14.9152 36.7583 20.6448 38.2048 26.0432L38.929 28.7459C38.5549 28.8158 38.1795 28.9001 37.8043 29.0007C37.4295 29.1011 37.0618 29.2159 36.7028 29.3424L35.9786 26.6397C34.5321 21.2413 30.5076 16.9488 25.2127 15.1572C24.61 14.9534 23.9562 15.2768 23.7519 15.8795C23.5481 16.4826 23.8715 17.1365 24.4742 17.3403C29.0373 18.8844 32.5059 22.5839 33.7525 27.2362L34.5738 30.3015C32.0287 31.7389 30.7212 33.7324 31.2057 35.5407C31.4638 36.5038 32.1973 37.2728 33.2916 37.7686C32.8273 38.4727 32.4176 39.2461 32.0656 40.0823L29.5203 40.7643L24.7019 37.982L23.036 31.7648C22.9569 31.4696 22.7636 31.218 22.499 31.0652L19.6764 29.4356C19.1255 29.1171 18.4207 29.306 18.1024 29.8573C17.7841 30.4086 17.973 31.1134 18.5241 31.4313L20.9334 32.8226L22.5993 39.0398C22.6784 39.335 22.8717 39.5866 23.1363 39.7394L28.7816 42.9987C29.0462 43.1515 29.3604 43.1917 29.6556 43.1126L31.2096 42.6963C30.951 43.7539 30.7749 44.8655 30.6863 46.0203C30.6858 46.0251 30.6856 46.0298 30.6852 46.035C30.6843 46.0474 30.6835 46.0602 30.6828 46.0729C30.6444 46.5837 30.6249 47.1039 30.6207 47.6274L26.3966 48.7592C26.1014 48.8384 25.8498 49.0316 25.697 49.2962L21.0468 57.3507L17.0558 58.4201C16.441 58.5848 16.0762 59.2166 16.2409 59.8314C16.4057 60.4462 17.0375 60.811 17.6523 60.6462L22.1046 59.4532C22.3998 59.3741 22.6514 59.1809 22.8042 58.9163L27.4541 50.8605L30.7151 49.9867C30.8486 51.5009 31.1199 53.028 31.5258 54.5429C31.5832 54.7572 31.6441 54.9706 31.7068 55.1836L28.6799 60.4269C28.5272 60.6915 28.4856 61.006 28.5647 61.3012L30.9452 70.1854L27.6223 73.1323C27.1463 73.5544 27.1025 74.2829 27.5245 74.7588C27.9479 75.2363 28.6762 75.2779 29.1514 74.8565L33.0073 71.4373C33.3338 71.148 33.4687 70.6985 33.3558 70.2772L30.9144 61.1656L32.7221 58.0352C34.0925 61.3011 36.0619 64.2265 38.3702 66.3575C41.7017 69.4339 45.3779 70.6349 48.7206 69.7392C52.0633 68.8436 54.6464 65.9653 55.9934 61.6354C56.9269 58.6358 57.1702 55.1174 56.7237 51.604L59.8544 53.4112L62.2959 62.5228C62.4088 62.9441 62.7504 63.2659 63.1778 63.3532L68.2266 64.3863C68.408 64.4235 68.5877 64.4158 68.7551 64.371C69.1634 64.2616 69.4961 63.931 69.5864 63.4888C69.7142 62.8651 69.312 62.2561 68.6888 62.1286L64.3377 61.2384L61.9571 52.3538C61.878 52.0586 61.6847 51.807 61.4201 51.6542L56.1767 48.6269C56.125 48.4115 56.0711 48.1962 56.0135 47.9814C55.6077 46.467 55.0789 45.0098 54.4379 43.6316L57.6984 42.7579L65.7534 47.4081C66.018 47.5609 66.3325 47.6024 66.6277 47.5233L71.08 46.3303C71.6948 46.1656 72.0596 45.5338 71.8949 44.919C71.7303 44.3046 71.0979 43.9395 70.4831 44.1043ZM33.1834 44.5547C33.3633 43.4575 33.6348 42.4183 33.9989 41.4535C34.4486 40.264 35.024 39.2253 35.7101 38.3545C37.0879 38.4719 38.6519 38.3175 40.1907 37.9052C41.7299 37.4928 43.1616 36.8444 44.2956 36.0541C45.3252 36.4651 46.3424 37.077 47.3266 37.8819C48.1243 38.5354 48.8789 39.2997 49.5839 40.1602L33.1834 44.5547ZM38.4012 31.2267C41.6513 30.3558 44.3063 31.0033 44.5631 31.9616C44.6892 32.4325 44.2251 33.1785 43.3806 33.862C42.426 34.635 41.0812 35.2806 39.5942 35.679C38.1067 36.0776 36.6197 36.1908 35.406 35.9988C34.333 35.8291 33.5585 35.415 33.4323 34.9441C33.1752 33.9845 35.1533 32.097 38.4012 31.2267ZM53.7925 60.9506C52.8504 63.979 51.245 66.1199 49.2083 67.107L45.7775 54.3031C45.6127 53.6883 44.981 53.3235 44.3662 53.4883C43.7514 53.653 43.3866 54.2848 43.5513 54.8996L46.9821 67.7035C44.7243 67.8671 42.264 66.8157 39.9334 64.6641C37.1387 62.0833 34.8855 58.1769 33.7518 53.9459C33.1573 51.7272 32.8497 49.3877 32.9399 47.006L40.8671 44.8819L41.1653 45.995C41.33 46.6093 41.9619 46.9745 42.5767 46.8098C43.1915 46.6451 43.5561 46.0128 43.3915 45.3985L43.0932 44.2854L51.02 42.1614C52.2903 44.1805 53.1933 46.3609 53.7872 48.5775C54.9209 52.8085 54.9228 57.318 53.7925 60.9506Z" fill="#434343"/>
</g>
<defs>
<clipPath id="clip0">
<rect width="59" height="59" fill="white" transform="translate(0 34) rotate(-35)"/>
</clipPath>
</defs>
</svg>
