<svg width="70" height="70" viewBox="0 0 70 70" fill="none" xmlns="http://www.w3.org/2000/svg">
<g clip-path="url(#clip0)">
<path d="M67.2955 19.8282C60.9703 19.8282 55.8244 14.6821 55.8244 8.35688C55.8244 6.25688 56.3966 4.20354 57.4793 2.41862C57.8036 1.88407 57.781 1.20822 57.4219 0.696995C57.0649 0.1885 56.4412 -0.0601547 55.8326 0.0623315C53.314 0.570144 50.9999 1.78559 49.1407 3.57733C48.734 3.96934 48.7219 4.61696 49.114 5.0237C49.506 5.43058 50.1537 5.44245 50.5603 5.05044C51.8777 3.78097 53.4633 2.85264 55.1939 2.32996C54.2651 4.19331 53.7784 6.25579 53.7784 8.35702C53.7784 15.4424 59.2575 21.2721 66.2016 21.8304C64.1294 23.6959 61.4192 24.7609 58.6152 24.7841C52.3807 24.8296 47.1967 19.8137 47.0508 13.5902C47.0097 11.8454 47.3496 10.1632 48.0612 8.59026C48.2939 8.07549 48.0655 7.46933 47.5507 7.2365C47.0358 7.00394 46.4298 7.23241 46.1969 7.74704C45.3581 9.60206 44.9571 11.5841 45.0054 13.6381C45.1767 20.9359 51.2283 26.8311 58.5208 26.8305C58.5575 26.8305 58.5954 26.8303 58.632 26.8301C62.3602 26.7992 65.9468 25.206 68.4722 22.4586C68.8926 22.0011 69.0029 21.3384 68.7529 20.7699C68.5011 20.1971 67.9352 19.8314 67.2955 19.8282Z" fill="#434343"/>
<path d="M69.8357 4.14924C69.6544 3.57609 69.1725 3.16335 68.5786 3.07251L66.5251 2.75742L65.6205 0.887533C65.3588 0.346303 64.8227 0.00721536 64.2215 0.00244141C64.2173 0.00244141 64.2129 0.00244141 64.2087 0.00244141C63.6127 0.00244141 63.077 0.332254 62.8087 0.8653L61.8747 2.72087L59.8165 3.00335C59.221 3.08519 58.7329 3.49016 58.5427 4.06044C58.3522 4.63073 58.4997 5.24766 58.9266 5.67063L60.4026 7.13242L60.0354 9.17703C59.9292 9.76873 60.1635 10.3581 60.647 10.7152C61.1306 11.0723 61.763 11.1232 62.2972 10.8475L64.1435 9.89545L65.9745 10.8766C66.2087 11.002 66.4631 11.0641 66.7162 11.0641C67.0358 11.064 67.3535 10.9651 67.6264 10.7702C68.1155 10.4206 68.3591 9.83502 68.262 9.24182L67.9272 7.19161L69.4259 5.75356C69.8601 5.33727 70.0171 4.72252 69.8357 4.14924ZM66.3293 5.88955C65.9567 6.24719 65.7842 6.76482 65.8677 7.27345L66.0869 8.61548L64.8882 7.97318C64.657 7.84933 64.4024 7.7874 64.1477 7.7874C63.9012 7.7874 63.6547 7.84551 63.4291 7.96172L62.2205 8.58506L62.461 7.24658C62.5522 6.73836 62.3877 6.21827 62.021 5.85545L61.0547 4.89848L62.4021 4.71366C62.9131 4.64341 63.3569 4.32642 63.5891 3.86526L64.2003 2.65076L64.7926 3.87467C65.0172 4.33938 65.456 4.66346 65.9662 4.74162L67.3102 4.94785L66.3293 5.88955Z" fill="#434343"/>
<path d="M15.0167 47.0608C14.8116 46.4122 14.2665 45.9451 13.5939 45.8419L10.5614 45.3768L9.22536 42.6151C8.9291 42.0028 8.32253 41.619 7.64245 41.6137C7.63754 41.6135 7.63276 41.6135 7.62799 41.6135C6.9535 41.6135 6.34734 41.9866 6.04358 42.59L4.66418 45.3304L1.62467 45.7476C0.950722 45.8403 0.398307 46.2987 0.18307 46.944C-0.0321675 47.5893 0.134512 48.2875 0.617773 48.7659L2.7977 50.9247L2.25524 53.9445C2.13494 54.6141 2.40023 55.2811 2.9476 55.6853C3.49483 56.0895 4.21065 56.1467 4.81463 55.835L7.54124 54.4287L10.2458 55.8778C10.5106 56.0198 10.7986 56.0901 11.0849 56.0901C11.4466 56.0901 11.8062 55.9781 12.1151 55.7574C12.6686 55.362 12.9441 54.6991 12.8345 54.0279L12.3396 51L14.5532 48.8759C15.0441 48.405 15.2217 47.7095 15.0167 47.0608ZM10.8196 49.623C10.3982 50.0277 10.2031 50.6133 10.2973 51.1889L10.7264 53.8144L8.382 52.558C8.12025 52.4178 7.83231 52.3476 7.54383 52.3476C7.26503 52.3476 6.98582 52.4132 6.73049 52.5448L4.36615 53.7641L4.83645 51.1458C4.93971 50.5708 4.75366 49.9824 4.33873 49.5716L2.44838 47.6998L5.08415 47.338C5.66276 47.2585 6.16498 46.8995 6.42727 46.3781L7.62335 44.002L8.78179 46.3965C9.03603 46.9224 9.5328 47.2894 10.11 47.3776L12.7394 47.7809L10.8196 49.623Z" fill="#434343"/>
<path d="M45.2899 26.7995H44.6614V23.9159C44.6614 20.7787 43.5189 17.6969 41.4444 15.2381C40.2714 13.8478 38.8212 12.6807 37.197 11.7944C37.5299 10.7443 37.5369 9.60466 37.4718 8.77945C37.411 8.0047 36.9273 7.35108 36.2617 7.03641C36.4354 5.97877 36.3726 4.88376 36.0353 3.85422C36.0353 3.85408 36.0353 3.85408 36.0353 3.85408C35.2679 1.51266 33.1016 -0.00013639 30.5163 9.22285e-09C27.9349 9.22285e-09 25.7711 1.51294 25.004 3.85422C24.6667 4.88362 24.6052 5.97822 24.7791 7.03559C24.1126 7.34999 23.6283 8.00402 23.5673 8.77917C23.5023 9.60452 23.5092 10.7441 23.8422 11.7944C22.2178 12.6807 20.7675 13.8476 19.5944 15.2381C17.5201 17.6968 16.3776 20.7787 16.3776 23.9159V26.7995H15.7492C13.7804 26.7995 12.1788 28.4011 12.1788 30.3699C12.1788 32.3385 13.7804 33.9401 15.7492 33.9401H16.4528C16.6692 36.0381 17.3508 38.0622 18.4559 39.8643C18.6489 40.1791 18.9849 40.3526 19.3289 40.3526C19.5112 40.3526 19.6959 40.3039 19.8627 40.2016C20.3443 39.9063 20.4953 39.2764 20.2 38.7948C19.0393 36.9022 18.4252 34.7217 18.4239 32.4887V28.6691C23.9851 27.8903 27.0916 24.6078 30.3686 21.1413C30.4188 21.0881 30.4691 21.0349 30.5194 20.9817C30.5698 21.0349 30.6201 21.0881 30.6701 21.1411C33.9473 24.6078 37.0539 27.8903 42.6153 28.6691V32.4809C42.6153 39.1506 37.1891 44.5768 30.5193 44.5768C27.7369 44.5768 25.1217 43.6587 22.9565 41.9215C22.5157 41.5678 21.8717 41.6386 21.5185 42.0793C21.1648 42.52 21.2356 43.1638 21.6761 43.5174C23.1476 44.6979 24.8439 45.5628 26.6449 46.0763V47.0685C19.7734 48.5235 14.6007 54.635 14.6007 61.9332V68.9773C14.6007 69.5424 15.0586 70.0003 15.6237 70.0003H45.4149C45.98 70.0003 46.4378 69.5424 46.4378 68.9773V61.9332C46.4378 54.6348 41.2652 48.5229 34.3937 47.068V46.0823C39.8621 44.5223 43.9883 39.7467 44.5862 33.9401H45.2898C47.2584 33.9401 48.86 32.3385 48.86 30.3697C48.8601 28.4011 47.2586 26.7995 45.2899 26.7995ZM16.3776 31.894H15.7492C14.9087 31.894 14.2248 31.2101 14.2248 30.3696C14.2248 29.5291 14.9087 28.8453 15.7492 28.8453H16.3776V31.894ZM28.691 46.502C29.2954 46.5813 29.9062 46.6223 30.5194 46.6223C31.1389 46.6223 31.7491 46.5813 32.3479 46.5037V49.083C32.3479 50.0914 31.5275 50.9115 30.5194 50.9115C29.5113 50.9115 28.691 50.0912 28.691 49.083V46.502ZM44.392 61.9331V67.9542H39.8374V61.7802C39.8374 61.2151 39.3795 60.7572 38.8144 60.7572C38.2493 60.7572 37.7914 61.2151 37.7914 61.7802V67.9542H23.2476V61.7802C23.2476 61.2151 22.7897 60.7572 22.2246 60.7572C21.6595 60.7572 21.2016 61.2151 21.2016 61.7802V67.9542H16.6468V61.9331C16.6468 55.7679 20.9126 50.5821 26.6471 49.1674C26.6922 51.2649 28.4112 52.9578 30.5194 52.9578C32.6272 52.9578 34.3458 51.2658 34.3916 49.1688C40.126 50.5836 44.392 55.768 44.392 61.9331ZM26.9482 4.49134C27.539 2.68842 29.1788 2.04598 30.5164 2.04598C31.7957 2.04585 33.4995 2.68624 34.091 4.4912C34.3365 5.24031 34.3671 6.05215 34.2168 6.83467H26.8227C26.6726 6.05215 26.7027 5.24031 26.9482 4.49134ZM25.607 8.93958C25.6097 8.90602 25.6348 8.88052 25.6655 8.88052H35.3737C35.405 8.88052 35.4295 8.90534 35.4324 8.93958V8.93985C35.5137 9.97212 35.4056 10.8786 35.1282 11.4923C35.1167 11.5178 35.0941 11.5343 35.0706 11.5343H25.9689C25.945 11.5343 25.9231 11.5182 25.9113 11.4923C25.6338 10.8786 25.5257 9.97212 25.607 8.93958ZM42.6154 26.6014C37.9339 25.8461 35.2407 22.9972 32.1572 19.7354C31.9513 19.5177 31.7444 19.2988 31.5352 19.0788C31.2719 18.802 30.9018 18.6433 30.5194 18.6433C30.1371 18.6433 29.7668 18.802 29.5037 19.0789C29.2946 19.2988 29.0874 19.5179 28.8817 19.7354C25.7983 22.9972 23.1049 25.8461 18.4236 26.6014V23.9159C18.4236 21.2609 19.3947 18.6476 21.1582 16.5573C22.2474 15.2663 23.6163 14.1975 25.1543 13.4136C25.4082 13.5208 25.6839 13.5803 25.9686 13.5803H35.0704C35.3546 13.5803 35.6299 13.5211 35.8833 13.4143C37.4217 14.198 38.7913 15.2662 39.8806 16.5573C41.6442 18.6476 42.6154 21.261 42.6154 23.9159V26.6014ZM45.2899 31.894H44.6614V28.8453H45.2899C46.1304 28.8453 46.8142 29.5293 46.8142 30.3697C46.8142 31.2102 46.1304 31.894 45.2899 31.894Z" fill="#434343"/>
<path d="M26.9978 31.3882C26.9978 30.6339 26.3863 30.0225 25.632 30.0225C24.8777 30.0225 24.2662 30.6339 24.2662 31.3882C24.2662 32.1425 24.8777 32.754 25.632 32.754C26.3863 32.754 26.9978 32.1425 26.9978 31.3882Z" fill="#434343"/>
<path d="M35.4403 32.754C36.1946 32.754 36.8061 32.1425 36.8061 31.3882C36.8061 30.6339 36.1946 30.0225 35.4403 30.0225C34.6861 30.0225 34.0746 30.6339 34.0746 31.3882C34.0746 32.1425 34.6861 32.754 35.4403 32.754Z" fill="#434343"/>
<path d="M22.9199 33.464C22.5493 33.0375 21.9033 32.9918 21.4768 33.3628C21.0503 33.7334 21.005 34.3794 21.3756 34.8059C22.3218 35.8948 23.6912 36.5195 25.1327 36.5195C26.5053 36.5195 27.83 35.9443 28.7676 34.9415C29.1535 34.5289 29.1316 33.8815 28.719 33.4955C28.3061 33.1095 27.6589 33.1316 27.2731 33.5441C26.7129 34.1434 25.9526 34.4734 25.1327 34.4734C24.2839 34.4734 23.4772 34.1055 22.9199 33.464Z" fill="#434343"/>
<path d="M33.8245 33.4639C33.4536 33.0374 32.8078 32.992 32.3812 33.3626C31.9547 33.7332 31.9094 34.3793 32.2799 34.8058C33.2261 35.8947 34.5954 36.5194 36.037 36.5194C37.4096 36.5194 38.7343 35.9442 39.6719 34.9414C40.0578 34.5288 40.0359 33.8815 39.6233 33.4954C39.2106 33.1094 38.5632 33.1315 38.1774 33.544C37.6172 34.1433 36.8569 34.4733 36.037 34.4733C35.1882 34.4733 34.3817 34.1054 33.8245 33.4639Z" fill="#434343"/>
<path d="M28.4225 39.2315C28.0959 39.4665 27.9321 39.5844 27.5039 39.5844C26.9388 39.5844 26.481 40.0422 26.481 40.6074C26.481 41.1725 26.9388 41.6303 27.5039 41.6303C28.5919 41.6303 29.1847 41.2036 29.6176 40.892C29.9441 40.657 30.1079 40.5392 30.5361 40.5392C30.9642 40.5392 31.1282 40.657 31.4546 40.892C31.8875 41.2036 32.4805 41.6303 33.5682 41.6303C34.1333 41.6303 34.5912 41.1725 34.5912 40.6074C34.5912 40.0422 34.1333 39.5844 33.5682 39.5844C33.1399 39.5844 32.9761 39.4665 32.6497 39.2315C32.2168 38.92 31.6239 38.4932 30.5361 38.4932C29.4483 38.4932 28.8554 38.92 28.4225 39.2315Z" fill="#434343"/>
</g>
<defs>
<clipPath id="clip0">
<rect width="70" height="70" fill="white"/>
</clipPath>
</defs>
</svg>
