<svg width="44" height="45" viewBox="0 0 44 45" fill="none" xmlns="http://www.w3.org/2000/svg">
<g clip-path="url(#clip0)">
<path d="M43.3555 15.2043C43.7115 15.2043 44 14.9158 44 14.5598V10.891C44 10.6808 43.8975 10.4837 43.7253 10.3631C43.553 10.2424 43.3329 10.2133 43.1352 10.2852C40.0458 11.4087 36.2153 12.0529 32.3494 12.0991C28.6354 12.1415 25.2233 11.6129 22.9869 10.6434C22.9838 10.642 22.9807 10.6407 22.9776 10.6395C18.4302 8.75184 13.4958 8.07164 8.31677 8.61666C5.46021 8.89312 2.88183 9.43771 0.434328 10.2817C0.174453 10.3713 0 10.616 0 10.891V34.029C0 34.2374 0.100719 34.4328 0.270359 34.5537C0.439914 34.6747 0.657594 34.7062 0.854648 34.6382C3.20504 33.8277 5.68657 33.3042 8.44637 33.0371C13.4125 32.5143 18.1338 33.1635 22.4789 34.966C24.8867 36.0087 28.2771 36.5237 31.8771 36.5237C35.8736 36.5237 40.1277 35.8883 43.5757 34.6347C43.8304 34.542 44 34.2999 44 34.0289V17.5225C44 17.1665 43.7115 16.878 43.3555 16.878C42.9994 16.878 42.7109 17.1665 42.7109 17.5225V33.5729C39.6987 34.6038 36.0401 35.193 32.3494 35.2371C28.6364 35.2824 25.2233 34.751 22.9869 33.7814C22.9838 33.78 22.9807 33.7787 22.9776 33.7774C18.4302 31.8898 13.4959 31.2096 8.31686 31.7546C5.79064 31.9991 3.48202 32.4533 1.28915 33.1388V11.3542C3.51089 10.6265 5.85613 10.1498 8.44645 9.8991C13.4127 9.37617 18.1338 10.0253 22.4792 11.8281C27.3408 13.9334 36.213 13.8884 42.711 11.7929V14.5597C42.7109 14.9158 42.9994 15.2043 43.3555 15.2043Z" fill="#434343"/>
<path d="M40.3477 29.7488C40.7037 29.7488 40.9922 29.4604 40.9922 29.1043V17.5845C40.9922 17.2284 40.7037 16.9399 40.3477 16.9399C39.3407 16.9399 38.4825 16.2219 38.307 15.2326C38.2462 14.8906 37.9253 14.6586 37.5814 14.7072C31.6618 15.5509 25.6196 15.055 21.8124 13.4125C21.8096 13.4112 21.8066 13.4101 21.8036 13.4088C17.7307 11.7225 13.2971 11.1168 8.62331 11.6088L8.60655 11.6105C7.78396 11.6901 6.97606 11.7953 6.20555 11.9233C6.03212 11.9521 5.87795 12.0505 5.77887 12.1957C5.6797 12.3408 5.6442 12.5203 5.68047 12.6922C5.71012 12.8327 5.72516 12.9774 5.72516 13.1223C5.72516 14.2652 4.7954 15.195 3.65243 15.195C3.29639 15.195 3.0079 15.4835 3.0079 15.8395V21.9662C3.0079 22.3222 3.29639 22.6107 3.65243 22.6107C4.00847 22.6107 4.29696 22.3222 4.29696 21.9662V16.422C5.84332 16.1205 7.01422 14.7555 7.01422 13.1223C7.01422 13.1155 7.01422 13.1085 7.01413 13.1016C7.57221 13.0198 8.14645 12.9501 8.72644 12.894L8.76133 12.8906C13.2142 12.4215 17.4354 12.9963 21.3066 14.5982C25.1974 16.2751 31.2434 16.8253 37.2028 16.0594C37.613 17.1474 38.5614 17.9464 39.7032 18.1676V28.5219C38.1569 28.8234 36.986 30.1884 36.986 31.8217C36.986 31.8333 36.986 31.8449 36.9861 31.8565C35.4649 32.0852 33.8961 32.2106 32.3135 32.2296C29.0068 32.2684 26.0438 31.8284 24.183 31.0216L24.1308 30.9994C20.2386 29.3838 16.0713 28.5646 11.7446 28.5646C10.5175 28.5646 9.26071 28.6311 8.01427 28.762C7.60719 28.8016 7.20105 28.8467 6.80118 28.8968C6.39298 27.8034 5.44294 27.0006 4.29688 26.7789V24.9754C4.29688 24.6193 4.00838 24.3308 3.65234 24.3308C3.2963 24.3308 3.00781 24.6193 3.00781 24.9754V27.3619C3.00781 27.718 3.2963 28.0065 3.65234 28.0065C4.66237 28.0065 5.52105 28.7271 5.69413 29.7201C5.75377 30.0623 6.07406 30.2953 6.41807 30.2478C6.97847 30.1697 7.55734 30.1015 8.14361 30.0446C9.3506 29.9179 10.5621 29.8537 11.7445 29.8537C15.9007 29.8537 19.9018 30.6397 23.6359 32.1897L23.6705 32.2044C25.6111 33.0459 28.5979 33.521 31.915 33.521C32.0524 33.521 32.1904 33.5201 32.3287 33.5185C34.1863 33.4963 36.0268 33.3325 37.7991 33.0317C37.9725 33.0023 38.1263 32.9034 38.2249 32.7578C38.3235 32.6122 38.3584 32.4326 38.3213 32.2607C38.2905 32.1174 38.2748 31.9696 38.2748 31.8217C38.2749 30.6787 39.2047 29.7488 40.3477 29.7488Z" fill="#434343"/>
<path d="M18.2788 23.9629C17.9228 23.9629 17.6343 24.2514 17.6343 24.6074C17.6343 24.9634 17.9228 25.2519 18.2788 25.2519H19.332V26.5668C19.332 26.9228 19.6205 27.2113 19.9765 27.2113C20.3325 27.2113 20.621 26.9228 20.621 26.5668V25.2519H23.9377C24.2937 25.2519 24.5822 24.9634 24.5822 24.6074C24.5822 24.2514 24.2937 23.9629 23.9377 23.9629H20.621V22.716H23.9377C25.2292 22.716 26.2799 21.6653 26.2799 20.3738C26.2799 19.0823 25.2292 18.0316 23.9377 18.0316H19.9765C19.6205 18.0316 19.332 18.32 19.332 18.6761V21.4269H18.2788C17.9228 21.4269 17.6343 21.7154 17.6343 22.0715C17.6343 22.4275 17.9228 22.716 18.2788 22.716H19.332V23.9629H18.2788ZM20.621 19.3207H23.9377C24.5185 19.3207 24.9909 19.7931 24.9909 20.3739C24.9909 20.9546 24.5185 21.427 23.9377 21.427H20.621V19.3207Z" fill="#434343"/>
<path d="M13.8543 20.4781C13.8543 19.1651 12.7861 18.0969 11.4732 18.0969C10.1602 18.0969 9.09204 19.1651 9.09204 20.4781C9.09204 21.791 10.1602 22.8592 11.4732 22.8592C12.7861 22.8592 13.8543 21.7911 13.8543 20.4781ZM10.3811 20.4781C10.3811 19.8759 10.871 19.386 11.4732 19.386C12.0754 19.386 12.5653 19.8759 12.5653 20.4781C12.5653 21.0802 12.0754 21.5702 11.4732 21.5702C10.871 21.5702 10.3811 21.0802 10.3811 20.4781Z" fill="#434343"/>
<path d="M34.8221 24.4859C34.8221 23.1729 33.7539 22.1047 32.441 22.1047C31.128 22.1047 30.0598 23.1729 30.0598 24.4859C30.0598 25.7988 31.128 26.8671 32.441 26.8671C33.7539 26.8671 34.8221 25.7988 34.8221 24.4859ZM31.3489 24.4859C31.3489 23.8837 31.8388 23.3938 32.441 23.3938C33.0431 23.3938 33.5331 23.8837 33.5331 24.4859C33.5331 25.0881 33.0431 25.578 32.441 25.578C31.8388 25.578 31.3489 25.0881 31.3489 24.4859Z" fill="#434343"/>
</g>
<defs>
<clipPath id="clip0">
<rect width="44" height="44" fill="white" transform="translate(0 0.479248)"/>
</clipPath>
</defs>
</svg>
