<svg width="59" height="59" viewBox="0 0 59 59" fill="none" xmlns="http://www.w3.org/2000/svg">
<g clip-path="url(#clip0)">
<path d="M55.9405 29.3565H57.8478C58.4841 29.3565 59.0001 28.8406 59.0001 28.2042C59.0001 27.5677 58.4842 27.0518 57.8478 27.0518H54.3446L56.75 24.6464C57.2 24.1964 57.2 23.4668 56.75 23.0168C56.3002 22.5668 55.5707 22.5668 55.1203 23.0168L52.9574 25.1796L50.6152 21.9C50.0364 21.0895 49.3474 20.4098 48.5819 19.8688L50.8763 19.5031C53.8519 19.0286 56.0115 16.4974 56.0115 13.4842C56.0115 10.1236 53.2773 7.3895 49.9166 7.3895C46.9035 7.3895 44.3724 9.54922 43.8979 12.5247L43.889 12.5808L43.88 12.5247C43.4055 9.54922 40.8743 7.3895 37.8613 7.3895C35.8107 7.3895 33.9947 8.40852 32.8894 9.9658C28.6849 6.17286 22.8557 5.17631 17.6228 7.37371C17.036 7.6202 16.7601 8.29559 17.0065 8.88236C17.2529 9.46902 17.9281 9.74489 18.5152 9.49864C22.9663 7.6293 27.9328 8.50854 31.4761 11.7932L31.9058 12.1915C31.8154 12.6085 31.7665 13.0406 31.7665 13.4841C31.7665 16.4972 33.9261 19.0285 36.9016 19.5029L39.0397 19.8438C36.7754 21.3654 35.4021 23.8949 35.4021 26.7747C35.4021 29.1676 36.4109 31.3279 38.0238 32.8576H32.147C31.6893 30.2012 29.6774 28.0697 27.0844 27.4367C27.9452 26.1665 28.4255 24.651 28.4255 23.0878C28.4255 18.8167 24.9509 15.3421 20.6798 15.3421C20.0434 15.3421 19.5275 15.858 19.5275 16.4944C19.5275 17.1308 20.0434 17.6467 20.6798 17.6467C23.6801 17.6467 26.1208 20.0876 26.1208 23.0878C26.1208 24.7121 25.4216 26.2077 24.1901 27.2446H23.3927C22.7562 27.2446 22.2403 27.7605 22.2403 28.397C22.2403 29.0334 22.7562 29.5493 23.3927 29.5493H25.4801C27.5413 29.5493 29.2798 30.9549 29.7891 32.8577H23.2148C16.5141 32.8576 11.0626 27.4061 11.0626 20.7053C11.0626 19.076 11.3585 17.5184 11.9423 16.0755C12.1809 15.4855 11.8962 14.8138 11.3062 14.5751C10.7162 14.3364 10.0445 14.6211 9.80574 15.2111C9.47375 16.0316 9.22092 16.8819 9.04623 17.7559C3.72067 19.1614 -0.0474943 24.0476 0.000327971 29.6159C0.0577147 36.2607 5.56799 41.6665 12.2839 41.6665H27.3638C29.7915 41.6665 31.7666 43.6417 31.7666 46.0694C31.7666 48.4972 29.7915 50.4722 27.3638 50.4722H21.2608C20.6244 50.4722 20.1085 50.9881 20.1085 51.6245C20.1085 52.261 20.6244 52.7769 21.2608 52.7769H27.3638C31.0623 52.7769 34.0713 49.7679 34.0713 46.0694C34.0713 42.371 31.0623 39.3619 27.3638 39.3619H12.2839C6.82785 39.3619 2.35145 34.981 2.30513 29.5962C2.26895 25.3925 4.91553 21.6692 8.76505 20.2578C8.76079 20.4066 8.75791 20.5556 8.75791 20.7054C8.75791 28.677 15.2432 35.1623 23.2148 35.1623H47.9589L46.6951 36.4259C46.2451 36.8759 46.2451 37.6056 46.6951 38.0556C46.9202 38.2806 47.2151 38.3931 47.51 38.3931C47.8048 38.3931 48.0997 38.2805 48.3248 38.0556L51.0842 35.2962V37.3728C51.0842 38.0092 51.6002 38.5251 52.2365 38.5251C52.8729 38.5251 53.3889 38.0092 53.3889 37.3728V35.1621H57.8478C58.2794 35.1621 58.6749 34.921 58.8724 34.5371C59.0699 34.1533 59.0364 33.6913 58.7855 33.3401L55.9405 29.3565ZM46.1738 12.8874C46.4689 11.0371 48.043 9.69407 49.9166 9.69407C52.0065 9.69407 53.7068 11.3942 53.7068 13.4841C53.7068 15.3578 52.3639 16.9319 50.5134 17.2268L45.3508 18.0499L46.1738 12.8874ZM34.0713 13.4842C34.0713 11.3944 35.7715 9.69419 37.8614 9.69419C39.7351 9.69419 41.3092 11.0372 41.6042 12.8876L42.4272 18.0501L37.2646 17.2269C35.4143 16.9321 34.0713 15.358 34.0713 13.4842ZM43.7896 32.8576C40.4356 32.8576 37.7069 30.1288 37.7069 26.7747C37.7069 23.5023 39.8902 21.6367 41.9335 20.982C42.5288 20.7913 43.1933 20.6772 43.8834 20.6772C45.5622 20.6772 47.392 21.3521 48.7399 23.2394L55.6089 32.8574H43.7896V32.8576Z" fill="#434343"/>
<path d="M44.6129 25.2427C44.3098 25.2427 44.0125 25.366 43.7983 25.5803C43.584 25.7946 43.4606 26.092 43.4606 26.395C43.4606 26.6981 43.5839 26.9954 43.7983 27.2097C44.0125 27.4241 44.3098 27.5474 44.6129 27.5474C44.9161 27.5474 45.2133 27.4241 45.4276 27.2097C45.642 26.9954 45.7653 26.6981 45.7653 26.395C45.7653 26.092 45.6421 25.7946 45.4276 25.5803C45.2133 25.366 44.9161 25.2427 44.6129 25.2427Z" fill="#434343"/>
<path d="M13.7569 12.469C14.06 12.469 14.3561 12.3457 14.5716 12.1314C14.7859 11.917 14.9092 11.6197 14.9092 11.3167C14.9092 11.0124 14.7859 10.7163 14.5716 10.5019C14.3561 10.2865 14.06 10.1643 13.7569 10.1643C13.4527 10.1643 13.1554 10.2865 12.941 10.5019C12.7267 10.7163 12.6034 11.0124 12.6034 11.3167C12.6034 11.6197 12.7267 11.917 12.941 12.1314C13.1554 12.3456 13.4527 12.469 13.7569 12.469Z" fill="#434343"/>
</g>
<defs>
<clipPath id="clip0">
<rect width="59" height="59" fill="white"/>
</clipPath>
</defs>
</svg>
