<svg width="70" height="70" viewBox="0 0 70 70" fill="none" xmlns="http://www.w3.org/2000/svg">
<path d="M58.8232 5.46875C52.7373 5.46875 47.7755 10.3589 47.6524 16.4158C47.5371 16.4097 47.4213 16.4062 47.3047 16.4062H44.2285V14.6973C44.2285 12.6242 42.542 10.9375 40.4688 10.9375H38.7598V7.51953H43.2031C45.2763 7.51953 46.9629 5.83283 46.9629 3.75977C46.9629 1.6867 45.2763 0 43.2031 0H26.7969C24.7237 0 23.0371 1.6867 23.0371 3.75977C23.0371 5.83283 24.7237 7.51953 26.7969 7.51953H31.2402V10.9375H29.5312C27.458 10.9375 25.7715 12.6242 25.7715 14.6973V16.4062H22.6953C19.1145 16.4062 16.2012 19.3196 16.2012 22.9004V58.3789H14.5947C11.8243 58.3789 9.57031 56.125 9.57031 53.3545V49.681C11.4838 49.5076 12.9883 47.8953 12.9883 45.9375V32.2656C12.9883 30.548 11.83 29.0968 10.2539 28.6491V10.7615C10.2539 8.68 11.0645 6.72328 12.5363 5.25137C13.1173 4.67031 13.4373 3.89785 13.4373 3.07617C13.4373 2.25436 13.1172 1.48203 12.5363 0.901113C11.9554 0.320059 11.1828 0 10.3611 0C9.53941 0 8.76695 0.320059 8.1859 0.900977C4.67045 4.41643 2.73438 9.09057 2.73438 14.0622V28.6491C1.15828 29.0968 0 30.548 0 32.2656V45.9375C0 47.8953 1.50445 49.5076 3.41797 49.681V53.3545C3.41797 59.5174 8.43186 64.5312 14.5947 64.5312H16.2829C16.7761 67.6266 19.4634 70 22.6953 70H47.3047C50.5366 70 53.2239 67.6266 53.7171 64.5312H58.8232C64.9861 64.5312 70 59.5174 70 53.3545V16.6455C70 10.4826 64.9861 5.46875 58.8232 5.46875ZM25.0879 3.75977C25.0879 2.81736 25.8545 2.05078 26.7969 2.05078H43.2031C44.1455 2.05078 44.9121 2.81736 44.9121 3.75977C44.9121 4.70217 44.1455 5.46875 43.2031 5.46875H26.7969C25.8545 5.46875 25.0879 4.70217 25.0879 3.75977ZM33.291 7.51953H36.709V10.9375H33.291V7.51953ZM27.8223 14.6973C27.8223 13.7549 28.5888 12.9883 29.5312 12.9883H40.4688C41.4112 12.9883 42.1777 13.7549 42.1777 14.6973V16.4062H27.8223V14.6973ZM22.6953 18.457H47.3047C49.7547 18.457 51.748 20.4503 51.748 22.9004V24.4043H25.722C25.1557 24.4043 24.6966 24.8633 24.6966 25.4297C24.6966 25.9961 25.1557 26.4551 25.722 26.4551H51.748V59.9512H18.252V26.4551H21.6204C22.1867 26.4551 22.6458 25.9961 22.6458 25.4297C22.6458 24.8633 22.1867 24.4043 21.6204 24.4043H18.252V22.9004C18.252 20.4503 20.2453 18.457 22.6953 18.457ZM9.63608 2.35102C9.82981 2.15742 10.0872 2.05078 10.3612 2.05078C10.6351 2.05078 10.8925 2.15742 11.0862 2.35115C11.28 2.54475 11.3865 2.80219 11.3865 3.07617C11.3865 3.35002 11.2798 3.6076 11.0861 3.80133C9.22701 5.66043 8.20312 8.1323 8.20312 10.7615V28.5059H4.78516V14.0622C4.78516 9.63826 6.50795 5.47928 9.63608 2.35102ZM2.05078 45.9375V32.2656C2.05078 31.3232 2.81736 30.5566 3.75977 30.5566H9.22852C10.1709 30.5566 10.9375 31.3232 10.9375 32.2656V45.9375C10.9375 46.8799 10.1709 47.6465 9.22852 47.6465H3.75977C2.81736 47.6465 2.05078 46.8799 2.05078 45.9375ZM5.46875 53.3545V49.6973H7.51953V53.3545C7.51953 57.2558 10.6935 60.4297 14.5947 60.4297H16.2012V62.4805H14.5947C9.56266 62.4805 5.46875 58.3866 5.46875 53.3545ZM47.3047 67.9492H22.6953C20.2453 67.9492 18.252 65.956 18.252 63.5059V62.002H51.748V63.5059C51.748 65.956 49.7547 67.9492 47.3047 67.9492ZM67.9492 53.3545C67.9492 58.3866 63.8553 62.4805 58.8232 62.4805H53.7988V60.4297H58.8232C62.7245 60.4297 65.8984 57.2558 65.8984 53.3545V45.2539C65.8984 44.6875 65.4393 44.2285 64.873 44.2285C64.3068 44.2285 63.8477 44.6875 63.8477 45.2539V53.3545C63.8477 56.125 61.5937 58.3789 58.8232 58.3789H53.7988V16.6455C53.7988 13.875 56.0528 11.6211 58.8232 11.6211C61.5937 11.6211 63.8477 13.875 63.8477 16.6455V41.1523C63.8477 41.7188 64.3068 42.1777 64.873 42.1777C65.4393 42.1777 65.8984 41.7188 65.8984 41.1523V16.6455C65.8984 12.7442 62.7245 9.57031 58.8232 9.57031C54.922 9.57031 51.748 12.7442 51.748 16.6455V18.1707C51.1572 17.6153 50.463 17.1696 49.6973 16.8649V16.6455C49.6973 11.6134 53.7912 7.51953 58.8232 7.51953C63.8553 7.51953 67.9492 11.6134 67.9492 16.6455V53.3545Z" fill="#434343"/>
</svg>
