<svg width="59" height="59" viewBox="0 0 59 59" fill="none" xmlns="http://www.w3.org/2000/svg">
<g clip-path="url(#clip0)">
<path d="M58.9666 14.0764C58.9615 14.0266 58.9523 13.9772 58.939 13.9289C58.644 12.5277 56.4355 11.7115 52.4264 10.3752C50.3307 9.72958 48.1509 9.3982 45.9581 9.39182C45.4595 7.48022 44.1517 5.40834 41.3 5.40834C40.1749 5.39784 39.1306 5.99168 38.5644 6.96397C38.0398 7.88903 37.7799 8.94056 37.8131 10.0035C37.8131 10.0615 37.8131 10.1195 37.819 10.1775C37.3273 10.3535 36.8298 10.5384 36.3184 10.738C34.6901 11.4198 33.0012 11.9466 31.2739 12.3113C29.397 12.7031 27.4528 12.6312 25.6099 12.1019C23.3409 11.5627 21.0156 11.2963 18.6833 11.3083C11.0655 11.3083 0 17.821 0 28.025C0 36.0765 1.2567 40.0404 4.43483 41.8713C5.14972 45.3602 6.7024 48.9513 10.0113 50.3477C14.158 52.1806 20.7218 51.982 29.0319 51.7332C32.4087 51.6348 35.9035 51.5365 39.6569 51.5365C42.2135 51.5483 48.2119 51.5768 51.2051 52.8394C52.3944 53.3415 53.7672 52.8047 54.3004 51.629C54.8336 50.4533 54.333 49.0669 53.1718 48.5029C48.3653 46.1577 39.0118 45.8912 29.9759 45.6336C24.1487 45.4674 18.643 45.311 15.2043 44.5814C14.4204 44.4381 13.6624 44.1782 12.9554 43.8105C12.6601 43.3542 12.4381 42.8545 12.2976 42.3296C14.122 41.8495 15.9086 41.2359 17.643 40.4937C17.9508 41.1161 18.2546 41.7877 18.5132 42.4712C18.7975 43.2432 19.5323 43.7568 20.355 43.7583H29.0477C29.7332 43.7589 30.3695 43.4024 30.7271 42.8175C31.0847 42.2327 31.1119 41.5038 30.799 40.8939C29.8029 38.94 28.2935 37.8583 26.55 37.8583C25.0662 37.8583 24.25 37.8003 23.8714 37.1916C24.2136 36.9458 24.5322 36.7098 24.8174 36.4945C26.3907 35.2977 27.2639 34.6389 31.6289 33.9112C31.6604 33.9112 31.6919 33.8994 31.7273 33.8935C33.8984 34.7742 35.9041 36.0175 37.6587 37.5702C38.572 38.4604 39.2827 39.5371 39.7424 40.7267C40.1485 41.6865 40.6117 42.775 42.2833 42.775H47.0033C47.6427 42.7743 48.2424 42.4653 48.614 41.9451C48.9806 41.4414 49.0776 40.7902 48.8736 40.2016C48.3615 38.6351 47.122 37.4139 45.548 36.9252C43.8409 36.3568 41.8546 32.8935 40.5045 29.4715C41.7108 28.3356 42.64 26.9377 43.2205 25.3857C44.0238 22.9628 44.5381 22.125 49.1667 22.125C54.4914 22.125 58.9017 17.0294 58.9912 14.3468C58.9912 14.3321 58.9912 14.3173 58.9961 14.3016C59.001 14.2859 58.9961 14.2721 58.9961 14.2583C58.9897 14.1972 58.9799 14.1364 58.9666 14.0764ZM14.7992 46.5117C18.4119 47.2777 24.0032 47.437 29.9219 47.6061C38.3421 47.8451 47.8854 48.1175 52.3114 50.2769C52.5205 50.3711 52.6136 50.617 52.5193 50.826C52.4251 51.0351 52.1792 51.1283 51.9702 51.034C49.0123 49.7862 44.0907 49.5964 39.6647 49.5757H39.0531C35.4964 49.5757 32.1825 49.6741 28.972 49.7724C20.9135 50.0153 14.5455 50.208 10.7911 48.5472C8.00335 47.3672 6.79188 43.8478 6.26777 40.9647C6.26285 40.9499 6.26777 40.9332 6.25892 40.9185C6.12813 40.1957 6.03767 39.5113 5.97867 38.9194C5.90272 38.1485 6.3038 37.4092 6.99135 37.0525C7.67891 36.6958 8.51435 36.7938 9.10075 37.2998C9.51095 37.6586 9.74938 38.1748 9.75663 38.7197C9.80088 39.7188 10.0516 43.1221 11.3398 44.9305C11.9269 45.8233 13.9555 46.3298 14.7992 46.5117ZM49.1667 20.1583C43.835 20.1583 42.48 21.3649 41.3502 24.7643C40.9866 25.7293 40.4441 26.6171 39.7513 27.3809C39.5792 26.8391 39.4277 26.314 39.3038 25.8194C39.2205 25.4764 38.9597 25.2044 38.6205 25.1066C38.2813 25.0089 37.9158 25.1005 37.6627 25.3466C37.4097 25.5927 37.3079 25.9555 37.3962 26.2973C37.677 27.3819 38.0148 28.4509 38.408 29.5C38.4159 29.5246 38.4247 29.5472 38.4346 29.5718C39.825 33.3085 42.1988 37.8839 44.9246 38.7915C45.9055 39.0836 46.6817 39.8367 47.0033 40.8083H42.2833C41.9126 40.8083 41.9126 40.8083 41.5468 39.9538C40.987 38.5342 40.1347 37.2483 39.0452 36.1798C35.9664 33.101 30.0605 31.1087 29.8107 31.0252C29.5632 30.9427 29.2931 30.9619 29.0598 31.0787C28.8265 31.1954 28.6492 31.4001 28.5668 31.6476C28.4751 31.9346 28.5224 32.248 28.6947 32.4952C26.8707 32.8613 25.1653 33.672 23.7298 34.8552C23.885 34.1535 24.0753 33.4601 24.3001 32.7775C25.0298 30.4499 25.9364 27.553 24.4801 24.6394C22.2027 20.0816 15.7383 18.1917 12.7833 18.1917C12.2403 18.1917 11.8 18.6319 11.8 19.175C11.8 19.7181 12.2403 20.1583 12.7833 20.1583C15.3882 20.1583 20.9371 21.948 22.7199 25.5146C23.8222 27.7182 23.1133 29.9897 22.4249 32.1855C21.9795 33.375 21.7127 34.624 21.6333 35.8917C21.6338 36.2483 21.6667 36.6041 21.7317 36.9547C21.7317 36.9822 21.7395 37.0087 21.7454 37.0363C22.2961 39.8171 24.9118 39.825 26.55 39.825C27.5442 39.825 28.3839 40.4848 29.0477 41.7917L20.355 41.775C19.9686 40.7752 19.5216 39.7999 19.0167 38.8545C19.0171 38.8482 19.0171 38.842 19.0167 38.8358C19.0108 38.823 18.999 38.8151 18.9931 38.8023C18.2448 37.3932 17.584 36.3961 17.5397 36.3293C17.3447 36.037 17.0086 35.8709 16.658 35.8936C16.3074 35.9163 15.9955 36.1244 15.8399 36.4394C15.6842 36.7544 15.7085 37.1285 15.9035 37.4208C15.9113 37.4316 16.2545 37.9508 16.7177 38.7551C15.1521 39.4179 13.542 39.9702 11.8993 40.4081C11.8108 39.7876 11.7528 39.1731 11.7282 38.6283C11.6994 37.5565 11.226 36.545 10.4215 35.8362C9.61703 35.1275 8.55398 34.7852 7.4871 34.8916C5.42878 35.0856 3.89473 36.8763 4.01888 38.94C2.83397 37.3834 1.96667 34.3862 1.96667 28.025C1.96667 19.0206 11.8669 13.275 18.6833 13.275C20.8752 13.2614 23.0606 13.513 25.192 14.0243C27.3002 14.6108 29.518 14.6843 31.6604 14.2387C33.4996 13.8505 35.2985 13.2908 37.0333 12.567C37.3952 12.4264 37.7462 12.2887 38.0934 12.1609C38.6765 14.3891 40.1525 16.225 42.2833 16.225C42.8264 16.225 43.2667 15.7848 43.2667 15.2417C43.2667 14.6986 42.8264 14.2583 42.2833 14.2583C40.8083 14.2583 39.7798 12.0163 39.7798 10.0035C39.751 9.30622 39.9092 8.61397 40.238 7.99844C40.4447 7.6056 40.8563 7.36398 41.3 7.37501C44.1871 7.37501 44.25 11.1294 44.25 11.3083C44.2521 11.8359 44.6721 12.2668 45.1994 12.2825C45.7267 12.2981 46.1715 11.8929 46.2049 11.3664C48.1055 11.3873 49.9932 11.6817 51.8099 12.2405C52.6546 12.5218 53.7598 12.8915 54.7451 13.2652C54.6125 13.3511 54.4886 13.4499 54.3754 13.5602C54.0027 13.946 54.0081 14.5593 54.3874 14.9386C54.7667 15.3179 55.38 15.3233 55.7658 14.9506C55.9704 14.7461 56.4443 14.7805 56.8839 14.8896C56.1749 16.7029 52.982 20.1583 49.1667 20.1583Z" fill="#434343"/>
<path d="M48.1833 13.275H47.2C46.6569 13.275 46.2167 13.7153 46.2167 14.2584C46.2167 14.8014 46.6569 15.2417 47.2 15.2417H48.1833C48.7264 15.2417 49.1667 14.8014 49.1667 14.2584C49.1667 13.7153 48.7264 13.275 48.1833 13.275Z" fill="#434343"/>
</g>
<defs>
<clipPath id="clip0">
<rect width="59" height="59" fill="white"/>
</clipPath>
</defs>
</svg>
