<svg width="60" height="60" viewBox="0 0 60 60" fill="none" xmlns="http://www.w3.org/2000/svg">
<g clip-path="url(#clip0)">
<path d="M46.0755 23.0824C45.8659 22.9572 45.6499 22.8378 45.4342 22.7276C44.8381 22.4229 44.1081 22.6594 43.8035 23.2554C43.4989 23.8514 43.7353 24.5816 44.3313 24.8861C44.4997 24.9722 44.6684 25.0654 44.8326 25.1635C45.0272 25.2798 45.2413 25.3351 45.4529 25.3351C45.8654 25.3351 46.2676 25.1243 46.4945 24.7444C46.8378 24.1698 46.6502 23.4256 46.0755 23.0824Z" fill="#434343"/>
<path d="M14.4937 31.9174C13.8244 31.9174 13.2817 32.4599 13.2817 33.1293V34.4492C13.2817 35.1186 13.8243 35.6612 14.4937 35.6612C15.1631 35.6612 15.7056 35.1186 15.7056 34.4492V33.1293C15.7056 32.46 15.163 31.9174 14.4937 31.9174Z" fill="#434343"/>
<path d="M55.5095 17.6446C52.7785 14.9137 49.1476 13.4098 45.2858 13.4098C43.5514 13.4098 41.8015 13.5148 40.0843 13.7216C38.3661 13.9288 36.642 14.2418 34.9596 14.6518C34.3093 14.8104 33.9106 15.4659 34.0691 16.1162C34.2276 16.7665 34.8832 17.1651 35.5335 17.0068C37.1227 16.6195 38.7515 16.3239 40.3743 16.1281C41.9955 15.9328 43.6479 15.8336 45.2857 15.8336C48.5001 15.8336 51.5223 17.0855 53.7953 19.3582C56.0686 21.6326 57.3205 24.6553 57.3205 27.8694C57.3205 30.7808 55.3578 33.127 52.7015 33.5947C52.4654 31.2185 51.6229 29.0052 50.1801 26.9952C49.8159 26.4879 49.4343 26.0104 49.0462 25.576C48.6002 25.0768 47.8343 25.0334 47.3349 25.4794C46.8357 25.9252 46.7925 26.6913 47.2384 27.1907C47.5695 27.5614 47.8968 27.9714 48.2111 28.409C51.8551 33.4857 50.0304 38.9491 48.6186 41.7536C47.8158 43.347 46.2114 44.3369 44.4312 44.3369H32.4956C32.9486 43.3937 33.913 42.7411 35.027 42.7411H38.2284C38.3148 42.7411 38.3991 42.7316 38.4802 42.7146C39.0782 42.6401 39.5413 42.1311 39.5413 41.513C39.5413 40.8437 38.9988 40.3011 38.3294 40.3011C38.294 40.3011 38.2599 40.3012 38.2238 40.3003C37.8261 40.2899 37.4354 40.2226 37.0581 40.0992C36.4507 39.9027 35.8881 39.5573 35.4312 39.1003C34.6569 38.326 34.2304 37.2964 34.2304 36.2009C34.2304 32.5002 37.2411 29.4895 40.9418 29.4895C41.6112 29.4895 42.1537 28.947 42.1537 28.2776C42.1537 27.6082 41.6112 27.0656 40.9418 27.0656C35.9046 27.0656 31.8065 31.1637 31.8065 36.2009C31.8065 37.6007 32.2451 38.9328 33.056 40.0414H28.2358V38.7583V37.7939C28.2358 37.1245 27.6933 36.5819 27.0239 36.5819C26.3545 36.5819 25.8119 37.1245 25.8119 37.7939V38.7583V41.2534V43.5401C25.8119 43.8273 25.5788 44.061 25.2922 44.061H22.4165H19.6097C20.0627 43.1178 21.0271 42.4652 22.1411 42.4652H22.4157C22.4164 42.4652 22.4172 42.4652 22.4179 42.4652C22.459 42.4652 22.4996 42.463 22.5398 42.4589C22.5459 42.4583 22.5517 42.4569 22.5578 42.4562C22.5914 42.4523 22.6249 42.4476 22.6576 42.4409C22.6707 42.4382 22.6832 42.4344 22.6961 42.4313C22.7213 42.4253 22.7466 42.4196 22.771 42.4121C22.7871 42.4071 22.8024 42.401 22.8182 42.3955C22.8389 42.3882 22.8597 42.3813 22.8798 42.3729C22.8968 42.3659 22.9132 42.3576 22.9299 42.3497C22.948 42.3412 22.9662 42.3331 22.9838 42.3238C23.0006 42.3149 23.0167 42.3049 23.033 42.2953C23.0496 42.2854 23.0664 42.2759 23.0826 42.2652C23.0984 42.2548 23.1134 42.2436 23.1286 42.2324C23.1443 42.221 23.1603 42.2096 23.1753 42.1975C23.1898 42.186 23.2033 42.1737 23.2172 42.1616C23.232 42.1484 23.247 42.1354 23.2613 42.1216C23.2742 42.109 23.2864 42.0959 23.2988 42.0827C23.3127 42.068 23.3267 42.053 23.3399 42.0377C23.3513 42.0242 23.362 42.0104 23.3729 41.9964C23.3855 41.9801 23.3982 41.9637 23.4101 41.9466C23.4201 41.9322 23.4296 41.9176 23.439 41.9026C23.4502 41.885 23.461 41.8675 23.4714 41.8493C23.4803 41.8337 23.4883 41.8179 23.4965 41.802C23.5058 41.7837 23.5149 41.7652 23.5232 41.7464C23.5307 41.7295 23.5376 41.7126 23.5444 41.6953C23.5518 41.6765 23.5589 41.6576 23.5653 41.6384C23.5714 41.6202 23.5769 41.6017 23.5821 41.5832C23.5874 41.5642 23.5925 41.5449 23.597 41.5253C23.6015 41.506 23.6054 41.4865 23.6089 41.4668C23.6124 41.4472 23.6154 41.4274 23.618 41.4076C23.6205 41.3878 23.6226 41.3678 23.6242 41.3475C23.6249 41.3375 23.6267 41.3278 23.6272 41.3177C23.6278 41.3066 23.627 41.296 23.6273 41.285C23.6275 41.2741 23.6289 41.2638 23.6289 41.2529C23.6289 41.2434 23.6278 41.234 23.6274 41.2245C23.627 41.2026 23.6257 41.1807 23.6242 41.1591C23.6227 41.1401 23.621 41.1212 23.6187 41.1024C23.616 41.081 23.6127 41.0598 23.609 41.0387C23.6056 41.0199 23.602 41.0014 23.5978 40.9829C23.5932 40.9626 23.588 40.9428 23.5824 40.9229C23.5771 40.9041 23.5714 40.8856 23.5653 40.8671C23.559 40.8484 23.5522 40.83 23.545 40.8117C23.5378 40.793 23.5302 40.7746 23.522 40.7564C23.5143 40.7391 23.5058 40.722 23.4973 40.7052C23.4881 40.6871 23.4786 40.6693 23.4686 40.6517C23.4593 40.6355 23.4496 40.6196 23.4396 40.6039C23.4288 40.587 23.4178 40.5702 23.4062 40.5538C23.3952 40.5383 23.3839 40.5234 23.3724 40.5085C23.3603 40.4928 23.348 40.4776 23.3349 40.4625C23.3224 40.448 23.3094 40.4338 23.2961 40.4198C23.2827 40.4058 23.2694 40.392 23.2554 40.3786C23.2413 40.3649 23.2265 40.3518 23.2116 40.3389C23.1975 40.3265 23.1831 40.3144 23.1683 40.3027C23.1525 40.2902 23.1363 40.2783 23.1199 40.2665C23.1048 40.2557 23.0894 40.2451 23.0737 40.235C23.0568 40.224 23.0393 40.2136 23.0219 40.2036C23.0055 40.1941 22.989 40.1849 22.9722 40.1763C22.9543 40.1671 22.9363 40.1584 22.9181 40.1502C22.9003 40.1422 22.8825 40.1343 22.8643 40.1272C22.8461 40.1199 22.8276 40.1132 22.8089 40.1069C22.7897 40.1003 22.7704 40.0942 22.7507 40.0886C22.7321 40.0833 22.7135 40.0786 22.6946 40.0742C22.6741 40.0693 22.6533 40.0651 22.6326 40.0614C22.6136 40.058 22.5944 40.055 22.5752 40.0526C22.554 40.0499 22.5328 40.0477 22.5114 40.0459C22.5017 40.0452 22.4922 40.0434 22.4825 40.0429L12.2594 39.4963C10.4246 39.4066 8.68291 38.6601 7.35504 37.3942C6.02648 36.1278 5.19747 34.4245 5.02013 32.596C5.01575 32.5521 5.02589 32.511 5.05424 32.4679C5.06979 32.4439 5.10586 32.4014 5.1742 32.3869L20.1345 29.2034C20.1347 29.2034 20.1351 29.2033 20.1353 29.2033C20.6707 29.0897 21.2146 28.9624 21.7978 28.8143C24.3085 28.1767 26.7251 27.3485 29.0622 26.5475C33.535 25.0146 37.7595 23.5669 41.3332 23.9908C41.9973 24.0699 42.6007 23.5948 42.6794 22.9301C42.7583 22.2655 42.2833 21.6627 41.6188 21.584C37.4964 21.0944 33.0179 22.6297 28.2764 24.2547C26.377 24.9056 24.4231 25.5732 22.4348 26.1326C21.5006 22.2133 18.4644 20.6757 16.8678 20.412C16.5164 20.3538 16.1576 20.4534 15.8862 20.6836C15.6147 20.9139 15.4582 21.2517 15.4582 21.6077L15.4582 27.7204L4.67073 30.0159C4.43415 30.066 4.21059 30.1489 4.00213 30.2571L2.69385 29.2541C2.16273 28.8467 1.40194 28.9473 0.994698 29.4786C0.587453 30.0098 0.687939 30.7705 1.21918 31.1777L2.61849 32.2506C2.59406 32.4428 2.58876 32.6376 2.60777 32.8318C2.8409 35.2375 3.93287 37.4809 5.68262 39.1488C7.43156 40.8161 9.72522 41.7994 12.1355 41.917L17.8951 42.2251C17.2772 43.084 16.9118 44.1362 16.9118 45.2729C16.9118 45.9423 17.4543 46.4849 18.1237 46.4849H22.4179H25.2936C26.9167 46.4849 28.2372 45.1639 28.2372 43.5401V42.4652H30.8066C30.1732 43.3305 29.7981 44.3965 29.7981 45.5486C29.7981 46.218 30.3406 46.7605 31.01 46.7605L44.4316 46.7605C47.1327 46.7605 49.5666 45.2598 50.7838 42.8436C51.5781 41.2659 52.5358 38.8396 52.7348 36.0406C56.7381 35.5444 59.7447 32.135 59.7447 27.8694C59.7444 24.0084 58.2404 20.3771 55.5095 17.6446ZM17.8811 23.4134H17.8812C18.7114 23.9529 19.6733 24.9447 20.0867 26.7328C19.9339 26.7673 19.782 26.8008 19.6316 26.8327C19.6313 26.8327 19.631 26.8328 19.6307 26.833L17.8812 27.2053V23.4134H17.8811Z" fill="#434343"/>
</g>
<defs>
<clipPath id="clip0">
<rect width="59" height="59" fill="white" transform="translate(0.744507 0.585449)"/>
</clipPath>
</defs>
</svg>
