<svg width="70" height="70" viewBox="0 0 70 70" fill="none" xmlns="http://www.w3.org/2000/svg">
<g clip-path="url(#clip0)">
<path d="M12.8587 6.37549H1.9162C0.859578 6.37549 0 7.23507 0 8.29155V19.2341C0 20.2906 0.859578 21.1501 1.9162 21.1501H12.8587C13.9152 21.1501 14.7748 20.2906 14.7748 19.2341V14.6216C14.7748 14.056 14.3164 13.5974 13.7507 13.5974C13.1849 13.5974 12.7265 14.056 12.7265 14.6216V19.102H2.04824V8.42373H12.7265V9.83183C12.7265 10.3974 13.1849 10.8559 13.7507 10.8559C14.3164 10.8559 14.7748 10.3974 14.7748 9.83183V8.29155C14.7748 7.23507 13.9152 6.37549 12.8587 6.37549Z" fill="#434343"/>
<path d="M31.712 10.4997L28.8565 10.0847L27.5793 7.49708C27.2375 6.80464 26.5456 6.37451 25.7735 6.37451C25.0013 6.37451 24.3092 6.80464 23.9675 7.49708L22.6903 10.0847L19.8348 10.4997C19.0705 10.6107 18.4477 11.1359 18.2092 11.8702C17.9705 12.6046 18.1659 13.3956 18.7186 13.9346L20.785 15.9487L20.2973 18.7929C20.1667 19.5539 20.4737 20.3087 21.0983 20.7625C21.4514 21.0189 21.8643 21.1493 22.2801 21.1493C22.6 21.1493 22.9218 21.0722 23.219 20.9158L25.7732 19.573L28.3273 20.9158C29.011 21.2752 29.8235 21.2163 30.4481 20.7626C31.0727 20.3087 31.3798 19.5541 31.2492 18.793L30.7615 15.9488L32.8279 13.9347C33.3808 13.3957 33.576 12.6049 33.3373 11.8704C33.0992 11.1359 32.4763 10.6107 31.712 10.4997ZM29.3191 14.4947C28.8443 14.9575 28.6279 15.6238 28.7401 16.2771L29.219 19.0703L26.7106 17.7515C26.4173 17.5974 26.0954 17.5202 25.7737 17.5202C25.4519 17.5202 25.1299 17.5972 24.8366 17.7515L22.3282 19.0702L22.8072 16.2772C22.9193 15.6238 22.7029 14.9575 22.2282 14.4947L20.199 12.5166L23.0033 12.1092C23.6593 12.0139 24.2261 11.6022 24.5195 11.0076L25.7739 8.46631L27.0281 11.0076C27.3215 11.6022 27.8885 12.0139 28.5443 12.109L31.3486 12.5166L29.3191 14.4947Z" fill="#434343"/>
<path d="M49.9932 10.4998L47.1375 10.0848L45.8604 7.49722C45.5187 6.80478 44.8268 6.37451 44.0545 6.37451C43.2822 6.37451 42.5903 6.80464 42.2487 7.49708L40.9715 10.0847L38.1159 10.4997C37.3516 10.6107 36.7288 11.1359 36.4902 11.8702C36.2517 12.6046 36.4469 13.3956 36.9997 13.9346L39.0661 15.9488L38.5785 18.7929C38.4479 19.5539 38.7548 20.3086 39.3795 20.7624C40.0042 21.2163 40.8169 21.2749 41.5002 20.9158L44.0543 19.573L46.6085 20.9157C46.9058 21.072 47.2274 21.1492 47.5476 21.1492C47.9633 21.1492 48.3763 21.0189 48.7293 20.7624C49.3539 20.3086 49.6608 19.5539 49.5303 18.7929L49.0425 15.9487L51.1091 13.9346C51.662 13.3956 51.8572 12.6047 51.6185 11.8702C51.3803 11.136 50.7575 10.6108 49.9932 10.4998ZM47.6002 14.4948C47.1254 14.9576 46.909 15.624 47.0212 16.2772L47.5001 19.0703L44.9917 17.7517C44.6984 17.5975 44.3765 17.5204 44.0548 17.5204C43.7329 17.5204 43.411 17.5974 43.1177 17.7517L40.6094 19.0703L41.0884 16.2773C41.2005 15.6241 40.9839 14.9577 40.5093 14.4948L38.48 12.5168L41.2845 12.1093C41.9402 12.014 42.507 11.6024 42.8007 11.0078L44.0549 8.46659L45.3091 11.0078C45.6026 11.6023 46.1695 12.014 46.8254 12.1092L49.6298 12.5168L47.6002 14.4948Z" fill="#434343"/>
<path d="M69.8999 11.8702C69.6613 11.1359 69.0384 10.6107 68.2743 10.4997L65.4188 10.0847L64.1416 7.49708C63.7998 6.80464 63.1079 6.37451 62.3356 6.37451C61.5636 6.37451 60.8715 6.80464 60.5297 7.49708L59.2526 10.0847L56.3971 10.4997C55.6328 10.6107 55.01 11.1359 54.7714 11.8702C54.5327 12.6046 54.7282 13.3956 55.2809 13.9346L57.3473 15.9487L56.8596 18.7929C56.729 19.5539 57.036 20.3087 57.6606 20.7625C58.0137 21.0189 58.4266 21.1493 58.8424 21.1493C59.1623 21.1493 59.484 21.0722 59.7813 20.9158L62.3355 19.573L64.8896 20.9158C65.5735 21.2752 66.3858 21.2163 67.0104 20.7626C67.635 20.3087 67.9421 19.5541 67.8115 18.793L67.3238 15.9488L69.3902 13.9347C69.9433 13.3956 70.1386 12.6047 69.8999 11.8702ZM65.8814 14.4947C65.4066 14.9575 65.1902 15.6238 65.3024 16.2771L65.7813 19.0703L63.2729 17.7515C62.9796 17.5974 62.6577 17.5202 62.336 17.5202C62.0142 17.5202 61.6922 17.5972 61.3989 17.7515L58.8905 19.0702L59.3695 16.2772C59.4816 15.6238 59.2651 14.9575 58.7905 14.4947L56.7612 12.5166L59.5656 12.1092C60.2215 12.0139 60.7884 11.6022 61.0818 11.0076L62.3361 8.46631L63.5904 11.0076C63.8838 11.6022 64.4508 12.0139 65.1066 12.109L67.9109 12.5166L65.8814 14.4947Z" fill="#434343"/>
<path d="M70.2286 32.4957C69.99 31.7613 69.3671 31.2362 68.6029 31.1252L65.7474 30.7102L64.4703 28.1226C64.1285 27.4301 63.4366 27 62.6643 27C61.8922 27 61.2002 27.4301 60.8584 28.1226L59.5812 30.7102L56.7257 31.1252C55.9614 31.2362 55.3386 31.7613 55.1001 32.4957C54.8614 33.2301 55.0568 34.0211 55.6096 34.5601L57.676 36.5742L57.1882 39.4184C57.0577 40.1793 57.3646 40.9342 57.9892 41.3879C58.3423 41.6444 58.7552 41.7748 59.171 41.7748C59.491 41.7748 59.8127 41.6976 60.11 41.5413L62.6641 40.1985L65.2183 41.5413C65.9021 41.9007 66.7144 41.8418 67.339 41.3881C67.9636 40.9342 68.2707 40.1796 68.1402 39.4185L67.6524 36.5743L69.7188 34.5602C70.272 34.0211 70.4672 33.2302 70.2286 32.4957ZM66.21 35.1202C65.7353 35.583 65.5188 36.2493 65.6311 36.9026L66.1099 39.6958L63.6015 38.377C63.3082 38.2229 62.9864 38.1457 62.6647 38.1457C62.3428 38.1457 62.0208 38.2227 61.7275 38.377L59.2191 39.6957L59.6981 36.9027C59.8102 36.2493 59.5938 35.583 59.1192 35.1202L57.0899 33.1421L59.8942 32.7347C60.5502 32.6394 61.117 32.2277 61.4105 31.6331L62.6648 29.0918L63.919 31.6331C64.2125 32.2277 64.7794 32.6394 65.4353 32.7345L68.2396 33.1421L66.21 35.1202Z" fill="#D9D9D9"/>
<path d="M51.2286 54.4957C50.99 53.7613 50.3671 53.2362 49.6029 53.1252L46.7474 52.7102L45.4703 50.1226C45.1285 49.4301 44.4366 49 43.6643 49C42.8922 49 42.2002 49.4301 41.8584 50.1226L40.5812 52.7102L37.7257 53.1252C36.9614 53.2362 36.3386 53.7613 36.1001 54.4957C35.8614 55.2301 36.0568 56.0211 36.6096 56.5601L38.676 58.5742L38.1882 61.4184C38.0577 62.1793 38.3646 62.9342 38.9892 63.3879C39.3423 63.6444 39.7552 63.7748 40.171 63.7748C40.491 63.7748 40.8127 63.6976 41.11 63.5413L43.6641 62.1985L46.2183 63.5413C46.9021 63.9007 47.7144 63.8418 48.339 63.3881C48.9636 62.9342 49.2707 62.1796 49.1402 61.4185L48.6524 58.5743L50.7188 56.5602C51.272 56.0211 51.4672 55.2302 51.2286 54.4957ZM47.21 57.1202C46.7353 57.583 46.5188 58.2493 46.6311 58.9026L47.1099 61.6958L44.6015 60.377C44.3082 60.2229 43.9864 60.1457 43.6647 60.1457C43.3428 60.1457 43.0208 60.2227 42.7275 60.377L40.2191 61.6957L40.6981 58.9027C40.8102 58.2493 40.5938 57.583 40.1192 57.1202L38.0899 55.1421L40.8942 54.7347C41.5502 54.6394 42.117 54.2277 42.4105 53.6331L43.6648 51.0918L44.919 53.6331C45.2125 54.2277 45.7794 54.6394 46.4353 54.7345L49.2396 55.1421L47.21 57.1202Z" fill="#D9D9D9"/>
<path d="M70.2286 54.4957C69.99 53.7613 69.3671 53.2362 68.6029 53.1252L65.7474 52.7102L64.4703 50.1226C64.1285 49.4301 63.4366 49 62.6643 49C61.8922 49 61.2002 49.4301 60.8584 50.1226L59.5812 52.7102L56.7257 53.1252C55.9614 53.2362 55.3386 53.7613 55.1001 54.4957C54.8614 55.2301 55.0568 56.0211 55.6096 56.5601L57.676 58.5742L57.1882 61.4184C57.0577 62.1793 57.3646 62.9342 57.9892 63.3879C58.3423 63.6444 58.7552 63.7748 59.171 63.7748C59.491 63.7748 59.8127 63.6976 60.11 63.5413L62.6641 62.1985L65.2183 63.5413C65.9021 63.9007 66.7144 63.8418 67.339 63.3881C67.9636 62.9342 68.2707 62.1796 68.1402 61.4185L67.6524 58.5743L69.7188 56.5602C70.272 56.0211 70.4672 55.2302 70.2286 54.4957ZM66.21 57.1202C65.7353 57.583 65.5188 58.2493 65.6311 58.9026L66.1099 61.6958L63.6015 60.377C63.3082 60.2229 62.9864 60.1457 62.6647 60.1457C62.3428 60.1457 62.0208 60.2227 61.7275 60.377L59.2191 61.6957L59.6981 58.9027C59.8102 58.2493 59.5938 57.583 59.1192 57.1202L57.0899 55.1421L59.8942 54.7347C60.5502 54.6394 61.117 54.2277 61.4105 53.6331L62.6648 51.0918L63.919 53.6331C64.2125 54.2277 64.7794 54.6394 65.4353 54.7345L68.2396 55.1421L66.21 57.1202Z" fill="#D9D9D9"/>
<path d="M9.43756 53.3944L7.01408 56.5023L5.78705 55.1322C5.40977 54.7108 4.76266 54.6749 4.34099 55.0524C3.9196 55.4297 3.88383 56.0772 4.26125 56.4985L6.30539 58.7813C6.49998 58.9987 6.77758 59.1223 7.06829 59.1223C7.0799 59.1223 7.09151 59.1222 7.10312 59.1217C7.40639 59.1114 7.68932 58.9672 7.87585 58.7279L11.0527 54.654C11.4006 54.208 11.3209 53.5645 10.8749 53.2167C10.4288 52.8687 9.78522 52.9483 9.43756 53.3944Z" fill="#434343"/>
<path d="M12.8587 27.6128H1.9162C0.859578 27.6128 0 28.4724 0 29.529V40.4715C0 41.5281 0.859578 42.3877 1.9162 42.3877H3.45852C4.02425 42.3877 4.48264 41.9292 4.48264 41.3636C4.48264 40.798 4.02425 40.3395 3.45852 40.3395H2.04824V29.6612H12.7265V40.3395H8.19938C7.63366 40.3395 7.17526 40.798 7.17526 41.3636C7.17526 41.9292 7.63366 42.3877 8.19938 42.3877H12.8587C13.9152 42.3877 14.7748 41.5281 14.7748 40.4715V29.529C14.7748 28.4724 13.9152 27.6128 12.8587 27.6128Z" fill="#434343"/>
<path d="M31.7119 31.738L28.8564 31.323L27.5793 28.7352C27.2375 28.0429 26.5454 27.6128 25.7734 27.6128C25.0012 27.6128 24.3092 28.0429 23.9674 28.7354L22.6902 31.3231L19.8347 31.7381C19.0705 31.8491 18.4477 32.3743 18.2091 33.1085C17.9704 33.8429 18.1657 34.6339 18.7186 35.173L20.785 37.1871L20.2972 40.0313C20.1667 40.7923 20.4736 41.5471 21.0982 42.0009C21.4513 42.2573 21.8643 42.3877 22.2801 42.3877C22.6 42.3877 22.9217 42.3106 23.219 42.1542L25.7731 40.8114L28.3273 42.1542C29.011 42.5136 29.8235 42.4548 30.448 42.001C31.0726 41.5471 31.3797 40.7925 31.2492 40.0314L30.7614 37.1872L32.8278 35.1731C33.3807 34.6342 33.576 33.8431 33.3373 33.1088C33.0986 32.3744 32.4762 31.849 31.7119 31.738ZM29.319 35.733C28.8443 36.1957 28.6278 36.8621 28.7401 37.5154L29.2189 40.3086L26.7108 38.99C26.4174 38.8357 26.0954 38.7585 25.7735 38.7585C25.4518 38.7585 25.1298 38.8357 24.8365 38.9898L22.3281 40.3085L22.8071 37.5155C22.9192 36.8621 22.7028 36.1957 22.2282 35.733L20.1989 33.7549L23.0032 33.3475C23.6593 33.2521 24.2262 32.8403 24.5195 32.2458L25.7738 29.7045L27.028 32.2456C27.3213 32.8402 27.8884 33.2521 28.5443 33.3473L31.3486 33.7549L29.319 35.733Z" fill="#434343"/>
<path d="M49.9932 31.7376L47.1375 31.3226L45.8604 28.7349C45.5187 28.0424 44.8268 27.6123 44.0545 27.6123C43.2822 27.6123 42.5903 28.0424 42.2487 28.7349L40.9715 31.3226L38.1159 31.7376C37.3516 31.8486 36.7288 32.3738 36.4902 33.1081C36.2517 33.8425 36.4469 34.6335 36.9997 35.1725L39.0661 37.1867L38.5785 40.0308C38.4479 40.7918 38.7548 41.5465 39.3795 42.0004C40.0042 42.4543 40.8169 42.5128 41.5002 42.1537L44.0544 40.8109L46.6085 42.1536C46.9058 42.3099 47.2274 42.3871 47.5476 42.3871C47.9633 42.3871 48.3763 42.2568 48.7293 42.0004C49.3539 41.5465 49.6608 40.7918 49.5303 40.0308L49.0425 37.1866L51.1091 35.1725C51.662 34.6335 51.8572 33.8425 51.6185 33.1081C51.3799 32.3738 50.7575 31.8486 49.9932 31.7376ZM47.6002 35.7326C47.1254 36.1954 46.909 36.8617 47.0212 37.515L47.5001 40.3081L44.9919 38.9895C44.6985 38.8352 44.3765 38.758 44.0547 38.758C43.7329 38.758 43.411 38.8352 43.1177 38.9893L40.6094 40.308L41.0884 37.515C41.2005 36.8617 40.9839 36.1954 40.5093 35.7325L38.48 33.7544L41.2845 33.347C41.9403 33.2517 42.507 32.84 42.8007 32.2453L44.0549 29.7041L45.3091 32.2452C45.6024 32.8397 46.1694 33.2517 46.8254 33.3468L49.6298 33.7544L47.6002 35.7326Z" fill="#434343"/>
<path d="M12.8587 48.8506H1.9162C0.859578 48.8506 0 49.7102 0 50.7666V61.7092C0 62.7658 0.859578 63.6254 1.9162 63.6254H12.8587C13.9152 63.6254 14.7748 62.7658 14.7748 61.7092V50.7666C14.7748 49.7102 13.9152 48.8506 12.8587 48.8506ZM12.7265 61.5771H2.04824V50.8988H12.7265V61.5771Z" fill="#434343"/>
<path d="M31.712 52.9757L28.8565 52.5608L27.5793 49.973C27.2375 49.2807 26.5455 48.8506 25.7735 48.8506C25.0013 48.8506 24.3092 49.2807 23.9675 49.9732L22.6903 52.5609L19.8348 52.9759C19.0705 53.0869 18.4477 53.6121 18.2092 54.3464C17.9705 55.0808 18.1659 55.8718 18.7186 56.4108L20.785 58.425L20.2973 61.2691C20.1667 62.0301 20.4737 62.7849 21.0983 63.2387C21.4513 63.4951 21.8642 63.6255 22.2801 63.6255C22.6 63.6255 22.9218 63.5484 23.219 63.3921L25.7733 62.0493L28.3275 63.3921C29.0109 63.7515 29.8235 63.6927 30.4481 63.2388C31.0727 62.7849 31.3798 62.0303 31.2492 61.2691L30.7615 58.425L32.8279 56.4108C33.3808 55.8718 33.576 55.0809 33.3373 54.3464C33.0992 53.6119 32.4763 53.0868 31.712 52.9757ZM29.3191 56.9708C28.8443 57.4335 28.6279 58.0999 28.7401 58.7533L29.2191 61.5464L26.7106 60.2276C26.4173 60.0734 26.0954 59.9963 25.7737 59.9963C25.4519 59.9963 25.1299 60.0733 24.8366 60.2276L22.3282 61.5464L22.8072 58.7533C22.9193 58.0999 22.7029 57.4335 22.2282 56.9708L20.199 54.9926L23.0034 54.5851C23.6595 54.4897 24.2262 54.0778 24.5197 53.4836L25.774 50.9422L27.0282 53.4834C27.3215 54.078 27.8883 54.4898 28.5444 54.5851L31.3488 54.9927L29.3191 56.9708Z" fill="#434343"/>
</g>
<defs>
<clipPath id="clip0">
<rect width="70" height="70" fill="white"/>
</clipPath>
</defs>
</svg>
