<svg width="70" height="70" viewBox="0 0 70 70" fill="none" xmlns="http://www.w3.org/2000/svg">
<g clip-path="url(#clip0)">
<path d="M65.4135 28.0976C64.4967 26.788 63.115 26.0667 61.5224 26.0667H59.6989L58.9754 19.4172C58.7421 17.2413 58.8878 17.0137 59.6131 16.2981C59.8927 16.0232 60.2084 15.7482 60.5425 15.457C62.2929 13.9316 64.6903 11.8426 65.0028 6.71808C65.0293 6.28208 64.8461 5.85962 64.5094 5.58126C64.1727 5.3029 63.7235 5.20228 63.3001 5.31029C62.57 5.49663 61.9001 5.6771 61.3092 5.83638C56.9908 6.99999 55.9649 7.27658 51.8889 4.76191C45.218 0.648725 39.2393 -0.778756 33.6108 0.397708C28.8317 1.39685 25.3557 4.05411 22.5628 6.18939C22.3386 6.3607 22.1212 6.52695 21.9092 6.68759C19.6375 6.05896 17.3351 6.34894 15.3535 7.52786C12.9756 8.94277 11.2961 11.5341 10.8611 14.4603C10.2147 18.8271 10.1679 20.5114 10.1646 26.0668H8.47767C6.88503 26.0668 5.50335 26.7881 4.58651 28.0977C3.83442 29.1724 3.42017 30.6182 3.42017 32.169C3.42017 35.7045 5.61642 39.4622 9.68667 39.4622H10.5807C11.3777 43.117 13.2986 46.9406 16.1319 50.4448C13.6495 52.7554 11.5862 55.3258 10.1093 58.0057C9.87548 58.4299 9.88355 58.946 10.1305 59.3627C10.3768 59.7781 10.8238 60.0328 11.3065 60.0328H11.3108L15.0151 60.0212C15.3896 60.0212 16.0224 60.3591 16.2251 60.6685L18.2625 63.7673C18.9667 64.8416 20.4622 65.6482 21.7443 65.6482H21.7585L25.4667 65.6366C25.8393 65.6366 26.47 65.9746 26.6722 66.2829L28.7067 69.3831C28.9599 69.7692 29.3902 70.0001 29.8495 70.0001C29.8672 70.0001 29.885 69.9999 29.9027 69.9992C30.3819 69.9806 30.8163 69.7122 31.0475 69.2922C31.9397 67.6709 32.8557 66.048 33.7414 64.4785C34.4101 63.2937 35.0589 62.1433 35.68 61.0277C37.4432 60.9455 39.2558 60.5427 41.3248 59.7764C43.0704 59.1267 44.8071 58.2444 46.4867 57.1538C47.1201 56.7425 47.3001 55.896 46.8888 55.2627C46.4778 54.6294 45.6311 54.4495 44.9978 54.8606C43.4859 55.8422 41.9292 56.634 40.3729 57.2132C39.2637 57.6242 38.249 57.9138 37.2868 58.0922C40.4061 52.2629 42.3693 47.6026 41.4939 44.5192C41.166 43.3639 40.469 42.4856 39.422 41.9085C36.5466 40.3257 31.0307 41.2292 25.0265 44.2657C22.5787 45.5037 20.2794 46.9902 18.2029 48.6553C14.8639 44.4887 12.8985 39.7527 12.8985 35.7778V28.0161C16.1552 24.9278 18.4994 23.8749 22.08 22.8678C23.9615 22.3418 24.8429 22.6033 26.5981 23.1242C27.0379 23.2548 27.5363 23.4027 28.0935 23.5483C40.0176 26.664 44.7854 27.2174 54.2842 28.3202C55.1783 28.424 56.1161 28.5329 57.1054 28.6493V35.7779C57.1054 39.1062 55.7441 42.9688 53.2721 46.6542C52.8515 47.2812 53.0189 48.1305 53.6459 48.551C53.8796 48.7078 54.1442 48.7829 54.4061 48.7829C54.8464 48.7829 55.2788 48.5704 55.5427 48.1772C57.4639 45.3132 58.7859 42.3183 59.4165 39.4625H60.3132C64.3835 39.4625 66.5797 35.7048 66.5797 32.1692C66.5797 30.6182 66.1655 29.1722 65.4135 28.0976ZM26.2605 46.7052C31.8056 43.9007 36.4156 43.3742 38.103 44.303C38.5028 44.5234 38.7374 44.8202 38.8638 45.2655C39.7276 48.3081 35.4739 55.8454 31.3603 63.1345C30.8313 64.0716 30.2918 65.0277 29.7522 65.9924L28.9587 64.7831C28.2558 63.7108 26.7546 62.9021 25.4626 62.9021L21.748 62.9137C21.747 62.9137 21.7462 62.9137 21.7451 62.9137C21.3764 62.9137 20.7517 62.5767 20.5483 62.2664L18.5109 59.1675C17.808 58.0952 16.3052 57.2865 15.011 57.2865L13.7646 57.2905C16.6526 53.0995 21.093 49.3187 26.2605 46.7052ZM9.68681 36.7278C7.09517 36.7278 6.15454 34.0014 6.15454 32.1688C6.15454 31.1883 6.39954 30.2758 6.82679 29.6655C7.23394 29.0838 7.77397 28.8009 8.4778 28.8009H10.1644V35.7775C10.1644 36.0917 10.1742 36.4086 10.1935 36.7278H9.68681ZM54.5995 25.604C45.2275 24.516 40.5233 23.9698 28.7848 20.9028C28.2711 20.7685 27.8161 20.6334 27.376 20.5027C26.1931 20.1517 25.1657 19.8466 23.9176 19.8466C23.1662 19.8466 22.3348 19.9572 21.3417 20.2349C18.1059 21.1449 15.6856 22.1335 12.9022 24.3743C12.919 20.1771 13.0151 18.5809 13.5658 14.8616C13.8811 12.7401 15.0722 10.8769 16.7515 9.87765C17.794 9.25736 19.4977 8.68642 21.6967 9.48855C22.1282 9.64591 22.6088 9.57646 22.9778 9.30357C23.3803 9.00607 23.7898 8.69298 24.2233 8.36158C29.5544 4.28613 36.8552 -1.29542 50.4536 7.089C55.5329 10.223 57.5659 9.67681 62.0158 8.47765C61.4494 11.0403 60.1292 12.1905 58.7463 13.3957C58.3963 13.7007 58.0344 14.016 57.6945 14.3503C56.0544 15.9687 55.9971 17.2868 56.257 19.7109L56.9278 25.8751C56.1183 25.7802 55.3442 25.6904 54.5995 25.604ZM60.3132 36.7278H59.8086C59.8286 36.4079 59.8396 36.0907 59.8396 35.7775V28.8009H61.5224C62.2262 28.8009 62.7662 29.0838 63.1734 29.6655C63.6006 30.2758 63.8456 31.1883 63.8456 32.1688C63.8456 34.0014 62.9049 36.7278 60.3132 36.7278Z" fill="#434343"/>
<path d="M49.7781 39.5474C50.1286 38.8789 49.8709 38.0525 49.2022 37.7019L45.7911 35.913L49.2022 34.1242C49.8708 33.7735 50.1286 32.9472 49.7781 32.2786C49.4274 31.6101 48.6012 31.3521 47.9324 31.7028L42.2126 34.7024C41.7624 34.9384 41.4805 35.4047 41.4805 35.913C41.4805 36.4214 41.7624 36.8877 42.2126 37.1237L47.9324 40.1233C48.135 40.2297 48.3521 40.28 48.5661 40.28C49.0581 40.28 49.5336 40.0135 49.7781 39.5474Z" fill="#434343"/>
<path d="M20.2219 39.5475C20.4664 40.0136 20.9417 40.28 21.4339 40.28C21.6478 40.28 21.865 40.2296 22.0676 40.1234L27.7874 37.1238C28.2376 36.8878 28.5195 36.4214 28.5195 35.9131C28.5195 35.4048 28.2376 34.9385 27.7874 34.7025L22.0676 31.7029C21.3991 31.352 20.5727 31.61 20.2219 32.2787C19.8714 32.9473 20.1291 33.7736 20.7978 34.1243L24.2089 35.9131L20.7978 37.7019C20.1292 38.0526 19.8714 38.879 20.2219 39.5475Z" fill="#434343"/>
<path d="M25.7743 53.491C26.0215 53.491 26.2715 53.424 26.4967 53.2836C29.0021 51.7202 31.6432 50.5723 34.1346 49.9641C34.8681 49.785 35.3175 49.0452 35.1384 48.3117C34.9595 47.5782 34.2201 47.1291 33.486 47.3078C30.7157 47.9841 27.7983 49.2483 25.0493 50.9639C24.4087 51.3636 24.2135 52.2069 24.6133 52.8474C24.8725 53.2629 25.3182 53.491 25.7743 53.491Z" fill="#434343"/>
<path d="M49.4877 51.2193L49.4839 51.2231C48.95 51.757 48.952 52.6208 49.4859 53.1547C49.7524 53.4211 50.102 53.5542 50.4516 53.5542C50.8025 53.5542 51.1538 53.4202 51.4212 53.1527C51.9551 52.6189 51.9551 51.7532 51.4212 51.2193C50.8872 50.6854 50.0217 50.6854 49.4877 51.2193Z" fill="#434343"/>
</g>
<defs>
<clipPath id="clip0">
<rect width="70" height="70" fill="white"/>
</clipPath>
</defs>
</svg>
