<svg width="70" height="70" viewBox="0 0 70 70" fill="none" xmlns="http://www.w3.org/2000/svg">
<path d="M69.615 14.9078C69.3554 14.6398 69.0066 14.4922 68.6334 14.4922C66.8273 14.4922 65.1005 15.1662 63.7715 16.3898C62.444 17.6135 61.6306 19.2787 61.4801 21.0793C61.2846 23.4432 60.9223 26.8871 60.307 29.8594C60.2318 30.2244 60.1936 30.5936 60.1936 30.9586C60.1936 31.6777 60.3358 32.3777 60.616 33.0408C60.7022 33.2451 60.8011 33.4421 60.9104 33.6328H55.5082V27.207C55.5082 24.9454 53.6683 23.1055 51.4067 23.1055H46.3381C46.3381 23.1055 42.2883 16.8781 42.2829 16.8719C42.0303 16.4987 41.6091 16.2695 41.1527 16.2695H28.8479C28.3851 16.2695 27.9538 16.5036 27.7015 16.8916L23.6625 23.1055H18.5939C16.3323 23.1055 14.4923 24.9454 14.4923 27.207V33.6328H9.09125C9.74272 32.4976 9.96256 31.1638 9.69309 29.8601C9.20008 27.4731 8.80537 24.5187 8.51991 21.0793C8.37033 19.2788 7.55672 17.6136 6.22877 16.3903C4.90041 15.1662 3.17379 14.4922 1.36719 14.4922C0.997503 14.4922 0.643675 14.6419 0.386097 14.9071C0.128656 15.1724 -0.0103874 15.5306 0.000686793 15.9C0.0173665 16.4657 0.435726 29.5951 3.00782 35.303V40.3603L0.837542 53.9245C0.718187 54.67 1.22582 55.3711 1.97149 55.4904C2.04463 55.5021 2.11737 55.5078 2.18914 55.5078C2.84908 55.5078 3.43 55.0289 3.53746 54.3565L5.5408 41.8358H16.6078L18.6111 54.3565C18.7186 55.0289 19.2995 55.5078 19.9594 55.5078C20.0311 55.5078 20.1039 55.5021 20.1771 55.4904C20.9226 55.3711 21.4304 54.67 21.311 53.9243L19.1408 40.3602V36.3363C20.9006 36.1542 21.8282 35.1239 22.3471 34.5443C22.803 34.0349 23.1632 33.6327 24.0626 33.6327V37.7342C24.0626 39.9958 25.9026 41.8358 28.1642 41.8358H33.6329V45.9374C33.6329 47.4451 32.4063 48.6717 30.8986 48.6717H29.5314C26.5159 48.6717 24.0626 51.125 24.0626 54.1405C24.0626 54.8956 24.6749 55.5077 25.4298 55.5077C26.1848 55.5077 26.797 54.8956 26.797 54.1405C26.797 52.6328 28.0237 51.4061 29.5314 51.4061H30.8986C32.5307 51.4061 33.9973 50.6864 35.0001 49.5488C36.0031 50.6864 37.4696 51.4061 39.1017 51.4061H40.4689C41.9766 51.4061 43.2033 52.6328 43.2033 54.1405C43.2033 54.8956 43.8155 55.5077 44.5704 55.5077C45.3254 55.5077 45.9376 54.8956 45.9376 54.1405C45.9376 51.125 43.4844 48.6717 40.4689 48.6717H39.1017C37.594 48.6717 36.3673 47.4451 36.3673 45.9374V41.8358H41.8361C44.0977 41.8358 45.9376 39.9958 45.9376 37.7342V33.6327C46.8371 33.6327 47.1972 34.035 47.6535 34.5446C48.172 35.1239 49.0997 36.1542 50.8595 36.3363V40.3602L48.6892 53.9243C48.5699 54.67 49.0777 55.3711 49.8232 55.4904C49.8963 55.5021 49.9691 55.5078 50.0408 55.5078C50.7008 55.5078 51.2817 55.0289 51.3892 54.3565L53.3925 41.8358H64.4595L66.4628 54.3565C66.5703 55.0289 67.1512 55.5078 67.8111 55.5078C67.8828 55.5078 67.9556 55.5021 68.0288 55.4904C68.7743 55.3711 69.2821 54.67 69.1627 53.9243L66.9925 40.3602V35.3028C67.1459 34.9631 67.2923 34.599 67.4368 34.196C67.5597 33.8514 67.5407 33.4809 67.3848 33.1501C67.2276 32.8206 66.9528 32.5704 66.6081 32.4487C66.4591 32.3954 66.3046 32.368 66.1489 32.368C65.5718 32.368 65.0551 32.7331 64.861 33.2758C64.8337 33.3524 64.8063 33.4276 64.7788 33.4987C64.377 33.3674 64.0159 33.1432 63.7083 32.8342C63.2052 32.3256 62.9277 31.6598 62.9277 30.9585C62.9277 30.7794 62.9469 30.5948 62.9851 30.4129C63.4993 27.9192 63.9094 24.8553 64.2046 21.3049C64.3509 19.5426 65.524 18.0373 67.1934 17.4645C67.1237 18.7975 67.0266 20.1947 66.9132 21.5072C66.8817 21.8709 66.9925 22.225 67.2276 22.5053C67.4628 22.7842 67.7923 22.9564 68.1559 22.9879C68.5387 23.0207 68.9147 22.8922 69.1964 22.6352C69.4505 22.4041 69.6065 22.0869 69.6366 21.7437C69.9182 18.4953 69.9962 16.0057 69.9989 15.9004C70.0115 15.5271 69.8734 15.1744 69.615 14.9078ZM41.1526 20.1454L43.0768 23.1055H39.2286L41.1526 20.1454ZM29.5898 19.0039H38.6333L35.9673 23.1055H26.9237L29.5898 19.0039ZM5.79496 21.3053C6.08946 24.8541 6.50016 27.9185 7.01545 30.4131C7.17801 31.2004 6.97867 32.0112 6.46871 32.6374C6.13717 33.0444 5.70309 33.3397 5.21856 33.4986C3.58696 29.1856 2.99305 20.9751 2.80739 17.4703C4.42709 18.0343 5.64662 19.5187 5.79496 21.3053ZM16.4064 39.1014H5.74219V36.3671H16.4064V39.1014ZM41.8362 39.1014H28.1642C27.4103 39.1014 26.797 38.4881 26.797 37.7342V35.506C27.4254 35.9663 28.2985 36.3671 29.5314 36.3671C31.6533 36.3671 32.7142 35.1816 33.2846 34.5445C33.7405 34.035 34.1007 33.6328 35.0001 33.6328C35.8996 33.6328 36.2597 34.0352 36.716 34.5447C37.2861 35.1816 38.3471 36.3672 40.4689 36.3672C41.7018 36.3672 42.5748 35.9665 43.2033 35.5061V37.7344C43.2034 38.4881 42.5901 39.1014 41.8362 39.1014ZM49.6908 32.7208C49.1207 32.0839 48.0596 30.8983 45.9379 30.8983C43.8162 30.8983 42.7551 32.0838 42.1847 32.7209C41.7287 33.2303 41.3686 33.6325 40.4692 33.6325C39.5697 33.6325 39.2096 33.2302 38.7533 32.7206C38.1832 32.0838 37.1221 30.8982 35.0004 30.8982C32.8787 30.8982 31.8176 32.0837 31.2472 32.7208C30.7913 33.2302 30.4311 33.6324 29.5317 33.6324C28.6322 33.6324 28.2721 33.23 27.8158 32.7205C27.2457 32.0837 26.1847 30.898 24.0629 30.898C21.9412 30.898 20.8801 32.0835 20.3097 32.7206C19.8538 33.23 19.4936 33.6323 18.5942 33.6323C18.1018 33.6323 17.5766 33.3111 17.227 33.0349V27.207C17.227 26.4532 17.8403 25.8398 18.5942 25.8398H51.4069C52.1608 25.8398 52.7741 26.4532 52.7741 27.207V33.0374C52.4319 33.3087 51.9083 33.6327 51.4069 33.6327C50.5072 33.6327 50.1471 33.2303 49.6908 32.7208ZM64.2584 39.1014H53.5942V36.3671H64.2584V39.1014Z" fill="#434343"/>
<path d="M67.5467 29.1116C68.3018 29.1116 68.9139 28.4995 68.9139 27.7444C68.9139 26.9893 68.3018 26.3772 67.5467 26.3772C66.7917 26.3772 66.1795 26.9893 66.1795 27.7444C66.1795 28.4995 66.7917 29.1116 67.5467 29.1116Z" fill="#434343"/>
</svg>
