<svg width="512" height="512" viewBox="0 0 512 512" fill="none" xmlns="http://www.w3.org/2000/svg">
<g clip-path="url(#clip0)">
<path d="M485.699 428.109L367.98 310.392C365.361 307.774 361.528 306.78 357.968 307.798L340.436 312.807C339.42 313.098 338.456 313.543 337.577 314.13L319.546 326.162L292.961 343.902C240.775 309.088 195.744 263.062 162.068 210.132L181.375 190.825C181.377 190.823 181.378 190.822 181.38 190.82L196.412 175.788C197.638 174.562 198.53 173.045 199.006 171.379L204.015 153.847C205.033 150.286 204.039 146.454 201.421 143.835L83.7051 26.1159C80.8771 23.2889 76.6611 22.3749 72.9131 23.7789L52.8751 31.2929C51.5131 31.8039 50.2751 32.6009 49.2451 33.6299C44.8471 38.0279 40.6161 42.7629 36.6721 47.7019C36.6701 47.7039 36.6681 47.7059 36.6671 47.7079C-16.6679 114.478 -11.2599 210.458 49.2461 270.964L240.85 462.568C273.492 495.21 316.449 511.817 359.584 511.813C396.404 511.811 433.357 499.707 464.106 475.146C469.05 471.197 473.786 466.965 478.184 462.568C479.213 461.538 480.01 460.3 480.521 458.938L488.035 438.902C489.44 435.157 488.526 430.937 485.699 428.109ZM62.1431 49.5989L73.9271 45.1809L182.759 154.014L180.124 163.236L174.172 169.188L116.615 111.631L58.4891 53.5049C59.6881 52.1759 60.9081 50.8729 62.1431 49.5989ZM255.272 448.147L63.6671 256.543C13.2431 206.119 6.37708 127.651 45.8001 69.6579L159.751 183.609L141.919 201.441C138.589 204.771 137.973 209.95 140.429 213.969C177.271 274.256 228.119 326.377 287.479 364.697C290.892 366.901 295.29 366.867 298.67 364.612L323.911 347.768L442.157 466.014C384.164 505.438 305.697 498.571 255.272 448.147ZM462.216 449.672C460.943 450.907 459.639 452.125 458.31 453.326L341.209 336.224L347.572 331.979L357.801 329.055L466.634 437.888L462.216 449.672Z" fill="white"/>
<path d="M274.797 426.202L202.429 353.834C198.447 349.852 191.99 349.853 188.007 353.834C184.025 357.816 184.025 364.273 188.007 368.256L260.376 440.624C262.366 442.616 264.977 443.611 267.586 443.611C270.195 443.611 272.806 442.615 274.797 440.624C278.779 436.642 278.779 430.185 274.797 426.202Z" fill="white"/>
<path d="M175.231 326.639L170.375 321.782C166.393 317.8 159.936 317.8 155.953 321.782C151.971 325.764 151.971 332.221 155.953 336.204L160.81 341.061C162.802 343.053 165.411 344.048 168.02 344.048C170.629 344.048 173.24 343.053 175.231 341.061C179.213 337.079 179.213 330.622 175.231 326.639Z" fill="white"/>
<path d="M244.392 130.35C238.76 130.35 234.195 134.915 234.195 140.547C234.195 146.179 238.76 150.744 244.392 150.744C308.934 150.744 361.444 203.254 361.444 267.796C361.444 273.428 366.009 277.993 371.641 277.993C377.273 277.993 381.838 273.428 381.838 267.796C381.838 192.009 320.181 130.35 244.392 130.35Z" fill="white"/>
<path d="M244.392 66.2402C238.76 66.2402 234.195 70.8052 234.195 76.4372C234.195 82.0692 238.76 86.6342 244.392 86.6342C344.285 86.6342 425.554 167.903 425.554 267.796C425.554 273.428 430.119 277.993 435.751 277.993C441.383 277.993 445.948 273.428 445.948 267.796C445.948 156.658 355.53 66.2402 244.392 66.2402Z" fill="white"/>
<path d="M433.62 78.568C383.075 28.024 315.872 0.187012 244.392 0.187012C238.76 0.187012 234.195 4.75201 234.195 10.384C234.195 16.016 238.76 20.581 244.392 20.581C380.707 20.581 491.607 131.481 491.607 267.796C491.607 273.428 496.172 277.993 501.804 277.993C507.436 277.993 512.001 273.428 512.001 267.796C512.001 196.316 484.164 129.113 433.62 78.568Z" fill="white"/>
</g>
<defs>
<clipPath id="clip0">
<rect width="512.001" height="512.001" fill="white"/>
</clipPath>
</defs>
</svg>
