<svg width="44" height="44" viewBox="0 0 44 44" fill="none" xmlns="http://www.w3.org/2000/svg">
<path d="M42.5524 14.13L36.3649 1.75503C36.3078 1.64084 36.22 1.54481 36.1114 1.47769C36.0028 1.41057 35.8777 1.37501 35.75 1.37501C34.8559 1.37494 33.9746 1.58735 33.1788 1.99472C32.3829 2.4021 31.6952 2.99278 31.1724 3.71807C30.6497 4.44337 30.3067 5.28253 30.1719 6.16638C30.0371 7.05022 30.1142 7.95346 30.397 8.80164L31.354 11.6737L30.6713 12.3564C30.58 12.3941 29.777 11.7732 29.68 11.7164C29.6723 11.7119 29.6647 11.7078 29.657 11.7035C28.2236 10.8577 26.6589 10.2575 25.0275 9.92777C25.8009 9.30184 26.3614 8.45155 26.6316 7.49397C26.9019 6.53638 26.8687 5.51856 26.5366 4.58062C26.2045 3.64269 25.5899 2.83074 24.7773 2.25654C23.9647 1.68234 22.9941 1.37413 21.9991 1.37433C21.0041 1.37453 20.0336 1.68312 19.2212 2.25764C18.4089 2.83216 17.7946 3.64436 17.4629 4.58243C17.1311 5.5205 17.0983 6.53833 17.369 7.49581C17.6396 8.45329 18.2004 9.30335 18.9741 9.92897C16.9456 10.3416 15.024 11.1685 13.3298 12.3578L11.285 10.3125C11.0268 10.055 10.6771 9.91039 10.3125 9.91039C9.94784 9.91039 9.5981 10.055 9.33995 10.3125L7.56251 12.09C7.34807 12.3038 7.21045 12.5827 7.17112 12.883C7.13179 13.1833 7.19296 13.4881 7.34508 13.75H5.50001C4.85926 13.7474 4.22686 13.8953 3.65369 14.1818C3.08053 14.4682 2.58261 14.8852 2.20001 15.3992L3.30001 16.225C3.55506 15.8823 3.88698 15.6042 4.26909 15.4132C4.65119 15.2221 5.0728 15.1234 5.50001 15.125H9.62501C10.3544 15.125 11.0538 15.4147 11.5695 15.9305C12.0853 16.4462 12.375 17.1457 12.375 17.875C12.375 18.6044 12.0853 19.3038 11.5695 19.8196C11.0538 20.3353 10.3544 20.625 9.62501 20.625H5.50001C5.09228 20.6246 4.68975 20.5335 4.32148 20.3585C3.95322 20.1836 3.62842 19.929 3.37055 19.6131C3.11269 19.2973 2.92818 18.9281 2.83038 18.5323C2.73257 18.1365 2.72391 17.7239 2.80501 17.3243L1.45751 17.0507C1.29398 17.8561 1.37469 18.6921 1.68928 19.4514C2.00387 20.2107 2.53801 20.8587 3.22326 21.3125C2.54958 21.7582 2.02166 22.392 1.70508 23.1351C1.38849 23.8782 1.29719 24.698 1.4425 25.4926C1.58781 26.2872 1.96335 27.0216 2.52245 27.6046C3.08156 28.1876 3.79962 28.5935 4.58744 28.7719C4.11377 29.2647 3.77012 29.8675 3.58744 30.5262C3.40476 31.1848 3.38878 31.8785 3.54095 32.5449C3.69312 33.2112 4.00866 33.8293 4.45914 34.3433C4.90962 34.8574 5.48089 35.2513 6.12151 35.4896C5.51653 36.0544 5.09557 36.7882 4.9134 37.5955C4.73122 38.4028 4.79628 39.2463 5.10009 40.0161C5.40391 40.7859 5.93242 41.4465 6.61684 41.9118C7.30126 42.3771 8.10989 42.6256 8.93751 42.625H13.0625C14.0559 42.6237 15.0156 42.2644 15.7656 41.613C16.5156 40.9615 17.0058 40.0616 17.1462 39.0782C18.7095 39.6081 20.3493 39.8773 22 39.875C30.34 39.875 37.125 33.09 37.125 24.75C37.1351 21.6464 36.1806 18.6163 34.3933 16.0789L36.4375 14.0351C36.5653 13.9074 36.6666 13.7558 36.7358 13.5889C36.8049 13.422 36.8405 13.2431 36.8405 13.0625C36.8405 12.8819 36.8049 12.703 36.7358 12.5361C36.6666 12.3693 36.5653 12.2176 36.4375 12.09L34.66 10.3125C34.4018 10.055 34.0521 9.91039 33.6875 9.91039C33.3228 9.91039 32.9731 10.055 32.715 10.3125L32.4412 10.5863L31.7014 8.36646C31.4987 7.75824 31.4357 7.11219 31.5169 6.47626C31.5982 5.84034 31.8216 5.23088 32.1707 4.69315C32.5197 4.15543 32.9855 3.70324 33.5332 3.37017C34.081 3.03711 34.6968 2.83172 35.3348 2.76926L41.25 14.5998V33.6875C41.2477 35.6925 40.4502 37.6147 39.0325 39.0325C37.6147 40.4502 35.6925 41.2477 33.6875 41.25H17.1875V42.625H33.6875C36.0571 42.6223 38.3288 41.6798 40.0043 40.0043C41.6798 38.3288 42.6223 36.0571 42.625 33.6875V14.4375C42.625 14.3308 42.6002 14.2255 42.5524 14.13ZM23.375 6.87501H20.625V5.50001H23.375V6.87501ZM21.3125 8.25001H22.6875V9.64108C22.2311 9.6208 21.768 9.6208 21.3125 9.64108V8.25001ZM22 2.75001C22.7215 2.75001 23.4247 2.97701 24.0099 3.39887C24.5952 3.82072 25.033 4.41603 25.2611 5.10048C25.4893 5.78492 25.4963 6.52381 25.2811 7.21246C25.066 7.90112 24.6397 8.50463 24.0625 8.93751V8.25001C24.2448 8.25001 24.4197 8.17758 24.5486 8.04865C24.6776 7.91971 24.75 7.74485 24.75 7.56251V4.81251C24.75 4.63017 24.6776 4.45531 24.5486 4.32637C24.4197 4.19744 24.2448 4.12501 24.0625 4.12501H19.9375C19.7552 4.12501 19.5803 4.19744 19.4514 4.32637C19.3224 4.45531 19.25 4.63017 19.25 4.81251V7.56251C19.25 7.74485 19.3224 7.91971 19.4514 8.04865C19.5803 8.17758 19.7552 8.25001 19.9375 8.25001V8.93751C19.3603 8.50463 18.934 7.90112 18.7189 7.21246C18.5037 6.52381 18.5108 5.78492 18.7389 5.10048C18.9671 4.41603 19.4048 3.82072 19.9901 3.39887C20.5754 2.97701 21.2785 2.75001 22 2.75001ZM9.22239 13.75L8.53489 13.0625L10.3125 11.2851L12.2314 13.204C11.8985 13.4858 11.5776 13.7821 11.2689 14.0928C10.7505 13.8664 10.1908 13.7496 9.62501 13.75H9.22239ZM2.75001 24.75C2.75082 24.0209 3.04082 23.3219 3.55637 22.8064C4.07191 22.2908 4.77091 22.0008 5.50001 22H9.62501C10.3544 22 11.0538 22.2897 11.5695 22.8055C12.0853 23.3212 12.375 24.0207 12.375 24.75C12.375 25.4794 12.0853 26.1788 11.5695 26.6946C11.0538 27.2103 10.3544 27.5 9.62501 27.5H5.50001C4.77091 27.4992 4.07191 27.2092 3.55637 26.6936C3.04082 26.1781 2.75082 25.4791 2.75001 24.75ZM7.56251 34.375C6.83316 34.375 6.13369 34.0853 5.61796 33.5696C5.10224 33.0538 4.81251 32.3544 4.81251 31.625C4.81251 30.8957 5.10224 30.1962 5.61796 29.6805C6.13369 29.1647 6.83316 28.875 7.56251 28.875H11.6875C12.4169 28.875 13.1163 29.1647 13.632 29.6805C14.1478 30.1962 14.4375 30.8957 14.4375 31.625C14.4375 32.3544 14.1478 33.0538 13.632 33.5696C13.1163 34.0853 12.4169 34.375 11.6875 34.375H7.56251ZM13.0625 41.25H8.93751C8.20816 41.25 7.50869 40.9603 6.99296 40.4446C6.47724 39.9288 6.18751 39.2294 6.18751 38.5C6.18751 37.7707 6.47724 37.0712 6.99296 36.5555C7.50869 36.0397 8.20816 35.75 8.93751 35.75H13.0625C13.7919 35.75 14.4913 36.0397 15.007 36.5555C15.5228 37.0712 15.8125 37.7707 15.8125 38.5C15.8125 39.2294 15.5228 39.9288 15.007 40.4446C14.4913 40.9603 13.7919 41.25 13.0625 41.25ZM22 38.5C20.3205 38.503 18.6548 38.1964 17.0864 37.5956C16.9347 36.9269 16.6193 36.3063 16.1685 35.7895C15.7176 35.2728 15.1455 34.8762 14.5035 34.6352C15.1986 33.9871 15.648 33.1185 15.7754 32.1767C15.9027 31.2349 15.7002 30.278 15.2023 29.4686L16.39 28.783L15.7025 27.5921L14.2753 28.4159C13.7863 28.0204 13.2132 27.7423 12.6 27.603C13.173 27.0071 13.5533 26.2524 13.6914 25.4373H15.125V24.0625H13.6917C13.5969 23.5062 13.3892 22.9752 13.0814 22.5022C12.7735 22.0293 12.3721 21.6244 11.9017 21.3125C12.4213 20.9693 12.8562 20.5128 13.1739 19.9773C13.4916 19.4418 13.6837 18.8412 13.7358 18.2207C13.7879 17.6003 13.6987 16.9761 13.4748 16.3951C13.2509 15.8141 12.8982 15.2914 12.4432 14.8663C13.8718 13.4841 15.5833 12.4282 17.4596 11.7714C19.3358 11.1147 21.3322 10.8728 23.3111 11.0623C30.1903 11.7276 35.75 17.7753 35.75 24.75C35.75 32.3318 29.5818 38.5 22 38.5ZM33.6875 11.2851L35.465 13.0625L33.5451 14.9824C33.0029 14.3416 32.4084 13.7469 31.7678 13.2044L33.6875 11.2851Z" fill="#434343"/>
<path d="M22 12.375C19.0668 12.3754 16.2291 13.4172 13.9924 15.3147L14.8826 16.3625C16.3836 15.0905 18.1984 14.2444 20.1377 13.9126C22.0771 13.5808 24.0699 13.7753 25.9085 14.4759C27.7471 15.1765 29.364 16.3575 30.5907 17.8958C31.8174 19.4341 32.609 21.2733 32.8829 23.2217C33.1568 25.17 32.9029 27.1562 32.1478 28.9731C31.3927 30.7899 30.164 32.3709 28.5899 33.5513C27.0157 34.7316 25.1537 35.468 23.198 35.6836C21.2424 35.8993 19.2646 35.5864 17.4711 34.7774L16.9039 36.0302C18.5047 36.7556 20.2425 37.129 22 37.125C28.8234 37.125 34.375 31.5734 34.375 24.75C34.375 17.9266 28.8234 12.375 22 12.375Z" fill="#434343"/>
<path d="M21.3125 31.625H22.6875V34.375H21.3125V31.625Z" fill="#434343"/>
<path d="M21.3125 15.125H22.6875V17.875H21.3125V15.125Z" fill="#434343"/>
<path d="M24.8416 31.0469L26.0323 30.3594L27.4073 32.7409L26.2166 33.4284L24.8416 31.0469Z" fill="#434343"/>
<path d="M16.5918 16.7578L17.7825 16.0703L19.1575 18.4518L17.9668 19.1393L16.5918 16.7578Z" fill="#434343"/>
<path d="M27.6094 28.7834L28.2968 27.5927L30.6783 28.9677L29.9909 30.1584L27.6094 28.7834Z" fill="#434343"/>
<path d="M13.3203 20.5331L14.0078 19.3424L16.3893 20.7174L15.7018 21.9081L13.3203 20.5331Z" fill="#434343"/>
<path d="M28.875 24.0625H31.625V25.4375H28.875V24.0625Z" fill="#434343"/>
<path d="M24.8418 18.453L26.2168 16.0715L27.4076 16.759L26.0326 19.1405L24.8418 18.453Z" fill="#434343"/>
<path d="M16.5913 32.7422L17.9663 30.3608L19.1571 31.0483L17.7821 33.4297L16.5913 32.7422Z" fill="#434343"/>
<path d="M19.9375 24.75C19.9373 25.0373 19.9971 25.3215 20.1131 25.5844C20.2291 25.8472 20.3988 26.0829 20.6112 26.2764C20.8236 26.4699 21.0741 26.6168 21.3467 26.7078C21.6192 26.7988 21.9077 26.8319 22.1938 26.8049C22.4798 26.7779 22.7571 26.6915 23.0077 26.5511C23.2584 26.4107 23.477 26.2195 23.6495 25.9897C23.822 25.7599 23.9446 25.4966 24.0094 25.2167C24.0742 24.9368 24.0798 24.6464 24.0258 24.3642L30.5964 20.5314L29.9036 19.3438L23.332 23.1773C23.0321 22.9228 22.6655 22.7594 22.2757 22.7065C21.8859 22.6535 21.4891 22.7133 21.1321 22.8787C20.7751 23.044 20.473 23.3081 20.2613 23.6397C20.0496 23.9713 19.9372 24.3566 19.9375 24.75ZM22 24.0625C22.136 24.0625 22.2689 24.1028 22.382 24.1784C22.495 24.2539 22.5831 24.3613 22.6352 24.4869C22.6872 24.6125 22.7008 24.7508 22.6743 24.8841C22.6478 25.0175 22.5823 25.14 22.4861 25.2361C22.39 25.3323 22.2675 25.3978 22.1341 25.4243C22.0008 25.4508 21.8625 25.4372 21.7369 25.3852C21.6113 25.3331 21.5039 25.245 21.4284 25.1319C21.3528 25.0189 21.3125 24.886 21.3125 24.75C21.3127 24.5677 21.3852 24.393 21.5141 24.2641C21.643 24.1352 21.8177 24.0627 22 24.0625Z" fill="#434343"/>
</svg>
