<svg width="70" height="70" viewBox="0 0 70 70" fill="none" xmlns="http://www.w3.org/2000/svg">
<g clip-path="url(#clip0)">
<path d="M66.3833 56.8959C68.3555 53.7999 68.0196 49.7684 65.5622 47.0414C63.1048 44.3144 59.1299 43.5621 55.846 45.2024C55.4751 43.5135 54.4923 42.0215 53.0868 41.0141L54.2243 38.5058C55.4705 39.259 56.6228 40.1578 57.6566 41.1833C58.1063 41.629 58.8295 41.6347 59.2861 41.1961C59.7428 40.7575 59.7662 40.0347 59.339 39.5674C58.1034 38.3254 56.7097 37.2514 55.1938 36.3731L56.1656 34.2311C58.1597 35.2932 60.0451 36.5479 61.7948 37.9773C62.1126 38.2482 62.5508 38.329 62.9444 38.1892C63.3379 38.0494 63.627 37.7103 63.7027 37.2996C63.7784 36.8889 63.6293 36.469 63.3115 36.1981C61.3984 34.6257 59.3292 33.2535 57.1363 32.1031L58.1023 29.9739C60.4634 31.1929 62.7118 32.6187 64.8211 34.2346C65.3276 34.6338 66.0617 34.5468 66.4609 34.0404C66.86 33.5339 66.7731 32.7998 66.2666 32.4006C64.0107 30.6623 61.5991 29.136 59.0625 27.8413L60.0285 25.7098C62.7681 27.0391 65.373 28.6301 67.8066 30.4604C68.0128 30.6237 68.2681 30.7125 68.5311 30.7124C68.6622 30.7128 68.7924 30.6907 68.9161 30.6471C69.2933 30.5153 69.5768 30.1997 69.6675 29.8106C71.0908 23.6914 67.6235 16.3239 63.7875 14.5844C59.9515 12.8449 52.1208 15.0908 48.4575 20.1926C48.2242 20.5173 48.1735 20.9388 48.3231 21.3096C48.4726 21.6804 48.8016 21.9487 49.1948 22.0208C52.1782 22.6455 55.0941 23.5578 57.9016 24.7449L56.9333 26.8764C54.285 25.8189 51.5445 25.0089 48.7468 24.4568C48.1128 24.3411 47.505 24.7613 47.3894 25.3954C47.2737 26.0294 47.6939 26.6371 48.328 26.7528C50.9366 27.2745 53.4935 28.0277 55.9685 29.0033L55.0025 31.1324C52.6897 30.2378 50.2908 29.5845 47.8438 29.1829C47.4272 29.1125 47.0051 29.2728 46.7403 29.602C46.4755 29.9312 46.4093 30.3778 46.5673 30.7696C46.7253 31.1615 47.0829 31.4372 47.502 31.4906C49.7327 31.8641 51.9211 32.4569 54.0353 33.2604L53.0635 35.4024C51.401 34.8387 49.6715 34.4966 47.9196 34.3851H47.866C47.2216 34.3709 46.6878 34.8818 46.6736 35.5261C46.6595 36.1704 47.1703 36.7043 47.8146 36.7184C49.2693 36.8158 50.7068 37.09 52.0951 37.5351L50.988 39.9781C49.7976 39.598 48.5239 39.5624 47.3141 39.8754C46.5208 38.3145 44.9176 37.3318 43.1666 37.3333C43.173 33.8171 40.9241 30.6931 37.5875 29.5834C34.251 28.4738 30.579 29.6287 28.4783 32.4484C27.3875 30.8451 25.4179 30.085 23.5328 30.5398L22.3988 30.8151L21.2951 26.2814C20.9902 25.0296 19.7284 24.2618 18.4765 24.5664L13.9416 25.6666C12.6908 25.9738 11.9236 27.2343 12.2255 28.4864L13.3303 33.0201L12.1975 33.2954C10.9949 33.5883 9.9579 34.3469 9.31465 35.4043C8.6714 36.4617 8.47456 37.7314 8.76746 38.9339L10.0858 44.3508C7.18064 44.4953 4.57208 46.1754 3.23895 48.7606C1.90581 51.3459 2.0497 54.4453 3.61663 56.8959C0.821272 58.4345 -0.576089 61.6718 0.221587 64.7613C1.01926 67.8508 3.80917 70.0069 6.99996 69.9999H63C66.1908 70.0069 68.9807 67.8508 69.7783 64.7613C70.576 61.6718 69.1786 58.4345 66.3833 56.8959ZM62.8226 16.7089C65.1945 17.7846 67.907 22.7068 67.648 27.4609C62.7648 24.078 57.3105 21.6054 51.548 20.1623C54.9593 16.8338 60.4543 15.6333 62.8226 16.7089ZM15.96 58.6273L14.6195 53.1229C14.5463 52.8209 14.5967 52.5022 14.7595 52.2374C14.9165 51.9769 15.1703 51.789 15.4653 51.7148H15.4793L29.0826 48.4026H29.1013C29.7241 48.2562 30.3487 48.6387 30.5013 49.2601L31.6411 53.9548C28.6044 54.3351 25.8354 55.8835 23.9213 58.2714C21.2662 57.9467 18.5755 58.067 15.96 58.6273ZM29.3871 44.7241C29.5388 45.3419 29.1645 45.9665 28.5483 46.1241H28.5296L14.9263 49.4374H14.9135C14.2902 49.5838 13.6655 49.2006 13.5135 48.5788C13.3618 47.9536 13.7449 47.3236 14.3698 47.1706L27.9778 43.8666C28.6037 43.7143 29.2347 44.0982 29.3871 44.7241ZM14.4935 27.9381L19.0283 26.8333L20.132 31.3681L15.5983 32.4718L14.4935 27.9381ZM11.3073 36.6216C11.6283 36.0929 12.1476 35.7148 12.7493 35.5716L15.0161 35.0198L18.417 34.1914L24.0846 32.8113C24.2653 32.7675 24.4505 32.7451 24.6365 32.7448C25.7129 32.7444 26.6499 33.4804 26.9045 34.5263L28.2835 40.1951C28.4351 40.8203 28.052 41.4503 27.4271 41.6033L13.8238 44.9166C13.1978 45.0689 12.5669 44.685 12.4145 44.0591L11.0343 38.3833C10.886 37.7832 10.9844 37.1487 11.3073 36.6216ZM63 67.6666H6.99996C4.65873 67.6746 2.67628 65.9416 2.37118 63.6203C2.06607 61.299 3.53337 59.1126 5.79713 58.5153C6.19769 58.4078 6.51112 58.0959 6.62039 57.6958C6.72965 57.2957 6.61832 56.8677 6.32796 56.5716C4.69127 54.8925 4.21907 52.3966 5.12927 50.2356C6.03948 48.0746 8.15513 46.6687 10.5 46.6666C10.8447 46.6699 11.1884 46.7051 11.5266 46.7716C10.7383 48.3259 11.2357 50.2242 12.6851 51.1921C12.2696 51.9496 12.151 52.8347 12.3526 53.6748L13.727 59.3179C12.6689 59.6979 11.6906 60.2712 10.8418 61.0084C10.5136 61.3433 10.4177 61.8421 10.5984 62.2747C10.7791 62.7074 11.2013 62.9898 11.6701 62.9918C11.9742 62.9932 12.267 62.8765 12.4868 62.6663C12.5195 62.6348 15.82 59.5886 24.36 60.6561C24.8456 60.7118 25.3155 60.4634 25.543 60.0308C25.6246 59.8663 27.7375 55.9999 35 55.9999C35.6443 55.9999 36.1666 55.4776 36.1666 54.8333C36.1666 54.1889 35.6443 53.6666 35 53.6666C34.65 53.6666 34.3093 53.6794 33.9756 53.6958L32.7623 48.7001C32.5553 47.8622 32.0432 47.1317 31.3261 46.6514C32.193 45.0815 31.7104 43.109 30.2166 42.1166C30.6329 41.359 30.7515 40.4732 30.5491 39.6328L29.5108 35.3698C30.4695 32.7038 33.2052 31.1122 35.9967 31.5962C38.7882 32.0803 40.8282 34.5001 40.8333 37.3333C40.8383 37.7253 40.7992 38.1167 40.7166 38.4999C40.6196 38.923 40.7655 39.3648 41.0952 39.647C41.4249 39.9292 41.884 40.0051 42.287 39.8439C42.9347 39.5915 43.6609 39.6378 44.2713 39.9705C44.8818 40.3032 45.3143 40.8883 45.4533 41.5694C45.5166 41.9223 45.7386 42.2265 46.0554 42.3944C46.3722 42.5622 46.7486 42.5751 47.0761 42.4293C47.6802 42.1527 48.3357 42.0065 49 41.9999C49.3439 42.0012 49.6866 42.0403 50.022 42.1166L47.7575 47.1076C46.6351 46.8386 45.4872 46.6908 44.3333 46.6666C43.689 46.6666 43.1666 47.1889 43.1666 47.8333C43.1666 48.4776 43.689 48.9999 44.3333 48.9999C45.5 48.9999 48.8751 49.3581 50.5085 50.9914C50.9662 51.4336 51.6939 51.4273 52.1439 50.9772C52.5939 50.5272 52.6003 49.7995 52.1581 49.3418C51.5229 48.7271 50.7844 48.2291 49.9765 47.8706L52.0951 43.2039C53.0897 44.0806 53.6617 45.3408 53.6666 46.6666C53.6634 46.7648 53.6536 46.8626 53.6375 46.9594L53.6025 47.2418C53.5557 47.7228 53.8103 48.1828 54.2426 48.3986C54.675 48.6144 55.1957 48.5413 55.552 48.2148C57.8867 46.1628 61.4204 46.302 63.5865 48.5313C65.7526 50.7606 65.7902 54.2968 63.672 56.5716C63.3816 56.8677 63.2703 57.2957 63.3795 57.6958C63.4888 58.0959 63.8022 58.4078 64.2028 58.5153C66.4665 59.1126 67.9338 61.299 67.6287 63.6203C67.3236 65.9416 65.3412 67.6746 63 67.6666Z" fill="#434343"/>
<path d="M33.8334 63.0001C34.4777 63.0001 35.0001 62.4777 35.0001 61.8334C35.0001 61.1891 34.4777 60.6667 33.8334 60.6667C33.1891 60.6667 32.6667 61.1891 32.6667 61.8334C32.6667 62.4777 33.1891 63.0001 33.8334 63.0001Z" fill="#434343"/>
<path d="M19.8333 65.3336C20.4776 65.3336 21 64.8112 21 64.1669C21 63.5226 20.4776 63.0002 19.8333 63.0002C19.189 63.0002 18.6666 63.5226 18.6666 64.1669C18.6666 64.8112 19.189 65.3336 19.8333 65.3336Z" fill="#434343"/>
<path d="M34.9999 38.4998C35.6442 38.4998 36.1666 37.9775 36.1666 37.3332C36.1666 36.6888 35.6442 36.1665 34.9999 36.1665C34.3556 36.1665 33.8333 36.6888 33.8333 37.3332C33.8333 37.9775 34.3556 38.4998 34.9999 38.4998Z" fill="#434343"/>
<path d="M38.4999 47.8333C39.1442 47.8333 39.6666 47.311 39.6666 46.6667C39.6666 46.0223 39.1442 45.5 38.4999 45.5C37.8556 45.5 37.3333 46.0223 37.3333 46.6667C37.3333 47.311 37.8556 47.8333 38.4999 47.8333Z" fill="#434343"/>
<path d="M52.4999 64.1668C53.1442 64.1668 53.6666 63.6445 53.6666 63.0002C53.6666 62.3558 53.1442 61.8335 52.4999 61.8335C51.8556 61.8335 51.3333 62.3558 51.3333 63.0002C51.3333 63.6445 51.8556 64.1668 52.4999 64.1668Z" fill="#434343"/>
<path d="M57.1667 55.9998C57.811 55.9998 58.3333 55.4775 58.3333 54.8332C58.3333 54.1888 57.811 53.6665 57.1667 53.6665C56.5223 53.6665 56 54.1888 56 54.8332C56 55.4775 56.5223 55.9998 57.1667 55.9998Z" fill="#434343"/>
<path d="M61.376 19.8964C61.641 19.3092 61.3798 18.6182 60.7926 18.3531C60.2054 18.088 59.5144 18.3492 59.2493 18.9364C58.9841 19.5236 59.2452 20.2146 59.8325 20.4798C60.1145 20.6071 60.4356 20.6172 60.725 20.5078C61.0145 20.3984 61.2487 20.1785 61.376 19.8964Z" fill="#434343"/>
<path d="M43.1665 53.6665C41.2335 53.6665 39.6665 55.2335 39.6665 57.1665C39.6665 59.0995 41.2335 60.6665 43.1665 60.6665C45.0995 60.6665 46.6665 59.0995 46.6665 57.1665C46.6665 55.2335 45.0995 53.6665 43.1665 53.6665ZM43.1665 58.3332C42.5222 58.3332 41.9998 57.8108 41.9998 57.1665C41.9998 56.5222 42.5222 55.9998 43.1665 55.9998C43.8108 55.9998 44.3332 56.5222 44.3332 57.1665C44.3332 57.8108 43.8108 58.3332 43.1665 58.3332Z" fill="#434343"/>
<path d="M4.6665 7.00003C4.6665 8.93302 6.23351 10.5 8.1665 10.5H10.4998C12.2531 10.5063 13.739 9.2112 13.9721 7.47353C14.2052 5.73587 13.1132 4.09488 11.4203 3.63886L12.6372 1.81419C12.8685 1.46741 12.8972 1.02355 12.7126 0.64982C12.5279 0.276089 12.1579 0.0292638 11.7419 0.00231947C11.3259 -0.0246248 10.9272 0.172406 10.6958 0.519192L9.33317 2.56669L7.9705 0.519192C7.6129 -0.0168929 6.88842 -0.16158 6.35234 0.196025C5.81625 0.553629 5.67157 1.27811 6.02917 1.81419L7.246 3.63886C5.72867 4.05246 4.67353 5.42734 4.6665 7.00003ZM8.1665 5.83336H10.4998C11.1442 5.83336 11.6665 6.35569 11.6665 7.00003C11.6665 7.64436 11.1442 8.16669 10.4998 8.16669H8.1665C7.52217 8.16669 6.99984 7.64436 6.99984 7.00003C6.99984 6.35569 7.52217 5.83336 8.1665 5.83336Z" fill="#434343"/>
<path d="M26.8333 19.8334C26.8333 21.7664 28.4003 23.3334 30.3332 23.3334H32.6666C34.4198 23.3397 35.9057 22.0446 36.1388 20.3069C36.3719 18.5692 35.28 16.9283 33.5871 16.4722L34.8039 14.6476C35.0352 14.3008 35.064 13.8569 34.8793 13.4832C34.6947 13.1095 34.3247 12.8626 33.9087 12.8357C33.4927 12.8088 33.0939 13.0058 32.8626 13.3526L31.4999 15.4001L30.1373 13.3561C29.7796 12.82 29.0552 12.6753 28.5191 13.0329C27.983 13.3905 27.8383 14.115 28.1959 14.6511L29.4128 16.4757C27.8967 16.889 26.8418 18.262 26.8333 19.8334ZM30.3332 18.6667H32.6666C33.3109 18.6667 33.8332 19.1891 33.8332 19.8334C33.8332 20.4777 33.3109 21.0001 32.6666 21.0001H30.3332C29.6889 21.0001 29.1666 20.4777 29.1666 19.8334C29.1666 19.1891 29.6889 18.6667 30.3332 18.6667Z" fill="#434343"/>
<path d="M47.8334 7.00003C47.8334 8.93302 49.4004 10.5 51.3334 10.5H53.6667C55.4199 10.5063 56.9058 9.2112 57.1389 7.47353C57.3721 5.73587 56.2801 4.09488 54.5872 3.63886L55.804 1.81419C56.0354 1.46741 56.0641 1.02355 55.8795 0.64982C55.6948 0.276089 55.3248 0.0292637 54.9088 0.00231942C54.4928 -0.0246249 54.094 0.172406 53.8627 0.519192L52.5 2.56669L51.1374 0.519192C50.7798 -0.0168929 50.0553 -0.16158 49.5192 0.196025C48.9831 0.553629 48.8384 1.27811 49.196 1.81419L50.4129 3.63886C48.8955 4.05246 47.8404 5.42734 47.8334 7.00003ZM51.3334 5.83336H53.6667C54.311 5.83336 54.8334 6.35569 54.8334 7.00003C54.8334 7.64436 54.311 8.16669 53.6667 8.16669H51.3334C50.689 8.16669 50.1667 7.64436 50.1667 7.00003C50.1667 6.35569 50.689 5.83336 51.3334 5.83336Z" fill="#434343"/>
</g>
<defs>
<clipPath id="clip0">
<rect width="70" height="70" fill="white"/>
</clipPath>
</defs>
</svg>
