<svg width="59" height="59" viewBox="0 0 59 59" fill="none" xmlns="http://www.w3.org/2000/svg">
<path d="M32.0928 59H26.9072C25.001 59 23.4502 57.4492 23.4502 55.543C23.4502 53.9351 24.5536 52.5801 26.043 52.1953V50.7611C26.043 50.4332 25.8048 50.1492 25.4765 50.0854C22.7163 49.5489 20.1316 48.4784 17.7941 46.9035C17.5144 46.7147 17.143 46.7463 16.9109 46.9782L15.8878 48.0011C16.6014 49.2431 16.5112 50.8433 15.573 51.9634C14.9491 52.7082 14.0374 53.1597 13.0713 53.2022C12.1053 53.2438 11.1579 52.877 10.4739 52.1931L6.80701 48.5263C6.15409 47.8734 5.79456 47.0054 5.79456 46.0819C5.79456 45.1584 6.15409 44.2902 6.80701 43.6373C7.46004 42.9844 8.3281 42.6249 9.25159 42.6249C9.8795 42.6249 10.4819 42.791 11.0083 43.1027L12.0219 42.0891C12.2539 41.8573 12.2853 41.4858 12.0966 41.2059C10.5217 38.8684 9.45118 36.2837 8.91476 33.5236C8.85092 33.1952 8.56675 32.957 8.23903 32.957H6.80609C6.6496 33.5697 6.32579 34.1285 5.85759 34.5805C5.17633 35.238 4.28027 35.5797 3.332 35.5477C1.46359 35.4811 0 33.9393 0 32.0376L0 26.9072C0 25.962 0.374281 25.0794 1.05393 24.4221C1.73359 23.765 2.63046 23.4206 3.57457 23.4523C5.10327 23.5032 6.39528 24.5985 6.79007 26.043H8.23891C8.56675 26.043 8.85092 25.8048 8.91465 25.4765C9.45106 22.7163 10.5216 20.1316 12.0965 17.7941C12.2851 17.5142 12.2537 17.1427 12.0218 16.9109L11.0082 15.8973C10.4818 16.209 9.87939 16.3752 9.25148 16.3752C8.32799 16.3752 7.45993 16.0156 6.80689 15.3627C5.459 14.0148 5.459 11.8215 6.80689 10.4735L10.4737 6.80689C11.8215 5.45888 14.0147 5.45911 15.3627 6.80689C16.0156 7.45993 16.3752 8.32799 16.3752 9.25148C16.3752 9.87927 16.209 10.4817 15.8973 11.0082L16.9109 12.0218C17.143 12.2539 17.5142 12.2851 17.794 12.0965C20.1316 10.5216 22.7163 9.45106 25.4764 8.91465C25.8048 8.85081 26.043 8.56664 26.043 8.23891V6.80471C24.5536 6.41994 23.4502 5.0649 23.4502 3.45703C23.4502 1.55082 25.001 0 26.9072 0L32.0928 0C33.999 0 35.5498 1.55082 35.5498 3.45703C35.5498 5.0649 34.4464 6.41994 32.957 6.80471V8.23891C32.957 8.56675 33.1952 8.85092 33.5235 8.91465C36.2837 9.45106 38.8684 10.5216 41.2059 12.0965C41.4856 12.2851 41.8572 12.2538 42.0891 12.0218L43.1036 11.0074C42.3225 9.68188 42.5005 7.94368 43.6373 6.80689C44.9851 5.45911 47.1783 5.45888 48.5263 6.80689L52.1931 10.4735C53.541 11.8214 53.541 14.0147 52.1931 15.3627C51.5401 16.0156 50.672 16.3752 49.7485 16.3752C49.1207 16.3752 48.5183 16.209 47.9918 15.8973L46.9782 16.9109C46.7462 17.1427 46.7149 17.5142 46.9035 17.7941C48.4784 20.1316 49.5489 22.7163 50.0854 25.4764C50.1492 25.8048 50.4334 26.043 50.7611 26.043H52.2075C52.5812 24.66 53.7765 23.5924 55.2322 23.4639H55.2323C56.2003 23.3776 57.164 23.7041 57.8772 24.3571C58.5907 25.0105 59 25.9399 59 26.9072V32.0928C59 33.0601 58.5907 33.9895 57.8772 34.6429C57.164 35.2959 56.1991 35.6214 55.2323 35.5361C53.7765 35.4076 52.5812 34.34 52.2075 32.957H50.7611C50.4332 32.957 50.1492 33.1952 50.0854 33.5235C49.5489 36.2837 48.4784 38.8684 46.9035 41.2059C46.7149 41.4858 46.7463 41.8573 46.9782 42.0891L47.9918 43.1027C48.5183 42.791 49.1207 42.6249 49.7485 42.6249C50.672 42.6249 51.5401 42.9844 52.1931 43.6373C52.846 44.2902 53.2056 45.1584 53.2056 46.0819C53.2056 47.0054 52.846 47.8734 52.193 48.5263L48.5263 52.1931C47.8423 52.8771 46.8961 53.245 45.9288 53.2022C44.9627 53.1597 44.051 52.7082 43.4271 51.9636C42.4889 50.8433 42.3985 49.2432 43.1123 48.0011L42.0892 46.9782C41.8573 46.7462 41.4859 46.7147 41.2061 46.9035C38.8686 48.4784 36.2838 49.5489 33.5238 50.0854C33.1953 50.1492 32.9571 50.4334 32.9571 50.7611V52.1953C34.4466 52.5801 35.5499 53.9351 35.5499 55.543C35.5498 57.4492 33.999 59 32.0928 59ZM17.3958 44.477C17.9803 44.477 18.5688 44.6463 19.0821 44.9922C21.1616 46.3934 23.461 47.3459 25.9162 47.823C27.325 48.0966 28.3477 49.3323 28.3477 50.7611V52.9502C28.3477 53.7445 27.7015 54.3906 26.9072 54.3906C26.2718 54.3906 25.7549 54.9076 25.7549 55.543C25.7549 56.1784 26.2718 56.6953 26.9072 56.6953H32.0928C32.7282 56.6953 33.2451 56.1784 33.2451 55.543C33.2451 54.9076 32.7282 54.3906 32.0928 54.3906C31.2985 54.3906 30.6523 53.7445 30.6523 52.9502V50.7611C30.6523 49.3324 31.675 48.0966 33.084 47.823C35.5391 47.3458 37.8385 46.3934 39.9181 44.9922C41.1104 44.1888 42.709 44.3385 43.7189 45.3485L45.3039 46.9336C45.8452 47.4748 45.8452 48.3557 45.3039 48.8969C44.8648 49.3361 44.8165 50.0329 45.1939 50.4837C45.4067 50.7376 45.7038 50.8854 46.0304 50.8998C46.3591 50.9134 46.6654 50.7948 46.8968 50.5635L50.5635 46.8967C50.7813 46.679 50.901 46.3898 50.901 46.082C50.901 45.7741 50.7811 45.4847 50.5635 45.2672C50.1142 44.8179 49.383 44.8181 48.9338 45.2672L48.8969 45.3041C48.3558 45.8453 47.4749 45.8454 46.9336 45.3041L45.3485 43.719C44.3386 42.7091 44.1888 41.1106 44.9922 39.9182C46.3934 37.8386 47.3459 35.5392 47.823 33.084C48.0966 31.675 49.3323 30.6523 50.7611 30.6523H53.0022C53.7677 30.6523 54.3906 31.2752 54.3906 32.0408C54.3906 32.6618 54.8493 33.1887 55.4349 33.2404C55.7647 33.2692 56.0796 33.1639 56.3206 32.9431C56.5622 32.722 56.6952 32.4199 56.6952 32.0928V26.9072C56.6952 26.5801 56.5622 26.278 56.3206 26.0569C56.0794 25.8359 55.7632 25.7302 55.4349 25.7596C54.8493 25.8113 54.3906 26.3382 54.3906 26.9592C54.3906 27.7247 53.7678 28.3477 53.0022 28.3477H50.7611C49.3324 28.3477 48.0966 27.325 47.823 25.916C47.3458 23.4609 46.3934 21.1615 44.9922 19.0819C44.1887 17.8894 44.3386 16.2909 45.3485 15.2811L46.8967 13.7329C47.4585 13.1713 48.3722 13.1714 48.9339 13.7329C49.3831 14.1821 50.1143 14.1824 50.5636 13.7329C51.0129 13.2836 51.0129 12.5526 50.5636 12.1032L46.8968 8.43654C46.4479 7.98747 45.7167 7.98701 45.2672 8.43654C44.8179 8.88572 44.8179 9.61688 45.2672 10.0662C45.8288 10.6278 45.8288 11.5418 45.2672 12.1034L43.719 13.6516C42.709 14.6615 41.1106 14.8113 39.9181 14.0079C37.8386 12.6068 35.5392 11.6542 33.084 11.1772C31.675 10.9034 30.6523 9.6677 30.6523 8.23891V6.0498C30.6523 5.25549 31.2985 4.60937 32.0928 4.60937C32.7282 4.60937 33.2451 4.09243 33.2451 3.45703C33.2451 2.82163 32.7282 2.30469 32.0928 2.30469L26.9072 2.30469C26.2718 2.30469 25.7549 2.82163 25.7549 3.45703C25.7549 4.09243 26.2718 4.60937 26.9072 4.60937C27.7015 4.60937 28.3477 5.25549 28.3477 6.0498V8.23891C28.3477 9.66759 27.325 10.9034 25.916 11.177C23.4609 11.6542 21.1615 12.6066 19.0819 14.0078C17.8896 14.8112 16.291 14.6615 15.2811 13.6515L13.7329 12.1033C13.461 11.8312 13.3111 11.4695 13.3111 11.0847C13.3111 10.6997 13.4611 10.3379 13.7334 10.0658C14.1824 9.61688 14.1824 8.88572 13.7329 8.43642C13.2836 7.98689 12.5525 7.98712 12.1033 8.43642L8.43654 12.1031C7.98724 12.5524 7.98724 13.2834 8.43654 13.7328C8.65422 13.9505 8.94357 14.0703 9.25136 14.0703C9.55915 14.0703 9.84851 13.9506 10.0661 13.7329C10.6276 13.1712 11.5415 13.1713 12.1033 13.7328L13.6515 15.281C14.6614 16.2909 14.8112 17.8894 14.0078 19.0818C12.6066 21.1614 11.6541 23.4608 11.177 25.916C10.9034 27.325 9.6677 28.3477 8.23891 28.3477H5.98942C5.22841 28.3477 4.60938 27.7286 4.60938 26.9676C4.60938 26.3198 4.11064 25.776 3.49771 25.7556C3.18231 25.7439 2.88247 25.8595 2.65615 26.0788C2.42949 26.2979 2.30469 26.5922 2.30469 26.9072L2.30469 32.0376C2.30469 32.6813 2.80227 33.2226 3.41393 33.2444C3.7314 33.2561 4.03009 33.1413 4.25699 32.9222C4.48423 32.7029 4.60938 32.4083 4.60938 32.0928C4.60938 31.2985 5.25549 30.6523 6.0498 30.6523H8.23891C9.66759 30.6523 10.9034 31.675 11.177 33.084C11.6542 35.5391 12.6066 37.8385 14.0078 39.9181C14.8113 41.1106 14.6614 42.7091 13.6515 43.7189L12.0664 45.3039C11.5252 45.8453 10.6443 45.8452 10.1031 45.3039L10.0662 45.2671C9.84851 45.0493 9.55927 44.9295 9.25148 44.9295C8.94369 44.9295 8.65422 45.0494 8.43665 45.2671C8.21898 45.4847 8.09913 45.774 8.09913 46.0819C8.09913 46.3897 8.21886 46.679 8.43654 46.8966L12.1034 50.5633C12.3348 50.7946 12.6432 50.9142 12.9697 50.8997C13.2963 50.8853 13.5934 50.7375 13.8062 50.4835C14.1836 50.0329 14.1353 49.336 13.6963 48.8968C13.1549 48.3556 13.1549 47.4747 13.6962 46.9335L15.2812 45.3484C15.8564 44.7733 16.6226 44.477 17.3958 44.477Z" fill="#434343"/>
<path d="M25.049 24.6461C22.3802 24.6461 20.2091 22.475 20.2091 19.8063C20.2091 17.1376 22.3802 14.9664 25.049 14.9664C27.7177 14.9664 29.8888 17.1376 29.8888 19.8063C29.8888 22.475 27.7177 24.6461 25.049 24.6461ZM25.049 17.2711C23.651 17.2711 22.5138 18.4084 22.5138 19.8063C22.5138 21.2042 23.651 22.3414 25.049 22.3414C26.4469 22.3414 27.5841 21.2042 27.5841 19.8063C27.5841 18.4084 26.4469 17.2711 25.049 17.2711Z" fill="#434343"/>
<path d="M21.7793 41.0011C19.4707 41.0011 17.5925 39.1228 17.5925 36.8142C17.5925 34.5056 19.4707 32.6273 21.7793 32.6273C24.0879 32.6273 25.9661 34.5056 25.9661 36.8142C25.9661 39.1228 24.0879 41.0011 21.7793 41.0011ZM21.7793 34.932C20.7415 34.932 19.8972 35.7763 19.8972 36.8142C19.8972 37.852 20.7415 38.6964 21.7793 38.6964C22.8171 38.6964 23.6615 37.852 23.6615 36.8142C23.6615 35.7763 22.8171 34.932 21.7793 34.932Z" fill="#434343"/>
<path d="M37.5471 39.8544C33.9356 39.8544 30.8969 37.1527 30.4787 33.5701C30.4049 32.938 30.8576 32.3657 31.4897 32.2919C32.122 32.2186 32.694 32.6707 32.7679 33.3029C33.0504 35.724 35.105 37.5497 37.5471 37.5497C40.2004 37.5497 42.3592 35.391 42.3592 32.7376C42.3592 30.2801 40.5205 28.2239 38.0822 27.9548C37.4497 27.8851 36.9934 27.3156 37.0632 26.6831C37.133 26.0504 37.7031 25.5955 38.3349 25.6641C41.943 26.0622 44.6638 29.1032 44.6638 32.7376C44.6638 36.6618 41.4713 39.8544 37.5471 39.8544Z" fill="#434343"/>
<path d="M36.0684 20.9589C35.7653 20.9589 35.468 20.8356 35.2537 20.6212C35.0393 20.4069 34.916 20.1096 34.916 19.8065C34.916 19.5023 35.0392 19.2061 35.2537 18.9918C35.468 18.7776 35.7653 18.6542 36.0684 18.6542C36.3714 18.6542 36.6687 18.7775 36.883 18.9918C37.0973 19.2061 37.2207 19.5035 37.2207 19.8065C37.2207 20.1096 37.0974 20.4069 36.883 20.6212C36.6687 20.8356 36.3714 20.9589 36.0684 20.9589Z" fill="#434343"/>
<path d="M29.5 44.3652C29.1969 44.3652 28.8996 44.2419 28.6853 44.0275C28.471 43.8133 28.3477 43.516 28.3477 43.2129C28.3477 42.9098 28.4708 42.6125 28.6853 42.3982C28.8996 42.1838 29.1958 42.0605 29.5 42.0605C29.8031 42.0605 30.1004 42.1837 30.3146 42.3982C30.5289 42.6125 30.6523 42.9098 30.6523 43.2129C30.6523 43.516 30.529 43.8133 30.3146 44.0275C30.1004 44.2419 29.8031 44.3652 29.5 44.3652Z" fill="#434343"/>
<path d="M16.5558 30.6674C16.2516 30.6674 15.9554 30.5441 15.7411 30.3297C15.5256 30.1154 15.4034 29.8181 15.4034 29.515C15.4034 29.2108 15.5256 28.9146 15.7411 28.7003C15.9544 28.4848 16.2517 28.3627 16.5558 28.3627C16.8589 28.3627 17.1562 28.4848 17.3705 28.7003C17.5847 28.9146 17.7081 29.2119 17.7081 29.515C17.7081 29.8181 17.5848 30.1142 17.3705 30.3297C17.1562 30.5441 16.8589 30.6674 16.5558 30.6674Z" fill="#434343"/>
<path d="M33.3164 29.6866C33.0133 29.6866 32.716 29.5633 32.5017 29.3489C32.2874 29.1347 32.1641 28.8374 32.1641 28.5343C32.1641 28.23 32.2872 27.9339 32.5017 27.7184C32.716 27.5041 33.0133 27.382 33.3164 27.382C33.6195 27.382 33.9168 27.5041 34.131 27.7184C34.3453 27.9339 34.4688 28.2301 34.4688 28.5343C34.4688 28.8374 34.3454 29.1334 34.131 29.3489C33.9168 29.5633 33.6195 29.6866 33.3164 29.6866Z" fill="#434343"/>
</svg>
