<svg width="45" height="45" viewBox="0 0 45 45" fill="none" xmlns="http://www.w3.org/2000/svg">
<g clip-path="url(#clip0)">
<path d="M8.9426 25.7018C8.18489 26.1513 7.67554 26.9773 7.67554 27.9204C7.67554 29.342 8.83208 30.4985 10.2537 30.4985C11.3739 30.4985 12.3292 29.78 12.684 28.7798H19.363C20.7846 28.7798 21.9412 29.9363 21.9412 31.3579C21.9412 32.7795 20.7846 33.936 19.363 33.936H9.05054C6.68124 33.936 4.75366 35.8636 4.75366 38.2329C4.75366 40.6022 6.68124 42.5298 9.05054 42.5298H17.6443C18.1189 42.5298 18.5037 42.145 18.5037 41.6704C18.5037 41.1958 18.1189 40.811 17.6443 40.811H9.05054C7.62896 40.811 6.47241 39.6545 6.47241 38.2329C6.47241 36.8113 7.62896 35.6548 9.05054 35.6548H19.363C21.7323 35.6548 23.6599 33.7272 23.6599 31.3579C23.6599 28.9886 21.7323 27.061 19.363 27.061H12.684C12.4807 26.488 12.0804 26.0077 11.5647 25.7018L18.1285 14.9325C19.161 13.3805 19.7068 11.572 19.7068 9.70166C19.7068 4.48921 15.4661 0.248535 10.2537 0.248535C5.04121 0.248535 0.800537 4.48921 0.800537 9.70166C0.800537 11.572 1.34633 13.3805 2.37887 14.9325L8.9426 25.7018ZM10.2537 28.7798C9.7798 28.7798 9.39429 28.3943 9.39429 27.9204C9.39429 27.4466 9.7798 27.061 10.2537 27.061C10.7275 27.061 11.113 27.4466 11.113 27.9204C11.113 28.3943 10.7275 28.7798 10.2537 28.7798ZM10.2537 1.96729C14.5184 1.96729 17.988 5.43693 17.988 9.70166C17.988 11.2372 17.5388 12.7211 16.6891 13.9929C16.6825 14.0028 16.676 14.0129 16.6698 14.0231L10.2537 24.5504C10.2537 24.5504 3.82485 14.0028 3.81823 13.9929C2.96848 12.7211 2.51929 11.2372 2.51929 9.70166C2.51929 5.43693 5.98893 1.96729 10.2537 1.96729Z" fill="#434343"/>
<path d="M10.2537 13.9985C12.623 13.9985 14.5505 12.071 14.5505 9.70166C14.5505 7.33236 12.623 5.40479 10.2537 5.40479C7.88437 5.40479 5.95679 7.33236 5.95679 9.70166C5.95679 12.071 7.88437 13.9985 10.2537 13.9985ZM10.2537 7.12354C11.6752 7.12354 12.8318 8.28008 12.8318 9.70166C12.8318 11.1232 11.6752 12.2798 10.2537 12.2798C8.83208 12.2798 7.67554 11.1232 7.67554 9.70166C7.67554 8.28008 8.83208 7.12354 10.2537 7.12354Z" fill="#434343"/>
<path d="M35.3474 14.5142C30.135 14.5142 25.8943 18.7548 25.8943 23.9673C25.8943 25.8406 26.4418 27.6519 27.4776 29.2055L34.0168 39.463C33.5105 39.7694 33.1179 40.2451 32.9172 40.811H25.3787C24.904 40.811 24.5193 41.1958 24.5193 41.6704C24.5193 42.145 24.904 42.5298 25.3787 42.5298H32.9171C33.2718 43.53 34.227 44.2485 35.3474 44.2485C36.769 44.2485 37.9255 43.092 37.9255 41.6704C37.9255 40.7353 37.4251 39.9151 36.6781 39.463L43.2173 29.2055C44.253 27.6519 44.8005 25.8406 44.8005 23.9673C44.8005 18.7548 40.5599 14.5142 35.3474 14.5142ZM35.3474 42.5298C34.8736 42.5298 34.488 42.1443 34.488 41.6704C34.488 41.1966 34.8736 40.811 35.3474 40.811C35.8213 40.811 36.2068 41.1966 36.2068 41.6704C36.2068 42.1443 35.8213 42.5298 35.3474 42.5298ZM41.7828 28.2586C41.7795 28.2637 35.3474 38.353 35.3474 38.353C35.3474 38.353 28.9153 28.2636 28.912 28.2586C28.0622 26.9867 27.613 25.5028 27.613 23.9673C27.613 19.7026 31.0827 16.2329 35.3474 16.2329C39.6121 16.2329 43.0818 19.7026 43.0818 23.9673C43.0818 25.5028 42.6326 26.9867 41.7828 28.2586Z" fill="#434343"/>
<path d="M35.3474 19.6704C32.9781 19.6704 31.0505 21.598 31.0505 23.9673C31.0505 26.3366 32.9781 28.2642 35.3474 28.2642C37.7167 28.2642 39.6443 26.3366 39.6443 23.9673C39.6443 21.598 37.7167 19.6704 35.3474 19.6704ZM35.3474 26.5454C33.9258 26.5454 32.7693 25.3889 32.7693 23.9673C32.7693 22.5457 33.9258 21.3892 35.3474 21.3892C36.769 21.3892 37.9255 22.5457 37.9255 23.9673C37.9255 25.3889 36.769 26.5454 35.3474 26.5454Z" fill="#434343"/>
<path d="M21.5115 42.5298C21.9861 42.5298 22.3708 42.145 22.3708 41.6704C22.3708 41.1958 21.9861 40.811 21.5115 40.811C21.0369 40.811 20.6521 41.1958 20.6521 41.6704C20.6521 42.145 21.0369 42.5298 21.5115 42.5298Z" fill="#434343"/>
</g>
<defs>
<clipPath id="clip0">
<rect width="44" height="44" fill="white" transform="translate(0.800537 0.248535)"/>
</clipPath>
</defs>
</svg>
