<svg width="70" height="70" viewBox="0 0 70 70" fill="none" xmlns="http://www.w3.org/2000/svg">
<path d="M64.4031 6.56188C65.7223 6.56188 66.7957 5.48849 66.7957 4.16928V2.3926C66.7957 1.07339 65.7223 0 64.4031 0H55.3789C54.8126 0 54.3535 0.459106 54.3535 1.0254C54.3535 1.5917 54.8126 2.0508 55.3789 2.0508H64.4031C64.5915 2.0508 64.7449 2.2042 64.7449 2.3926V4.16928C64.7449 4.35768 64.5915 4.51108 64.4031 4.51108H5.59707C5.40867 4.51108 5.25527 4.35768 5.25527 4.16928V2.3926C5.25527 2.2042 5.40867 2.0508 5.59707 2.0508H50.4414C51.0077 2.0508 51.4668 1.5917 51.4668 1.0254C51.4668 0.459106 51.0077 0 50.4414 0H5.59707C4.27786 0 3.20447 1.07339 3.20447 2.3926V4.16928C3.20447 5.48849 4.27786 6.56188 5.59707 6.56188H6.43612V63.4381H5.59707C4.27786 63.4381 3.20447 64.5115 3.20447 65.8307V67.6074C3.20447 68.9266 4.27786 70 5.59707 70H64.4031C65.7223 70 66.7957 68.9266 66.7957 67.6074V65.8307C66.7957 64.5115 65.7223 63.4381 64.4031 63.4381H63.5641V6.56188H64.4031ZM38.2963 63.4381V50.9229C39.3325 49.9976 39.9864 48.6527 39.9864 47.1575C39.9864 45.6623 39.3325 44.3174 38.2963 43.3921V30.9001C38.2963 30.3338 37.8372 29.8747 37.2709 29.8747C36.7046 29.8747 36.2455 30.3338 36.2455 30.9001V42.2814C35.8279 42.1693 35.3897 42.1086 34.9373 42.1086C34.5299 42.1086 34.1342 42.1583 33.7546 42.2498V13.0722H36.2456V25.9625C36.2456 26.5288 36.7047 26.9879 37.271 26.9879C37.8373 26.9879 38.2964 26.5288 38.2964 25.9625V13.0722H57.0011V63.4381H38.2963ZM17.2128 47.4467C16.8318 45.7286 17.5651 44.0005 19.0152 43.079C19.243 43.2755 19.4818 43.4606 19.7339 43.6303C20.9435 44.4439 22.3168 44.8643 23.7121 44.8643C24.2183 44.8643 24.7275 44.8089 25.2327 44.6968C27.4557 44.2037 29.2022 42.6851 30.126 40.7169C30.6923 40.8291 31.2278 41.059 31.7036 41.3961V43.2834C30.6131 44.195 29.9129 45.5573 29.89 47.0812L24.379 48.8398L24.1627 47.744C24.0529 47.1884 23.5131 46.8268 22.9581 46.9367C22.4026 47.0463 22.0409 47.5857 22.1507 48.1413L22.4125 49.4674L17.9752 50.8834L17.2128 47.4467ZM24.7886 42.6947C23.4449 42.993 22.0564 42.7207 20.8785 41.9285C19.6847 41.1254 18.8506 39.8871 18.5298 38.4415C18.2092 36.9958 18.4414 35.5208 19.1836 34.2883C19.9159 33.0725 21.0593 32.2386 22.4028 31.9405C22.7586 31.8617 23.1142 31.8238 23.4657 31.8238C25.8759 31.8238 28.0875 33.6065 28.6616 36.1938C29.3195 39.1588 27.5819 42.0751 24.7886 42.6947ZM37.9356 47.1574C37.9356 48.8106 36.5906 50.1556 34.9373 50.1556C33.2841 50.1556 31.9391 48.8106 31.9391 47.1574C31.9391 45.5041 33.2841 44.1591 34.9373 44.1591C36.5906 44.1591 37.9356 45.5041 37.9356 47.1574ZM18.8436 54.7978L18.4213 52.8937L30.2811 49.1092C30.658 50.005 31.2864 50.7694 32.077 51.315L21.2924 56.0409C20.8036 56.2551 20.2503 56.2394 19.7744 55.9978C19.2985 55.7562 18.9593 55.3189 18.8436 54.7978ZM20.7603 63.4381L19.5777 58.107C19.9052 58.1963 20.2413 58.2426 20.5782 58.2426C21.1 58.2426 21.623 58.1352 22.1155 57.9194L31.7038 53.7177V63.4381H20.7603ZM33.7546 52.8191L35.1123 52.2241C35.1283 52.2171 35.1432 52.2086 35.1587 52.201C35.5329 52.1847 35.8966 52.1274 36.2456 52.0338V63.4381H33.7546V52.8191ZM57.0009 11.0214H12.9991V6.56188H57.0011V11.0214H57.0009ZM26.8759 13.0722C26.6897 14.6445 25.6543 16.4574 25.1557 16.4574C24.6571 16.4574 23.6217 14.6445 23.4355 13.0722H26.8759ZM8.48678 6.56188H10.9482V37.1276C10.9482 37.6939 11.4073 38.153 11.9736 38.153C12.5399 38.153 12.999 37.6939 12.999 37.1276V13.0722H16.2653V27.904C16.2653 28.4703 16.7244 28.9294 17.2907 28.9294C17.857 28.9294 18.3161 28.4703 18.3161 27.904V13.0722H21.3778C21.5656 15.2096 22.9654 18.5082 25.1556 18.5082C27.3457 18.5082 28.7456 15.2096 28.9333 13.0722H31.7036V39.0628C31.3926 38.9325 31.0716 38.8275 30.7426 38.7499C30.9063 37.7857 30.89 36.7695 30.6637 35.7497C29.7611 31.6809 25.8561 29.0746 21.9588 29.9386C20.0614 30.3595 18.4519 31.5285 17.4269 33.2304C16.4119 34.9156 16.0925 36.924 16.5277 38.8857C16.7404 39.8447 17.1223 40.7368 17.6469 41.5274C15.6506 42.9443 14.6637 45.425 15.2107 47.8909L18.6597 63.4381H12.9991V42.0651C12.9991 41.4988 12.54 41.0397 11.9737 41.0397C11.4074 41.0397 10.9483 41.4988 10.9483 42.0651V63.4381H8.48678V6.56188ZM64.7449 65.8307V67.6074C64.7449 67.7958 64.5915 67.9492 64.4031 67.9492H5.59707C5.40867 67.9492 5.25527 67.7958 5.25527 67.6074V65.8307C5.25527 65.6423 5.40867 65.4889 5.59707 65.4889H64.4031C64.5915 65.4889 64.7449 65.6423 64.7449 65.8307ZM61.5133 63.4381H59.0519V6.56188H61.5133V63.4381Z" fill="#434343"/>
</svg>
